<svg width="90" height="61" viewBox="0 0 90 61" fill="none" xmlns="http://www.w3.org/2000/svg">
<path opacity="0.38" d="M82.4978 29.0582C82.4978 29.4825 80.3713 38.5521 79.2695 42.7672C75.9111 49.6129 72.6748 56.2513 72.6748 56.2513C72.6748 56.2513 63.6345 54.4906 57.8815 52.4951C52.1286 50.4997 45.6713 49.5606 41.6795 50.0301C37.6876 50.4997 36.2788 51.4387 36.2788 51.4387C36.2788 51.4387 31.5825 49.0911 19.8418 49.5606C12.7012 49.8464 8.29609 50.4791 5.94092 50.931C7.68675 48.3041 11.742 42.2783 14.5586 38.6836C18.1911 34.0476 21.0605 31.6237 21.1321 31.5632C21.0505 31.6765 15.7984 38.9383 14.2457 41.5007C12.7798 43.9187 12.6865 44.0725 12.6806 44.0825C12.7822 44.0068 25.785 34.2976 34.3609 33.4402C42.9709 32.5798 42.9709 35.7097 42.9709 35.7097C42.9709 35.7097 45.9454 32.4231 55.9637 34.4578C65.9826 36.4921 71.6181 48.3868 72.1658 48.2301C72.7141 48.074 82.4978 28.5106 82.4978 29.0582Z" fill="#E29CAB"/>
<path opacity="0.52" d="M40.2313 21.6242C40.2313 21.6242 37.6484 24.0501 34.361 24.9109C31.0736 25.7717 31.1519 24.3632 31.1519 24.3632C31.1519 24.3632 27.3949 28.5889 21.4463 27.1803C15.4977 25.7717 16.2022 22.3285 16.9849 21.7808C17.7675 21.233 17.7675 19.3549 16.2022 19.3549C14.6367 19.3549 13.3062 19.5897 12.68 18.8072C12.0538 18.0247 13.4627 17.0856 12.9148 16.7726C12.3669 16.4596 10.3318 17.6334 7.12271 16.616C3.91358 15.5987 8.14021 13.5641 7.9054 13.3294C7.67058 13.0946 7.35752 12.7033 6.2617 12.7033C5.16589 12.7033 3.99183 12.9381 3.91358 12.4686C3.83532 11.999 7.0444 11.686 8.84465 11.999C10.6449 12.312 9.86215 13.2511 9.86215 13.2511C9.86215 13.2511 15.9673 12.3903 17.6892 13.7988C19.4112 15.2074 16.6717 16.4594 17.063 16.929C17.4544 17.3985 20.82 16.0682 22.1507 16.6942C23.4813 17.3203 21.0549 20.3722 22.3072 21.2329C23.5596 22.0937 25.3598 22.798 27.9428 22.0154C30.5257 21.2329 33.8131 19.5896 35.3002 20.2156C36.7873 20.8416 34.0479 23.2675 34.0479 23.2675C34.0479 23.2675 35.9265 24.2849 40.2313 21.6242Z" fill="#EADCF4"/>
<path d="M2.50464 56.8383L32.2476 55.7427C32.2476 55.7427 33.6565 56.6818 36.0046 56.6818C38.3528 56.6818 38.8224 56.2122 38.8224 56.2122C38.8224 56.2122 49.1542 59.1859 55.8855 59.9684C62.6168 60.7509 72.9486 60.5945 72.9486 60.5945L24.8901 46.5088L2.50464 56.8383Z" fill="#511414"/>
<path d="M86.0589 30.3104C86.0589 30.3104 89.3463 30.5451 89.4637 31.132C89.5811 31.7189 78.1927 60.0077 76.9012 60.712C75.6098 61.4163 62.9299 60.8294 52.5981 58.9513C42.2663 57.0732 38.7441 55.0777 38.7441 55.0777C38.7441 55.0777 37.5701 55.8994 35.809 55.782C34.0479 55.6646 33.226 54.8429 33.226 54.8429C33.226 54.8429 17.6086 56.4083 8.80549 56.721C1.09581 56.9949 0 56.3689 0 55.8994C0 55.4298 15.7325 27.3759 16.3195 27.0237C16.9065 26.6716 19.4895 26.5542 19.4895 26.5542L86.0589 30.3104Z" fill="#7F2626"/>
<path d="M33.2261 53.5518C33.2261 53.5518 34.1066 54.5495 35.809 54.6082C37.5114 54.6669 38.8616 54.0213 38.8616 54.0213L38.6855 51.1455L34.2827 49.3848L32.6978 51.7324L33.2261 53.5518Z" fill="#FF9F50"/>
<path d="M5.04848 50.852C5.04848 50.852 3.63961 52.8474 3.75701 53.1996C3.75701 53.1996 2.58295 54.256 2.58295 54.7255C2.58295 55.195 3.63961 55.3124 3.63961 55.3124C3.63961 55.3124 17.8458 54.6081 25.2424 54.1386C32.639 53.6691 33.226 53.5517 33.226 53.5517C33.226 53.5517 33.8131 51.2041 36.2786 51.4389C38.7441 51.6736 38.8615 54.0212 38.8615 54.0212C38.8615 54.0212 56.4725 58.8338 65.278 59.186C74.0835 59.5381 75.8446 59.5381 76.1968 59.4207C76.549 59.3034 76.9012 58.8338 76.9012 58.3643C76.9012 57.8948 88.4071 31.6015 88.0549 31.4842C87.7026 31.3668 86.9982 30.5451 86.9982 30.5451C86.9982 30.5451 86.5286 28.4323 85.9415 28.5496C85.3545 28.667 49.4281 41.3441 49.4281 41.3441L24.538 42.2832L5.04848 50.852Z" fill="#CE5A02"/>
<path d="M86.646 27.9626C86.4587 28.1562 82.7968 35.5759 79.2693 42.7672C75.9631 49.506 72.7756 56.0435 72.6769 56.2466C72.6758 56.2484 72.6752 56.2495 72.6752 56.2501C72.6746 56.2513 63.6343 54.4906 57.8814 52.4951C52.1285 50.4996 45.6711 49.5606 41.6793 50.0301C37.6875 50.4996 36.2786 51.4387 36.2786 51.4387C36.2786 51.4387 31.5823 49.0911 19.8417 49.5606C12.701 49.8464 8.29592 50.4791 5.94074 50.931C5.47405 51.0214 5.08778 51.1036 4.77666 51.1746C4.09687 51.3307 3.77577 51.4322 3.75757 51.4381L7.90789 43.6194L15.9708 28.4291L17.9632 24.6759C17.9632 24.6759 32.0519 22.7978 39.0963 22.9152C46.0398 23.0308 47.8502 24.8573 47.6758 25.5838L47.667 25.6149C47.667 25.6149 50.4848 23.5021 60.1121 23.6195C62.8788 23.6529 65.8586 24.0649 68.7145 24.6348C74.9206 25.8726 80.5414 27.8563 82.1193 28.3288C82.3424 28.3957 82.4851 28.4321 82.5367 28.4321C83.1238 28.4321 86.9982 27.6104 86.646 27.9626Z" fill="#EA801F"/>
<path d="M37.2179 16.8115C34.5176 17.7506 30.1735 16.5768 30.1735 16.2246C30.1735 15.8725 30.7605 13.2901 30.878 12.7032C30.9954 12.1163 29.4691 15.7551 28.9994 15.7551C28.6631 15.7551 26.5832 14.6124 25.4274 13.8336C24.9683 13.5249 24.6554 13.2731 24.6554 13.1727C24.6554 12.8206 25.4773 8.00797 25.4773 8.00797L23.1291 11.5294C23.1291 11.5294 22.0725 10.5903 20.4288 7.77321C18.7851 4.95607 19.0199 1.31727 19.0199 1.31727L20.3114 1.78679L19.0199 0.495607L21.2506 1.31727L19.9591 0.260846C19.9591 0.260846 22.5421 -0.326057 25.2424 0.260846C27.9428 0.847749 31.1128 3.78227 31.9346 4.83869C32.7565 5.89512 34.0479 6.95154 34.0479 6.95154L32.5216 8.71225L34.4001 8.12535C34.4001 8.12535 35.3394 9.29916 36.1612 11.6468C36.2775 11.9795 36.3826 12.3211 36.4765 12.6633C37.0447 14.7362 37.2179 16.8115 37.2179 16.8115Z" fill="#C656CC"/>
<path d="M26.8165 40.088C25.9519 40.088 25.1152 39.9774 24.3347 39.7548C22.4351 39.2128 21.0955 38.0724 20.5626 36.5438C20.0298 35.0152 20.3704 33.2895 21.5216 31.6844C22.6595 30.0981 24.4574 28.8163 26.5843 28.0752C28.7112 27.3342 30.9166 27.2211 32.794 27.7568C34.6937 28.2988 36.0333 29.4391 36.5662 30.9677C37.099 32.4963 36.7584 34.222 35.6072 35.8271C34.4694 37.4134 32.6714 38.6952 30.5445 39.4363C29.3017 39.8694 28.0319 40.088 26.8165 40.088ZM30.3119 27.7755C29.1362 27.7755 27.9062 27.9876 26.7002 28.4077C24.6413 29.1252 22.9038 30.3617 21.8078 31.8896C20.7253 33.3989 20.4012 35.0106 20.8952 36.4279C21.3893 37.8452 22.6451 38.9064 24.4314 39.4161C26.2398 39.9321 28.3696 39.8211 30.4286 39.1038C32.4875 38.3864 34.225 37.1498 35.321 35.6219C36.4035 34.1126 36.7276 32.5009 36.2336 31.0836C35.7395 29.6664 34.4837 28.6051 32.6974 28.0954C31.9482 27.8816 31.1436 27.7755 30.3119 27.7755Z" fill="#932121"/>
<path d="M27.6817 37.3986C27.123 37.3986 26.5821 37.327 26.0775 37.183C24.8424 36.8306 23.9707 36.0872 23.623 35.0899C23.2753 34.0924 23.4961 32.9684 24.2445 31.9249C24.9796 30.9001 26.1401 30.0724 27.5123 29.5942C28.8844 29.1161 30.3082 29.0435 31.5211 29.3896C32.7561 29.742 33.6278 30.4854 33.9755 31.4827C34.6851 33.5186 32.9404 35.9838 30.0863 36.9784C29.2849 37.2576 28.4659 37.3986 27.6817 37.3986ZM29.9166 29.526C29.172 29.526 28.3926 29.6605 27.6282 29.9268C26.324 30.3812 25.224 31.1638 24.5308 32.1302C23.851 33.0779 23.6467 34.0878 23.9557 34.974C24.2645 35.8602 25.0524 36.5244 26.1741 36.8445C27.3179 37.1708 28.6661 37.1003 29.9703 36.6459C32.6411 35.7153 34.2887 33.451 33.6429 31.5987C33.334 30.7125 32.5462 30.0482 31.4245 29.7282C30.951 29.5931 30.4424 29.526 29.9166 29.526Z" fill="#932121"/>
<path d="M68.106 46.9056C66.7818 46.9057 65.5126 46.5924 64.4337 45.9874C62.9661 45.1644 62.025 43.9009 61.7836 42.4297C61.5422 40.9586 62.0303 39.4607 63.158 38.212C64.2757 36.9744 65.8907 36.129 67.7055 35.8314C69.5203 35.5338 71.3207 35.8191 72.7753 36.6348C74.2429 37.4578 75.184 38.7213 75.4254 40.1925C75.6668 41.6637 75.1787 43.1616 74.051 44.4101C72.9333 45.6477 71.3183 46.4932 69.5035 46.7908C69.0349 46.8677 68.567 46.9056 68.106 46.9056ZM69.1036 36.0686C68.6613 36.0686 68.2126 36.105 67.7625 36.1788C66.0262 36.4636 64.4839 37.2695 63.4194 38.448C62.365 39.6155 61.9075 41.0094 62.1312 42.3727C62.3549 43.736 63.2338 44.9107 64.606 45.6803C65.9912 46.457 67.7101 46.7279 69.4466 46.4433C71.1828 46.1586 72.7253 45.3527 73.7896 44.1742C74.844 43.0066 75.3016 41.6128 75.0778 40.2495C74.8541 38.8861 73.9753 37.7115 72.603 36.942C71.5769 36.3665 70.3674 36.0686 69.1036 36.0686Z" fill="#932121"/>
<path d="M29.2797 34.3186C30.1513 34.0653 30.677 33.2376 30.4538 32.4699C30.2306 31.7021 29.3431 31.2851 28.4714 31.5384C27.5997 31.7917 27.0741 32.6194 27.2973 33.3872C27.5205 34.1549 28.408 34.5719 29.2797 34.3186Z" fill="#932121"/>
<path d="M24.1349 34.6389C24.8612 34.3301 25.2294 33.5613 24.9574 32.9215C24.6853 32.2818 23.876 32.0135 23.1497 32.3223C22.4233 32.6311 22.0551 33.3999 22.3271 34.0396C22.5992 34.6794 23.4085 34.9477 24.1349 34.6389Z" fill="#932121"/>
<path d="M31.4704 40.065C32.1452 39.9135 32.5848 39.3121 32.4522 38.7217C32.3196 38.1314 31.665 37.7756 30.9902 37.9271C30.3154 38.0786 29.8758 38.68 30.0084 39.2704C30.141 39.8607 30.7956 40.2165 31.4704 40.065Z" fill="#932121"/>
<path opacity="0.38" d="M82.1195 28.329C81.0968 29.2146 79.415 30.3497 76.7058 31.4842C70.9136 33.9098 67.3133 31.797 67.3133 31.797C67.3133 31.797 67.3912 32.8178 65.5129 32.658C62.7538 32.4232 58.762 31.3081 58.762 31.3081L59.7993 27.8847L68.7146 24.635C74.9207 25.8728 80.5415 27.8565 82.1195 28.329Z" fill="#E29CAB"/>
<path d="M33.6415 27.9723C33.7091 27.371 33.2068 26.821 32.5195 26.7438C31.8322 26.6665 31.2203 27.0913 31.1527 27.6926C31.0851 28.2938 31.5874 28.8439 32.2747 28.9211C32.962 28.9983 33.5739 28.5735 33.6415 27.9723Z" fill="#932121"/>
<path d="M71.1484 46.2936C71.1059 46.2936 71.0639 46.2782 71.0309 46.2487L67.2876 42.8983L62.6689 44.3293C62.593 44.3528 62.5104 44.3226 62.4679 44.2551C62.4253 44.1878 62.4334 44.1002 62.4874 44.0417L65.2374 41.0632L62.8124 38.8929C62.7552 38.8417 62.7378 38.7595 62.7692 38.6895C62.8007 38.6196 62.8734 38.5777 62.9499 38.5867L67.0866 39.0604L70.0014 35.9033C70.0485 35.8523 70.1208 35.8339 70.1866 35.8557C70.2523 35.8776 70.2991 35.9361 70.306 36.0051L70.6552 39.469L75.4454 40.0175C75.5282 40.027 75.593 40.0931 75.6008 40.1761C75.6085 40.259 75.5571 40.336 75.4775 40.3606L70.8884 41.7826L71.3235 46.0999C71.3308 46.1722 71.293 46.2415 71.2282 46.2745C71.2029 46.2873 71.1756 46.2936 71.1484 46.2936ZM67.6799 42.7767L70.9277 45.6836L70.5451 41.8889L67.6799 42.7767ZM65.4998 41.2982L63.1909 43.799L66.9816 42.6244L65.4998 41.2982ZM65.7388 41.0395L67.3739 42.5029L70.5091 41.5315L70.3332 39.7866L67.2241 39.4306L65.7388 41.0395ZM70.6913 39.8276L70.8523 41.4251L74.5734 40.2721L70.6913 39.8276ZM63.4597 38.9996L65.4763 40.8045L66.7906 39.381L63.4597 38.9996ZM67.5201 39.1101L70.2971 39.428L69.9949 36.4297L67.5201 39.1101Z" fill="#932121"/>
<path d="M47.6671 25.615C47.6671 25.615 44.1449 32.5013 42.1098 37.1183C40.2884 41.2506 36.2786 51.4387 36.2786 51.4387C36.2786 51.4387 45.8668 31.2493 47.6671 25.615Z" fill="#7F2626"/>
<path d="M10.1753 43.0655L9.54913 44.1611C9.54913 44.1611 17.0631 42.283 24.538 42.283C32.0129 42.283 37.1788 43.535 37.1788 43.535L37.6484 42.5178C37.6484 42.5178 22.3855 40.7179 10.1753 43.0655Z" fill="#CE5A02"/>
<path d="M8.60983 45.648L7.98364 46.7436C7.98364 46.7436 15.4977 44.8655 22.9725 44.8655C30.4474 44.8655 35.6133 46.1176 35.6133 46.1176L36.0829 45.1003C36.0829 45.1003 20.8201 43.3004 8.60983 45.648Z" fill="#CE5A02"/>
<path d="M7.27914 48.1523L6.65295 49.2478C6.65295 49.2478 14.167 47.3697 21.6418 47.3697C29.1167 47.3697 34.4391 49.1696 34.4391 49.1696L34.9088 48.1523C34.9088 48.1523 19.4894 45.8047 7.27914 48.1523Z" fill="#CE5A02"/>
<path d="M39.7617 48.074L39.2921 48.8565C39.2921 48.8565 43.2839 47.5261 49.9369 48.2304C56.5899 48.9347 64.7301 51.7518 65.8259 52.2214C66.9217 52.6909 71.6962 53.4734 71.6962 53.4734L72.3224 52.2214C72.3224 52.2214 65.9825 51.5953 63.5561 50.7346C61.1297 49.8738 55.4159 47.9957 49.7804 47.5261C44.1449 47.0566 39.7617 48.074 39.7617 48.074Z" fill="#CE5A02"/>
<path d="M40.7792 45.5698L40.3096 46.3523C40.3096 46.3523 44.3014 45.022 50.9544 45.7263C57.6074 46.4306 65.7476 49.2477 66.8434 49.7172C67.9392 50.1867 72.9486 50.6563 72.9486 50.6563L73.3399 49.7172C73.3399 49.7172 67 49.0912 64.5736 48.2304C62.1472 47.3696 56.4334 45.4915 50.7979 45.022C45.1624 44.5525 40.7792 45.5698 40.7792 45.5698Z" fill="#CE5A02"/>
<path d="M42.2663 42.7528L41.7967 43.6918C41.7967 43.6918 48.0584 43.0657 51.424 43.5353C54.7897 44.0048 58.7032 44.8656 58.7032 44.8656L59.0163 43.8483C59.0163 43.8483 49.5455 41.7355 42.2663 42.7528Z" fill="#CE5A02"/>
<path d="M43.5016 39.9356L43.049 40.8747C43.049 40.8747 49.083 40.2486 52.3262 40.7181C55.5695 41.1877 59.3407 42.0485 59.3407 42.0485L59.6424 41.0312C59.6424 41.0312 50.5161 38.9183 43.5016 39.9356Z" fill="#CE5A02"/>
<path d="M44.6757 37.3531L44.2231 38.2921C44.2231 38.2921 50.2571 37.6661 53.5004 38.1356C56.7436 38.6051 60.5149 39.4659 60.5149 39.4659L60.8166 38.4487C60.8166 38.4487 51.6902 36.3358 44.6757 37.3531Z" fill="#CE5A02"/>
<path d="M45.7715 34.9273L45.319 35.8664C45.319 35.8664 51.353 35.2403 54.5962 35.7099C57.8394 36.1794 61.6107 37.0402 61.6107 37.0402L61.9124 36.0229C61.9124 36.0229 52.786 33.91 45.7715 34.9273Z" fill="#CE5A02"/>
<path d="M47.102 32.0318L46.6495 32.9708C46.6495 32.9708 52.6835 32.3448 55.9267 32.8143C59.1699 33.2838 62.9412 34.1447 62.9412 34.1447L63.2429 33.1274C63.2429 33.1274 54.1165 31.0145 47.102 32.0318Z" fill="#CE5A02"/>
<path d="M53.1265 36.9422C53.1265 36.9422 53.7722 37.627 53.42 39.3094C53.1841 40.4364 50.7588 46.4305 50.6022 46.3914C50.4457 46.3523 49.8586 44.2394 49.7412 44.2394C49.6238 44.2394 47.7453 45.8436 47.6279 45.8436C47.5105 45.8436 50.9685 38.2155 50.9936 37.9399C51.111 36.6487 50.5631 36.8053 50.1717 36.5705C49.7803 36.3357 49.8977 35.8662 49.8977 35.8662L51.5806 36.4923L53.1265 36.9422Z" fill="#932121"/>
<path d="M58.762 23.6195C58.762 23.6195 58.4684 23.3848 58.2923 23.3261C58.1162 23.2674 55.1811 23.5021 54.8875 23.5021C54.594 23.5021 50.3674 28.8038 48.7629 33.0882C47.5194 36.4084 47.7845 36.5901 48.1367 36.5901C48.4889 36.5901 51.7763 36.7075 52.0698 36.7075C52.3633 36.7075 53.1264 36.9422 53.1264 36.9422C53.1264 36.9422 51.7763 36.1793 51.5415 36.1793C51.3066 36.1793 52.9308 32.7557 54.6332 29.5277C56.3356 26.2997 58.762 23.6195 58.762 23.6195Z" fill="#AF302E"/>
<path d="M81.3627 23.7369C80.7011 30.2111 72.5572 31.3667 70.4439 31.3667C68.3306 31.3667 66.5695 29.9581 66.2172 29.9581C65.865 29.9581 65.6302 32.1883 65.1606 32.1883C64.691 32.1883 57.764 31.406 57.4511 30.9365C57.245 30.6272 58.1162 26.0845 58.1162 26.0845C58.1162 26.0845 55.8855 18.22 63.9865 14.5812C66.5108 13.4473 69.2217 13.2026 71.7348 13.6234C72.7192 13.7877 73.6737 14.0548 74.5742 14.4104C78.7533 16.0591 81.7836 19.6157 81.3627 23.7369Z" fill="#EADCF4"/>
<path d="M65.4359 14.3459C65.4764 14.3347 66.5425 14.0413 67.1565 14.4245C67.7829 14.816 64.182 17.6331 63.0079 17.3203C61.8339 17.0069 63.1647 15.9118 63.1647 15.9118C63.1647 15.9118 61.0514 16.9289 59.5644 19.746C58.0769 22.5631 58.1162 26.0845 58.1162 26.0845C58.1162 26.0845 55.8855 18.22 63.9865 14.5812C66.5108 13.4473 69.2217 13.2026 71.7348 13.6234C67.3332 13.4632 65.4876 14.3212 65.4359 14.3459Z" fill="white"/>
<path d="M81.3627 23.7369C80.7011 30.211 72.5572 31.3666 70.4439 31.3666C68.3306 31.3666 66.5695 29.9581 66.2173 29.9581C66.2173 29.9581 69.4689 30.9501 71.6962 29.7624C76.3925 27.2583 75.8446 19.4331 75.8446 19.4331C75.8446 19.4331 76.3925 20.2937 76.7058 21.7807C76.9483 22.9319 76.7056 24.3629 76.7056 24.3629C76.7056 24.3629 78.5056 21.3112 77.4102 17.9459C76.9694 16.5925 75.807 15.3782 74.5743 14.4104C78.7534 16.059 81.7836 19.6156 81.3627 23.7369Z" fill="#CBBCD8"/>
<path d="M62.4603 23.5021C62.4603 23.5021 59.8773 25.6932 60.66 25.8497C61.4427 26.0063 62.2255 25.302 62.6168 25.4585C63.0082 25.615 63.1647 26.241 63.8691 26.241C64.5735 26.241 63.556 23.1891 63.3212 23.1108C63.0865 23.0326 62.4603 23.5021 62.4603 23.5021Z" fill="#3D2F4C"/>
<path d="M70.2492 22.8749C71.2275 21.3202 71.1604 19.5189 70.0994 18.8515C69.0383 18.1841 67.3851 18.9033 66.4068 20.458C65.4284 22.0126 65.4955 23.814 66.5566 24.4814C67.6177 25.1488 69.2709 24.4295 70.2492 22.8749Z" fill="#3D2F4C"/>
<path d="M62.7568 21.591C63.7439 20.0419 63.9008 18.3763 63.1073 17.8709C62.3138 17.3654 60.8702 18.2115 59.8831 19.7607C58.896 21.3098 58.7391 22.9754 59.5326 23.4808C60.3261 23.9863 61.7697 23.1402 62.7568 21.591Z" fill="#3D2F4C"/>
<path d="M63.5199 18.432C62.7192 18.4754 61.6707 19.2566 60.8999 20.4662C60.1544 21.6359 59.882 22.8725 60.1362 23.6255C59.9114 23.6384 59.7059 23.5927 59.5316 23.4817C58.7385 22.9764 58.8952 21.3108 59.8826 19.7619C60.8694 18.2125 62.3129 17.3662 63.1066 17.8721C63.3003 17.9954 63.4377 18.1885 63.5199 18.432Z" fill="#CBBCD8"/>
<path d="M70.5806 19.3146C69.5827 19.2048 68.3669 19.9144 67.5833 21.1592C66.7825 22.4316 66.6822 23.8695 67.2545 24.7159C67.0062 24.6894 66.7708 24.6114 66.5595 24.4782C65.4981 23.8108 65.4312 22.0096 66.4092 20.4549C67.3878 18.9002 69.0409 18.1807 70.1016 18.848C70.2942 18.9689 70.4538 19.1274 70.5806 19.3146Z" fill="#CBBCD8"/>
<path d="M59.4859 28.667L59.0945 31.0928C59.0945 31.0928 58.8598 29.606 59.4859 28.667Z" fill="#CBBCD8"/>
<path d="M60.66 31.0928L61.0514 28.98C61.0514 28.98 60.4252 30.0756 60.66 31.0928Z" fill="#CBBCD8"/>
<path d="M62.0688 31.6407L62.9298 29.5278C62.9298 29.5278 62.695 31.4059 62.0688 31.6407Z" fill="#CBBCD8"/>
<path d="M63.8691 31.9537L65.1998 29.8408C65.1998 29.8408 64.6518 31.7971 63.8691 31.9537Z" fill="#CBBCD8"/>
<path d="M47.6758 25.5838L47.667 25.6149C47.667 25.6149 46.1799 23.6586 39.4485 23.5021C35.9097 23.4198 29.469 23.6195 29.469 23.6195C29.469 23.6195 36.0438 23.6195 33.9304 24.4411C31.8171 25.2628 24.3031 25.6149 23.3639 25.1454C22.4504 24.6888 25.8664 24.1213 26.056 24.0902C25.7989 24.1178 19.5945 24.798 19.0198 25.028C18.721 25.1478 17.2969 26.8175 15.9708 28.4291L17.9632 24.6759C17.9632 24.6759 32.0519 22.7978 39.0963 22.9152C46.0397 23.0308 47.8501 24.8573 47.6758 25.5838Z" fill="#FF933B"/>
<path d="M48.4889 34.8882C48.4889 34.8882 50.25 30.3886 51.7763 28.041C53.3026 25.6934 54.9071 23.9327 54.9071 23.9327L57.3335 23.7371L55.0637 24.5196L56.8248 24.5587C56.8248 24.5587 55.1419 27.3367 53.9287 29.6061C52.7155 31.8755 51.3066 35.4751 51.3066 35.4751L49.5064 35.436L51.1501 34.9665L48.4889 34.8882Z" fill="#C93A3A"/>
<path d="M72.6746 56.2515C72.6746 56.2515 74.514 56.5254 74.514 56.9166C74.514 57.3079 74.514 57.7774 74.514 57.7774C74.514 57.7774 75.7663 58.0122 75.7663 58.3252C75.7663 58.6382 76.1968 59.4207 76.1968 59.4207L74.9835 58.5599C74.9835 58.5599 73.966 58.5599 73.966 58.0122C73.966 57.4644 74.3574 57.2297 73.966 56.9949C73.5747 56.7601 72.6746 56.2515 72.6746 56.2515Z" fill="#BF4000"/>
<path d="M34.1261 51.7517C34.1261 51.7517 23.9509 50.6561 16.75 50.8127C9.54902 50.9692 4.14832 52.6908 4.14832 52.6908C4.14832 52.6908 12.6016 49.7954 20.4287 50.1084C28.2558 50.4214 34.1261 51.7517 34.1261 51.7517Z" fill="#BF4000"/>
<path d="M33.2652 52.6125C33.2652 52.6125 21.4463 51.7517 16.1239 52.3778C10.8014 53.0038 3.75702 53.1994 3.75702 53.1994C3.75702 53.1994 12.6799 51.9865 18.785 51.7517C24.8902 51.517 33.2652 52.6125 33.2652 52.6125Z" fill="#BF4000"/>
<path d="M33.2261 53.5516C33.2261 53.5516 24.812 53.3951 22.229 53.4733C19.6461 53.5516 8.2185 54.4906 6.18344 54.8036C4.14843 55.1167 3.63965 55.3123 3.63965 55.3123C3.63965 55.3123 27.7862 54.3341 33.2261 53.5516Z" fill="#BF4000"/>
<path d="M37.8831 51.83C37.8831 51.83 42.5011 50.6562 46.9626 51.204C51.424 51.7517 59.0946 54.2559 60.3469 54.4906C61.5992 54.7254 69.1132 56.134 69.1132 56.134C69.1132 56.134 56.8247 54.2559 55.5723 53.9429C54.32 53.6299 44.3013 52.7691 43.049 52.5343C41.7967 52.2996 37.8831 51.83 37.8831 51.83Z" fill="#BF4000"/>
<path d="M38.8224 52.8474C38.8224 52.8474 52.6764 55.2733 54.9462 55.4298C57.2161 55.5863 74.514 56.9166 74.514 56.9166C74.514 56.9166 55.8855 56.2123 54.7114 56.0558C53.5374 55.8993 38.8224 52.8474 38.8224 52.8474Z" fill="#BF4000"/>
<path d="M38.8615 54.0212C38.8615 54.0212 56.6681 57.9339 61.2079 58.3252C65.7476 58.7165 75.6097 58.7947 75.6097 58.7947L76.1968 59.4208C76.1968 59.4208 65.5128 59.8903 56.1203 58.1687C46.7277 56.4471 38.8615 54.0212 38.8615 54.0212Z" fill="#BF4000"/>
<path d="M73.8095 56.6036L86.646 29.6843C86.646 29.6843 76.0011 55.4298 73.8095 56.6036Z" fill="#BF4000"/>
<path d="M75.1401 58.0904L87.1938 31.3276C87.1938 31.3276 76.7056 57.7774 75.1401 58.0904Z" fill="#BF4000"/>
<path d="M34.0479 6.95154L32.5216 8.71225L31.4649 9.72935L32.7957 7.38174C32.7957 7.38174 32.7957 7.38174 31.9346 7.06892C31.0734 6.7561 30.9953 4.95607 30.4476 4.32984C29.8993 3.7042 28.0208 2.76516 28.0208 2.76516L26.4558 4.87802L27.2383 2.45175C27.2383 2.45175 26.5339 1.82612 25.2031 1.19989C23.8729 0.573665 19.9591 0.260846 19.9591 0.260846C19.9591 0.260846 22.542 -0.326057 25.2424 0.260846C27.9427 0.847749 31.1127 3.78227 31.9346 4.83869C32.7564 5.89512 34.0479 6.95154 34.0479 6.95154Z" fill="#EE86F7"/>
<path d="M37.2179 16.8115C34.5176 17.7505 30.1735 16.5767 30.1735 16.2246C30.1735 15.8725 30.7606 13.2901 30.878 12.7032C30.9954 12.1163 29.4691 15.7551 28.9995 15.7551C28.6631 15.7551 26.5832 14.6124 25.4274 13.8336C25.7033 11.709 26.2973 7.34358 26.5339 7.22561C26.8468 7.06891 27.0035 11.3727 27.0035 11.3727C27.0035 11.3727 30.2129 8.63418 33.8131 9.9641C34.9801 10.3955 35.8431 11.4431 36.4765 12.6633C37.0447 14.7362 37.2179 16.8115 37.2179 16.8115Z" fill="#B248B5"/>
<path d="M27.7861 7.06891C27.7861 7.06891 32.0128 10.2382 35.0653 13.6422C38.1179 17.0463 42.1489 21.5067 41.6792 21.7415C41.2096 21.9763 33.252 11.1982 27.8253 7.53844C21.2114 3.07797 26.6121 6.12987 27.7861 7.06891Z" fill="#C1D1D1"/>
<path d="M7.90789 43.6196L4.77666 51.1748C4.09687 51.3309 3.77577 51.4325 3.75757 51.4384L7.90789 43.6196Z" fill="#FFC89F"/>
<path d="M86.6454 27.9634C86.4588 28.1565 82.7968 35.5761 79.2694 42.7674C75.9632 49.5062 72.7756 56.0438 72.677 56.2468C72.8425 55.8571 82.9683 32.104 83.1238 31.3275C83.2794 30.551 86.5938 28.0033 86.6454 27.9634Z" fill="#FFC89F"/>
</svg>
