<svg width="27" height="97" viewBox="0 0 27 97" fill="none" xmlns="http://www.w3.org/2000/svg">
<path d="M14.2141 0H13.946V84.7728H14.2141V0Z" fill="#27024F"/>
<path d="M20.2991 78.3934C19.689 76.3386 18.2732 74.6079 16.509 73.8534C13.9465 72.7575 10.9718 73.7977 8.86815 75.8112C6.68618 77.8996 5.22918 81.297 5.91938 84.4709C6.30009 86.2215 7.30957 87.7604 8.6227 88.7398C9.9357 89.7193 11.5347 90.1486 13.0948 90.0369C15.8473 89.8396 18.4589 87.9 19.7558 85.0898C20.6949 83.0546 20.9468 80.5747 20.2991 78.3934Z" fill="#28706C"/>
<path d="M19.3057 77.6957C18.781 75.9286 17.5634 74.4402 16.0462 73.7913C13.8425 72.8488 11.2844 73.7433 9.47509 75.475C7.59867 77.271 6.34564 80.1927 6.93917 82.9223C7.26659 84.4278 8.13471 85.7512 9.26393 86.5936C10.3932 87.4359 11.7682 87.8052 13.11 87.709C15.4772 87.5395 17.7231 85.8713 18.8384 83.4546C19.6461 81.7043 19.8627 79.5717 19.3057 77.6957Z" fill="#4D9796"/>
<path d="M11.9273 74.7423C10.3272 74.9124 8.87521 76.296 8.42699 78.0778C8.33008 78.4631 8.28395 78.9072 8.47633 79.2413C8.63347 79.5143 8.92491 79.6546 9.20847 79.6683C9.49215 79.6819 9.77094 79.5849 10.0359 79.4673C11.1601 78.9675 12.1472 78.0649 12.8261 76.9159C13.0783 76.489 13.293 75.9394 13.1023 75.4719C12.9558 75.1128 12.6006 74.9171 12.2575 74.8923C11.9145 74.8673 12.2697 74.7059 11.9273 74.7423Z" fill="#F9F7E8"/>
<path d="M13.9514 75.1387C14.1011 75.4921 14.5561 75.6075 14.8203 75.3593C15.0847 75.1111 15.0793 74.5733 14.8102 74.3321C14.5411 74.091 14.0886 74.2184 13.9458 74.5755C13.8754 74.7517 13.8775 74.9643 13.9514 75.1387Z" fill="#F9F7E8"/>
<path d="M13.9227 87.8858C12.5496 87.5372 10.5881 88.0871 9.46899 89.2687C10.5944 89.867 11.8555 90.1256 13.0947 90.0369C13.9811 89.9734 14.8521 89.727 15.67 89.3312C15.2549 88.6256 14.6828 88.0788 13.9227 87.8858Z" fill="#EFDB7B"/>
<path d="M18.0886 74.8651C17.6081 74.4415 17.077 74.0963 16.509 73.8534C15.2511 73.3153 13.894 73.2945 12.5891 73.6485C14.4281 73.7088 16.3266 74.1194 18.0886 74.8651Z" fill="#EFDB7B"/>
<path d="M20.2935 78.3761C16.9204 75.7355 11.9842 74.9714 8.4399 76.2557C8.22995 76.4844 8.02574 76.7213 7.83395 76.9728C10.52 76.0651 13.5988 76.3667 16.1846 77.2907C17.6348 77.8089 19.2791 78.4887 20.5571 79.579C20.4979 79.1774 20.4141 78.7805 20.2991 78.3935C20.2973 78.3875 20.2953 78.3819 20.2935 78.3761Z" fill="#EFDB7B"/>
<path d="M20.1665 81.8306C18.9223 80.5603 17.3105 79.7347 15.7246 79.2167C12.7681 78.2509 9.20192 77.8968 6.46777 79.818C6.3944 79.8696 6.32197 79.9027 6.2504 79.9275C6.06948 80.4565 5.9329 81.0011 5.8483 81.553C8.47945 79.4168 12.662 79.3155 15.5424 80.1672C17.3346 80.6971 19.0259 81.5727 20.4852 82.785C20.5155 82.6236 20.5404 82.4608 20.563 82.2979C20.4389 82.1326 20.3081 81.9752 20.1665 81.8306Z" fill="#EFDB7B"/>
<path d="M15.0825 82.0931C12.303 81.3673 8.03637 81.3693 5.99409 84.0727C5.95513 84.1243 5.91415 84.1658 5.87268 84.2043C5.88857 84.2932 5.90016 84.3823 5.9194 84.4708C5.98202 84.7584 6.06626 85.0379 6.1615 85.3124C8.22505 83.2921 11.7428 82.4678 14.2115 82.9564C16.2393 83.3577 17.889 84.5317 19.1612 86.1708C19.3805 85.827 19.5813 85.4673 19.7557 85.0896C19.8093 84.9731 19.8602 84.8549 19.9093 84.7358C18.5025 83.4467 16.8074 82.5436 15.0825 82.0931Z" fill="#EFDB7B"/>
<path d="M13.5962 84.8652C11.6912 84.7161 8.45555 85.2702 7.03058 87.0476C7.31474 87.4661 7.63606 87.8519 7.99012 88.1932C9.60521 86.2034 12.5014 85.2656 14.7096 86.0805C15.7926 86.4802 16.6036 87.3269 17.1801 88.3775C17.4693 88.1484 17.7449 87.897 18.0072 87.6285C16.8835 86.113 15.3752 85.0046 13.5962 84.8652Z" fill="#EFDB7B"/>
<path d="M13.9226 87.8858C12.5495 87.5371 10.588 88.0871 9.46896 89.2687C10.5944 89.867 11.8555 90.1256 13.0947 90.0369C13.9811 89.9734 14.8521 89.727 15.67 89.3312C15.2549 88.6256 14.6827 88.0788 13.9226 87.8858Z" fill="#EFDB7B"/>
<path d="M17.373 74.3205C17.4605 74.437 17.5458 74.5559 17.6246 74.6815C17.7797 74.7412 17.9352 74.8003 18.0886 74.8651C17.8612 74.6646 17.6217 74.4834 17.373 74.3205Z" fill="#EFDB7B"/>
<path d="M20.2991 78.3934C20.2973 78.3875 20.2953 78.3818 20.2935 78.376C19.7498 77.9504 19.1624 77.579 18.5498 77.2516C18.6065 77.61 18.6384 77.9717 18.6444 78.3296C19.322 78.6782 19.9778 79.0848 20.5571 79.5791C20.4978 79.1774 20.4141 78.7804 20.2991 78.3934Z" fill="#F69348"/>
<path d="M20.5629 82.2976C20.4389 82.1325 20.3081 81.9751 20.1665 81.8305C19.6176 81.2702 18.9951 80.8009 18.3369 80.4018C18.2513 80.6659 18.1564 80.9243 18.052 81.1772C18.9127 81.6229 19.7303 82.1579 20.485 82.7849C20.5155 82.6233 20.5403 82.4606 20.5629 82.2976Z" fill="#F69348"/>
<path d="M17.1703 82.875C16.9594 83.2024 16.7282 83.5113 16.4867 83.8096C17.5109 84.3907 18.4045 85.1958 19.1614 86.1709C19.3807 85.8271 19.5816 85.4674 19.7559 85.0897C19.8096 84.9732 19.8605 84.855 19.9096 84.7359C19.0795 83.9754 18.1478 83.3532 17.1703 82.875Z" fill="#F69348"/>
<path d="M14.7095 86.0804C15.7925 86.4801 16.6035 87.3269 17.18 88.3775C17.4692 88.1483 17.7448 87.897 18.0071 87.6285C17.217 86.5628 16.2362 85.7002 15.1053 85.2326C14.8099 85.4837 14.501 85.7123 14.1847 85.9261C14.3628 85.9684 14.5388 86.0174 14.7095 86.0804Z" fill="#F69348"/>
<path d="M7.03058 87.0477C7.31474 87.4662 7.63606 87.852 7.99012 88.1933C8.21011 87.9222 8.45579 87.6726 8.71844 87.4423C8.15347 87.3629 7.59161 87.2266 7.03548 87.0425C7.03381 87.0442 7.03201 87.0458 7.03058 87.0477Z" fill="#EFDB7B"/>
<path d="M15.2978 93.1084C16.5838 92.1967 17.0119 89.9925 16.186 88.534C15.5875 87.4771 14.4939 86.9022 13.4074 86.7571C12.4407 86.6278 11.4177 86.8131 10.6106 87.4411C9.80358 88.0692 9.25188 89.1799 9.33899 90.2992C9.40423 91.1379 9.81506 91.9108 10.3738 92.452C10.9326 92.9933 11.6291 93.3189 12.3413 93.5008C13.3345 93.7543 14.4311 93.7229 15.2978 93.1084Z" fill="#27024F"/>
<path d="M10.5583 90.2523L10.8134 89.2987C10.6835 89.1201 10.5441 88.9517 10.4005 88.7887L10.7488 88.7242C9.53041 86.5013 7.8465 84.621 5.88153 83.2893C5.0336 82.7147 4.11838 82.2355 3.14414 82.083C2.1699 81.9306 1.12613 82.1335 0.339258 82.8141C0.138985 82.9874 -0.0603368 83.2591 0.0170957 83.5339C0.125477 83.918 0.601189 83.8739 0.941151 83.7786C2.66032 83.2966 4.52742 83.5556 6.09889 84.4937C7.26826 85.1917 8.26545 86.2623 8.96903 87.5461C7.42421 86.5432 5.5455 86.2092 3.82693 86.7268C3.10017 86.9458 2.37987 87.3251 1.90081 87.993C1.6568 88.3332 1.49022 88.7605 1.43513 89.1971C1.36774 89.7316 1.90798 90.0721 2.28427 89.7513C3.37179 88.8243 4.73211 88.323 6.08443 88.3757C7.4309 88.4283 8.75274 89.03 9.78159 90.0319C8.77783 89.856 7.72306 90.059 6.83461 90.6291C5.67815 91.3711 4.82496 92.7154 4.56088 94.2123C4.45943 94.7873 4.44353 95.3988 4.62254 95.9481C4.66173 96.0681 4.71131 96.1847 4.77034 96.2947C5.01602 96.7529 5.63895 96.5711 5.67468 96.0339C5.76717 94.6452 6.34983 93.2977 7.28177 92.4086C8.44828 91.2954 10.1226 90.9382 11.5566 91.4963L10.6708 90.2924C10.6339 90.2765 10.5955 90.2669 10.5583 90.2523Z" fill="#27024F"/>
<path d="M25.7296 82.8141C24.9427 82.1335 23.8989 81.9307 22.9247 82.083C21.9505 82.2355 21.0353 82.7148 20.1873 83.2893C18.2224 84.621 16.5384 86.5013 15.3201 88.7242L15.6684 88.7887C15.5248 88.9519 15.3853 89.1201 15.2554 89.2987L15.5105 90.2522C15.4733 90.2669 15.4348 90.2765 15.3979 90.2924L14.5121 91.4963C15.9461 90.9382 17.6203 91.2954 18.787 92.4086C19.7188 93.2977 20.3016 94.6452 20.3941 96.0339C20.4298 96.5713 21.0527 96.7529 21.2984 96.2947C21.3573 96.1847 21.407 96.0681 21.4462 95.9481C21.6252 95.3988 21.6093 94.7873 21.5079 94.2123C21.2437 92.7154 20.3906 91.3711 19.2341 90.629C18.3457 90.0591 17.291 89.8561 16.2871 90.0319C17.316 89.0301 18.6378 88.4283 19.9843 88.3757C21.3366 88.3229 22.6971 88.8241 23.7845 89.7513C24.1608 90.0721 24.701 89.7315 24.6336 89.1971C24.5785 88.7605 24.4119 88.3332 24.1679 87.993C23.6889 87.3251 22.9687 86.9457 22.2419 86.7268C20.5233 86.2092 18.6445 86.5432 17.0998 87.5461C17.8034 86.2623 18.8006 85.1916 19.97 84.4937C21.5414 83.5556 23.4085 83.2966 25.1278 83.7785C25.4678 83.8739 25.9435 83.918 26.0519 83.5339C26.1292 83.2591 25.9299 82.9874 25.7296 82.8141Z" fill="#27024F"/>
<path d="M10.0967 89.4862C9.72855 89.5765 9.41773 89.8685 9.18615 90.2111C8.96891 90.5324 8.80652 90.9145 8.77832 91.3208C8.75012 91.7271 8.8701 92.1576 9.13776 92.4233C9.35584 92.6399 9.65123 92.7313 9.93885 92.7365C10.4696 92.7462 11.0069 92.4625 11.3179 91.9657C11.629 91.4689 11.6893 90.7662 11.4366 90.2271C11.1837 89.6879 10.616 89.359 10.0967 89.4862Z" fill="#F9F7E8"/>
<path d="M9.31211 91.8829C9.38381 92.0712 9.53174 92.2153 9.70082 92.28C9.86991 92.3447 10.0578 92.3327 10.2249 92.2615C10.4081 92.1835 10.5765 92.0196 10.6194 91.7997C10.6671 91.5552 10.5433 91.2945 10.3586 91.1628C10.1739 91.0312 9.94232 91.0126 9.72867 91.0573C9.63355 91.0772 9.53844 91.1099 9.45969 91.1744C9.27399 91.3266 9.22034 91.6421 9.31211 91.8829Z" fill="#27024F"/>
<path d="M12.4609 88.6136C12.1837 88.8103 11.9937 89.1623 11.963 89.5363C11.9198 90.0617 12.2091 90.6003 12.636 90.7891C13.0628 90.9778 13.5898 90.8001 13.8615 90.3759C14.1333 89.9516 14.1262 89.3178 13.8449 88.9018C13.5292 88.4349 12.8981 88.3034 12.4609 88.6136Z" fill="#F9F7E8"/>
<path d="M13.098 89.5932C12.9537 89.5353 12.7814 89.6206 12.7059 89.7738C12.6303 89.9269 12.6492 90.1303 12.7394 90.2724C12.8297 90.4145 12.9829 90.4953 13.1355 90.4993C13.2881 90.5033 13.4385 90.4357 13.5596 90.3281C13.7122 90.1925 13.8247 89.9635 13.7706 89.75C13.7241 89.5669 13.5648 89.4447 13.4018 89.4131C13.2389 89.3814 13.2564 89.5392 13.098 89.5932Z" fill="#27024F"/>
<path d="M15.8952 89.3672C15.177 89.3103 14.5001 90.0513 14.4697 90.8817C14.4394 91.7121 15.0211 92.4977 15.7299 92.6419C16.0977 92.7168 16.4968 92.6308 16.7914 92.3658C17.2878 91.9192 17.3824 91.0395 17.1126 90.3832C16.8876 89.8356 16.4189 89.4087 15.8952 89.3672Z" fill="#F9F7E8"/>
<path d="M15.3643 91.1911C15.2027 91.4508 15.2061 91.8291 15.3659 92.0903C15.5255 92.3515 15.8272 92.482 16.0981 92.4153C16.3689 92.3488 16.596 92.0934 16.6691 91.7851C16.697 91.6673 16.6986 91.5254 16.6226 91.4406C16.5232 91.3296 16.362 91.3796 16.2237 91.3748C16.1034 91.3705 15.9847 91.3167 15.8941 91.2251C15.8193 91.1494 15.757 91.0453 15.6603 91.0188C15.546 90.9877 15.4326 91.0812 15.3643 91.1911Z" fill="#27024F"/>
<path d="M14.9265 92.4117C14.6642 92.238 14.3233 92.1747 14.0625 92.3517C13.7872 92.5385 13.6757 92.9317 13.6314 93.2969C13.5857 93.6733 13.5934 94.0809 13.7702 94.4015C14.0015 94.8207 14.5085 94.9887 14.9087 94.8057C15.3087 94.6226 15.5748 94.1259 15.5685 93.629C15.562 93.1321 15.2998 92.6591 14.9265 92.4117Z" fill="#F9F7E8"/>
<path d="M13.9675 93.6112C13.859 93.8128 13.8665 94.0872 13.9804 94.2847C14.0943 94.4821 14.3065 94.5954 14.5113 94.5751C14.716 94.5548 14.9061 94.405 15.0029 94.1957C15.0496 94.0947 15.074 93.9655 15.0208 93.8688C14.9626 93.7633 14.8388 93.7401 14.7305 93.7405C14.6222 93.7408 14.505 93.7515 14.4148 93.6823C14.3283 93.6159 14.2758 93.4821 14.1729 93.4654C14.0885 93.4517 14.0123 93.5278 13.9675 93.6112Z" fill="#27024F"/>
<path d="M12.454 94.1812C12.7224 94.0734 12.9795 93.8993 13.1465 93.6339C13.3134 93.3684 13.3752 93.001 13.2541 92.7042C13.071 92.2553 12.5707 92.1256 12.1409 92.1339C11.8526 92.1394 11.558 92.1844 11.3014 92.3363C11.0447 92.4882 10.8298 92.7615 10.7813 93.0897C10.7162 93.53 10.9731 93.9784 11.3227 94.1691C11.6725 94.3599 12.0886 94.328 12.454 94.1812Z" fill="#F9F7E8"/>
<path d="M11.146 93.1671C11.0562 93.2883 11.0595 93.4773 11.1285 93.6154C11.1976 93.7535 11.3204 93.8462 11.4494 93.9035C11.6839 94.0076 11.952 94.0076 12.1864 93.9033C12.2987 93.8534 12.4077 93.7752 12.467 93.6542C12.5263 93.5332 12.5211 93.363 12.4309 93.271C12.3505 93.1888 12.2306 93.1884 12.124 93.2041C12.0175 93.2198 11.9061 93.2465 11.8051 93.204C11.6537 93.1402 11.3049 93.1362 11.146 93.1671Z" fill="#27024F"/>
<path d="M15.4693 87.306C15.2025 87.2196 14.9021 87.2363 14.6655 87.403C14.4289 87.5697 14.2732 87.9011 14.3256 88.2154C14.3987 88.653 14.8197 88.8985 15.2046 88.9334C15.5562 88.9652 15.9647 88.8307 16.1047 88.457C16.1933 88.2202 16.1478 87.9338 16.0181 87.7238C15.8883 87.5138 15.6844 87.3756 15.4693 87.306Z" fill="#F9F7E8"/>
<path d="M15.7414 88.3764C15.7287 88.2035 15.551 88.1011 15.4026 88.1278C15.3258 88.1416 15.2492 88.1799 15.173 88.1617C15.0533 88.133 14.9748 87.9735 14.8527 87.9684C14.73 87.9633 14.6462 88.1262 14.6541 88.2678C14.6643 88.452 14.7813 88.6136 14.9261 88.6914C15.0709 88.7692 15.2388 88.7728 15.3959 88.7391C15.4801 88.721 15.5645 88.6915 15.6323 88.6311C15.7 88.5708 15.7486 88.4748 15.7414 88.3764Z" fill="#27024F"/>
</svg>
