<svg width="27" height="120" viewBox="0 0 27 120" fill="none" xmlns="http://www.w3.org/2000/svg">
<path d="M15.3797 0H15.1696V103.238H15.3797V0Z" fill="#27024F"/>
<path d="M14.0966 119.786C17.7468 120.009 21.6498 118.869 24.0415 115.938C25.6701 113.943 26.4571 111.311 26.765 108.694C26.9887 106.792 26.945 104.728 25.9323 103.14C24.4853 100.872 21.412 100.302 18.9602 101.167C17.8134 101.571 16.7368 102.237 15.5397 102.413C14.5067 102.565 13.4608 102.341 12.4184 102.312C9.87637 102.242 7.3076 103.425 5.69848 105.511C4.08949 107.598 3.51149 110.557 4.30111 113.118C4.94172 115.196 6.41593 116.923 8.19413 118.031C9.97232 119.139 12.0371 119.661 14.0966 119.786Z" fill="#E56338"/>
<path d="M8.59647 111.043C8.61667 108.494 9.24198 105.881 10.093 103.546C10.2171 103.206 10.3554 102.853 10.5061 102.5C10.4145 102.52 10.3222 102.537 10.231 102.56C9.51371 103.468 8.98638 104.732 8.62969 105.624C7.93889 107.352 7.3223 109.311 7.19623 111.227C7.04698 113.496 7.40559 115.984 8.29881 118.091C8.93823 118.479 9.61409 118.791 10.3117 119.039C9.18212 116.568 8.57496 113.754 8.59647 111.043Z" fill="#F69348"/>
<path d="M15.4715 119.805C16.3241 114.002 15.7754 107.772 13.8747 102.422C13.6219 102.401 13.3689 102.376 13.1159 102.355C12.5398 103.276 12.1499 104.443 11.8739 105.349C11.3268 107.146 10.814 109.119 10.8373 111.044C10.8737 114.048 11.7237 117.258 13.3214 119.72C13.5794 119.748 13.838 119.771 14.0965 119.787C14.552 119.814 15.0116 119.821 15.4715 119.805Z" fill="#F69348"/>
<path d="M17.7342 119.541C18.2951 119.429 18.8475 119.279 19.3861 119.094C19.8641 116.848 19.8322 114.407 19.5723 112.092C19.2005 108.781 18.5527 104.946 16.9207 102.015C16.6871 102.107 16.4518 102.191 16.2128 102.26C17.9783 107.694 18.4845 113.758 17.7342 119.541Z" fill="#F69348"/>
<path d="M20.7626 103.087C20.3507 102.599 19.8725 102.084 19.3464 101.679C20.8169 104.852 21.4652 108.676 21.8132 112.092C22.0087 114.011 22.0492 115.992 21.8353 117.907C22.3578 117.567 22.8464 117.173 23.3005 116.733C23.7796 113.904 23.7686 110.958 23.1117 108.205C22.6533 106.284 21.9816 104.529 20.7626 103.087Z" fill="#F69348"/>
<path d="M25.9322 103.14C25.0609 101.774 23.6 101.029 22.0404 100.838C23.4042 102.416 24.439 104.487 24.9519 106.291C25.5465 108.381 25.831 110.541 25.8417 112.701C26.3128 111.422 26.6048 110.057 26.765 108.694C26.9887 106.792 26.945 104.728 25.9322 103.14Z" fill="#F69348"/>
<path d="M4.98176 110.928C5.22278 108.723 5.77544 106.545 6.60091 104.528C6.27612 104.829 5.97248 105.156 5.69848 105.511C4.08949 107.598 3.51149 110.557 4.30111 113.118C4.4849 113.714 4.73918 114.28 5.04772 114.812C4.87051 113.508 4.84362 112.191 4.98176 110.928Z" fill="#F69348"/>
<path d="M4.94483 113.772C4.73356 111.162 5.18585 108.047 6.1252 105.643L6.32941 105.749C5.40512 108.115 4.96025 111.18 5.16805 113.748L4.94483 113.772Z" fill="#F9F7E8"/>
<path d="M8.68035 110.803C8.72229 108.219 9.56556 104.764 10.6972 102.496C10.6048 102.511 10.5123 102.526 10.4199 102.541C9.31402 104.843 8.49776 108.24 8.45629 110.798C8.41256 113.487 8.98123 116.154 10.1011 118.512L10.2977 118.388C9.19656 116.07 8.63733 113.447 8.68035 110.803Z" fill="#F9F7E8"/>
<path d="M13.1674 102.409C13.0795 102.411 12.9917 102.412 12.9038 102.412C11.3197 105.352 10.4086 110.195 10.9069 113.191L11.127 113.142C10.6386 110.206 11.59 105.241 13.1674 102.409Z" fill="#F9F7E8"/>
<path d="M17.5431 118.142L17.7626 118.195C18.5843 113.621 18.0232 107.126 16.4068 102.204C16.3344 102.228 16.2609 102.246 16.1879 102.267C17.7979 107.149 18.3587 113.603 17.5431 118.142Z" fill="#27024F"/>
<path d="M19.5146 101.603L19.31 101.708C21.2678 106.778 22.1723 112.297 21.9721 117.82C22.0501 117.767 22.1247 117.709 22.2013 117.654C22.3772 112.151 21.4657 106.656 19.5146 101.603Z" fill="#27024F"/>
<path d="M26.4466 110.61C25.7427 107.022 24.2758 103.626 22.1859 100.856C22.0753 100.84 21.965 100.823 21.8535 100.813C24.1021 103.712 25.6477 107.335 26.3192 111.154C26.3646 110.974 26.4069 110.792 26.4466 110.61Z" fill="#27024F"/>
<path d="M11.0318 107.271C10.3636 106.981 9.57621 107.303 9.08796 107.904C8.59982 108.505 8.37231 109.335 8.29236 110.154C8.26082 110.476 8.25006 110.804 8.29738 111.124C8.45547 112.192 9.296 113.041 10.2251 113.196C11.1541 113.351 12.1185 112.865 12.7383 112.052C13.2765 111.345 13.5753 110.368 13.4281 109.442C13.2809 108.517 12.6439 107.687 11.8411 107.525C11.1937 107.393 10.5392 107.682 9.95334 108.026L11.0318 107.271Z" fill="#27024F"/>
<path d="M20.1664 105.784C20.8346 105.494 21.6221 105.815 22.1102 106.416C22.5984 107.018 22.8259 107.847 22.9059 108.666C22.9374 108.989 22.9482 109.316 22.9009 109.636C22.7428 110.705 21.9023 111.554 20.9732 111.708C20.0442 111.863 19.0798 111.378 18.46 110.564C17.9218 109.857 17.623 108.88 17.7702 107.955C17.9174 107.029 18.5543 106.2 19.3572 106.037C20.0046 105.906 20.6591 106.194 21.245 106.538L20.1664 105.784Z" fill="#27024F"/>
<path d="M19.7741 116.048C20.0333 115.892 20.2926 115.735 20.5518 115.579C20.6446 115.803 20.7472 116.021 20.8582 116.234C20.8784 116.215 20.9001 116.198 20.92 116.179C21.4776 115.626 21.9002 114.812 21.8323 113.967C21.8221 113.84 21.7969 113.705 21.7168 113.618C21.6471 113.541 21.5481 113.514 21.4533 113.499C20.7296 113.383 20.0327 113.779 19.3613 114.122C19.4701 114.504 19.5792 114.886 19.6824 115.269C19.3481 115.352 19.0212 115.473 18.7081 115.631C18.5776 115.286 18.4698 114.93 18.3844 114.566C17.2436 115.028 16.0473 115.306 14.8403 115.387C14.8175 115.754 14.7955 116.121 14.7678 116.487C14.3432 116.446 13.9173 116.423 13.4912 116.417C13.5329 116.079 13.5485 115.737 13.5491 115.396C13.4163 115.389 13.2833 115.387 13.1508 115.376C12.4042 115.313 11.6628 115.174 10.9149 115.136C10.6534 115.122 10.3797 115.124 10.1461 115.26C9.91249 115.396 9.73492 115.707 9.80518 115.998C9.84545 116.165 9.95598 116.295 10.0669 116.411C10.3406 116.698 10.6413 116.944 10.9595 117.156C10.9866 116.992 11.0102 116.828 11.0249 116.662C11.3557 116.739 11.6866 116.816 12.0174 116.893C11.9947 117.159 11.9858 117.427 11.9849 117.694C12.598 117.942 13.2455 118.091 13.8928 118.144C15.2851 118.259 16.6798 117.984 18.038 117.613C18.7088 117.429 19.3888 117.211 20.0039 116.862C19.962 116.579 19.8863 116.303 19.7741 116.048Z" fill="#27024F"/>
<path d="M11.7762 109.827C11.6635 109.949 11.6077 110.125 11.5639 110.295C11.4952 110.564 11.4688 110.911 11.6683 111.069C11.7448 111.13 11.8412 111.148 11.9342 111.147C12.2014 111.145 12.4693 110.979 12.5972 110.708C12.725 110.438 12.6925 110.069 12.5016 109.853C12.3107 109.638 11.9711 109.617 11.7762 109.827Z" fill="#EADFBF"/>
<path d="M19.2453 108.857C19.358 108.979 19.4138 109.154 19.4577 109.325C19.5264 109.594 19.5528 109.94 19.3532 110.099C19.2768 110.16 19.1802 110.178 19.0874 110.177C18.8202 110.174 18.5523 110.009 18.4243 109.738C18.2964 109.467 18.3289 109.099 18.5199 108.883C18.7108 108.667 19.0504 108.646 19.2453 108.857Z" fill="#EADFBF"/>
<path d="M14.8198 111.874C14.7902 111.888 14.7712 111.921 14.754 111.952C14.5026 112.405 14.2511 112.858 13.9997 113.311C14.4128 113.43 14.826 113.549 15.2391 113.668C15.3143 113.135 15.4829 112.62 15.7317 112.163C15.4616 112.069 15.1915 111.976 14.9213 111.882C14.8882 111.871 14.8519 111.859 14.8198 111.874Z" fill="#27024F"/>
<path d="M17.33 111.785C17.3 111.727 17.2236 111.75 17.1712 111.78C16.9467 111.908 16.7225 112.037 16.498 112.165C16.7394 112.514 16.93 112.91 17.0592 113.33C17.3261 113.113 17.6199 112.94 17.9286 112.818C17.8851 112.658 17.8044 112.516 17.7245 112.377C17.5521 112.076 17.4903 112.095 17.33 111.785Z" fill="#27024F"/>
<path d="M15.4737 102.413C15.5784 102.189 15.6919 101.968 15.8059 101.754C15.9491 101.486 16.097 101.208 16.2221 100.919C16.5375 100.192 16.6301 99.5312 16.4971 98.9561L16.4788 98.8768L16.4089 98.8621C16.2049 98.8197 16.0211 98.974 15.8729 99.2959C15.4599 100.195 15.2245 101.196 15.1819 102.212C14.9397 101.425 14.6508 100.575 14.1563 99.8995C14.0397 99.7401 13.8781 99.5428 13.6615 99.4303C13.4341 99.3123 13.1676 99.3217 12.9838 99.4583C12.7729 99.6149 12.6584 99.9303 12.6923 100.262C12.7237 100.569 12.8639 100.829 12.9824 101.021C13.4859 101.838 14.258 102.43 15.1045 102.653C14.6699 104.252 14.6983 106.022 15.1983 107.596L15.4086 107.507C14.9341 106.013 14.8983 104.335 15.2956 102.812L15.3513 102.681C16.8676 102.564 18.4292 103.519 19.1787 105.051L19.3739 104.923C18.606 103.354 17.0306 102.354 15.4737 102.413ZM16.0709 99.4172C16.1446 99.257 16.2262 99.1537 16.3011 99.1233C16.3869 99.613 16.2931 100.177 16.0217 100.804C15.901 101.082 15.7556 101.355 15.6152 101.618C15.5493 101.742 15.4822 101.867 15.4171 101.995C15.4815 101.097 15.7045 100.215 16.0709 99.4172ZM13.1651 100.871C13.012 100.623 12.9348 100.425 12.915 100.232C12.8954 100.04 12.9467 99.7937 13.1052 99.6763C13.1674 99.6301 13.2452 99.6055 13.3301 99.6055C13.4101 99.6055 13.493 99.6268 13.5698 99.6664C13.7451 99.7573 13.884 99.928 13.9853 100.066C14.4676 100.726 14.7403 101.544 14.988 102.353C14.2601 102.114 13.604 101.583 13.1651 100.871Z" fill="#27024F"/>
<path d="M13.3951 72.5148C9.58933 70.2441 4.49086 71.8741 1.94108 75.8489C-0.608571 79.8236 -0.590527 85.6158 1.66649 89.8199C3.9235 94.0238 8.16257 96.5778 12.4427 96.782C16.5367 96.9773 20.7682 95.0236 23.2673 91.2745C24.5794 89.3061 25.3987 86.8418 25.2908 84.3609C25.183 81.8801 24.0722 79.4177 22.2282 78.1383C21.0315 77.3082 19.6174 77.0041 18.3588 76.3069C16.5673 75.3148 15.1604 73.5681 13.3951 72.5148Z" fill="#E56338"/>
<path d="M0.741122 87.7494L0.754863 87.7532C1.23224 85.5014 1.95614 83.3604 2.9066 81.3891L2.71075 81.2633C1.79447 83.1638 1.08993 85.2218 0.608124 87.3821C0.656041 87.5027 0.697745 87.6263 0.741122 87.7494Z" fill="#F9F7E8"/>
<path d="M14.8513 73.5539C11.7763 75.1094 9.05136 77.6427 7.1508 80.7342C5.12346 84.0314 3.61759 88.6266 3.35876 92.182C3.37968 92.2045 3.39963 92.2287 3.4172 92.2562C3.46404 92.3297 3.51279 92.4026 3.56119 92.4757C3.7568 88.9299 5.27522 84.2316 7.33351 80.8837C9.2361 77.789 11.9749 75.2581 15.0635 73.7269C14.992 73.6708 14.9213 73.6131 14.8513 73.5539Z" fill="#F9F7E8"/>
<path d="M13.2949 72.5555C9.08114 73.3453 5.20402 76.3896 3.08932 80.6301L3.28338 80.759C5.42245 76.47 9.39219 73.4152 13.6725 72.7431C13.5487 72.6752 13.4227 72.6129 13.2949 72.5555Z" fill="#F9F7E8"/>
<path d="M12.1427 71.8872C7.51445 72.3911 3.22148 75.3189 0.811279 79.6741L1.00008 79.8136C3.45617 75.3752 7.89898 72.4392 12.6402 72.0988C12.4761 72.0219 12.3111 71.9489 12.1427 71.8872Z" fill="#F9F7E8"/>
<path d="M13.3951 72.5148C13.1484 72.3676 12.896 72.2375 12.6393 72.1227C7.48073 72.1644 2.61563 75.9692 0.0846189 81.3507C-0.132025 83.3779 0.0712366 85.4796 0.668351 87.4142C1.83067 80.298 7.24784 73.2521 13.4892 72.5739C13.4577 72.5545 13.4269 72.5338 13.3951 72.5148Z" fill="#F69348"/>
<path d="M15.0474 73.7298C8.70642 76.5877 4.43616 84.5767 3.44675 92.3636C4.6344 93.7055 6.05746 94.7728 7.60121 95.524C12.2746 90.0612 15.476 82.766 16.7957 75.2198C16.2045 74.7404 15.633 74.2216 15.0474 73.7298Z" fill="#F69348"/>
<path d="M19.4787 76.8315C19.3075 76.7603 19.1367 76.6876 18.9678 76.6102C18.8524 84.0971 15.8138 91.5955 10.8561 96.5946C11.382 96.6912 11.9117 96.7569 12.4429 96.7823C13.3883 96.8274 14.3404 96.7527 15.2776 96.573C16.7222 94.5149 17.786 92.0893 18.468 89.6144C19.8391 85.5431 20.5252 80.879 19.4787 76.8315Z" fill="#F69348"/>
<path d="M22.6021 78.4238C22.4808 78.3236 22.3569 78.2275 22.2284 78.1383C22.0562 78.0189 21.8786 77.9125 21.6987 77.812C24.0505 83.2112 23.1652 89.5754 20.2637 94.406C20.9344 93.9172 21.5616 93.354 22.1346 92.7228C24.2366 88.2942 24.8212 82.5675 22.6021 78.4238Z" fill="#F69348"/>
<path d="M23.5093 89.3658C24.3897 86.1967 24.307 82.588 23.2937 79.0986C23.1821 78.9721 23.067 78.8498 22.9471 78.7338C24.0716 82.3089 24.1994 86.0348 23.2959 89.2869C23.12 89.9203 22.9009 90.5504 22.6884 91.1616L22.1531 92.7009C22.2935 92.5453 22.4286 92.3836 22.5619 92.2195L22.8969 91.2562C23.1104 90.6427 23.3309 90.008 23.5093 89.3658Z" fill="#27024F"/>
<path d="M17.2435 93.5666C17.8346 92.0392 18.3959 90.4719 18.9116 88.9079C19.1034 88.3262 19.3042 87.7001 19.4736 87.0611C20.3487 83.7585 20.3479 80.1399 19.4809 76.834C19.3928 76.7974 19.3052 76.7597 19.2176 76.7218C20.1219 80.0288 20.1381 83.6693 19.2595 86.9854C19.0921 87.617 18.8927 88.2386 18.7023 88.816C18.1881 90.3752 17.6284 91.9381 17.0389 93.461C16.8036 94.0686 16.5479 94.7109 16.2362 95.2992C16.0032 95.7388 15.7358 96.149 15.4497 96.542C15.5672 96.5178 15.6835 96.4878 15.8003 96.4601C16.0256 96.1335 16.237 95.7934 16.4273 95.4341C16.746 94.833 17.0053 94.1819 17.2435 93.5666Z" fill="#27024F"/>
<path d="M13.2591 86.8756C14.8596 83.5613 16.531 79.6135 16.9328 75.3302C16.8626 75.2745 16.7926 75.2186 16.723 75.1618C16.3496 79.4535 14.6705 83.4219 13.0635 86.7499C11.6497 89.6777 9.91126 92.9074 7.52591 95.4855C7.60119 95.5226 7.67468 95.564 7.75056 95.5996C10.1215 93.0108 11.8503 89.7932 13.2591 86.8756Z" fill="#27024F"/>
<path d="M9.18079 78.7456C9.60762 78.9546 9.9293 79.379 10.1716 79.8354C10.5725 80.5905 10.7923 81.452 11.0076 82.302C11.2165 83.1261 11.4254 83.9502 11.6341 84.7742C9.39648 84.657 7.26266 83.0515 6.2662 80.7352C6.17944 80.5335 6.09891 80.3147 6.11958 80.0908C6.15686 79.688 6.49479 79.426 6.8032 79.2329C7.5363 78.7738 8.41303 78.3699 9.18079 78.7456Z" fill="#27024F"/>
<path d="M18.6957 84.4381C19.0944 84.3943 19.5455 84.4735 19.7947 84.8357C19.971 85.0921 20.0096 85.437 20.0325 85.7634C20.0765 86.3971 20.0856 87.034 20.0596 87.6691C18.1413 87.9389 16.1471 87.4221 14.5128 86.2314C15.351 85.8285 16.1894 85.4255 17.0276 85.0225C17.5662 84.7637 18.1149 84.5018 18.6957 84.4381Z" fill="#27024F"/>
<path d="M11.4839 86.6064L11.3532 86.5418L10.5969 87.9002L11.7454 88.4175L12.3616 87.1562L11.4839 86.6064Z" fill="#27024F"/>
<path d="M13.482 87.6737L12.7538 88.8057L13.9302 89.2261L14.4625 88.0294L13.5941 87.7385L13.482 87.6737Z" fill="#27024F"/>
<path d="M4.44713 87.7495C4.67512 87.9344 4.82951 88.2809 4.73475 88.5828C4.73582 88.5845 4.73678 88.5863 4.73785 88.5879C5.13278 88.6421 5.51756 88.7927 5.85931 89.0272C6.04082 89.1518 6.21959 89.3139 6.28818 89.5445C6.35676 89.7752 6.26487 90.0812 6.05946 90.1376C6.41759 90.0953 6.7977 90.1503 7.09644 90.3824C7.39517 90.6144 7.59043 91.0499 7.5069 91.4543C7.88319 91.37 8.28314 91.288 8.6409 91.4468C8.99867 91.6056 9.27124 92.1045 9.09773 92.4992C9.37651 92.2459 9.76176 92.1572 10.1034 92.2676C10.445 92.378 10.7343 92.6847 10.8588 93.0682C11.4624 92.5708 12.3865 92.6965 12.8735 93.3421C13.0589 93.0115 13.4411 92.8847 13.7779 92.9474C14.1146 93.01 14.4134 93.2287 14.6853 93.4664C14.5803 93.3605 14.6212 93.1454 14.7325 93.0481C14.8436 92.9508 14.994 92.942 15.1332 92.95C15.536 92.9732 15.9239 93.1031 16.3023 93.2701C17.8159 92.7586 19.2335 91.8751 20.3995 90.6464C19.4599 90.8286 18.51 90.9217 17.5593 90.9338C17.0222 91.4701 16.2792 91.7314 15.5765 91.6011C15.5888 91.4899 15.6011 91.3785 15.6134 91.2673C15.1093 91.5226 14.5488 91.5995 13.9984 91.5868C13.8094 91.5824 13.6063 91.5617 13.4611 91.422C13.3159 91.2822 13.2768 90.9816 13.432 90.857C13.0212 91.034 12.5865 91.214 12.1543 91.1286C11.7221 91.0432 11.3123 90.5855 11.3905 90.0873C11.046 90.2513 10.7311 90.5892 10.3614 90.5354C9.93861 90.4738 9.71002 89.9457 9.55504 89.4874C9.58575 89.7845 9.29167 90.0209 9.03464 89.9825C8.77761 89.9442 8.5716 89.7198 8.41374 89.4825C8.1928 89.1506 8.02706 88.7696 7.92836 88.3666C7.88319 88.6529 7.76943 89.0104 7.51742 89.0115C7.42816 89.0119 7.34486 88.9622 7.26875 88.9084C6.73449 88.5309 6.36143 87.8708 6.26583 87.1569C6.2503 87.3266 6.08121 87.482 5.91989 87.4607C5.71819 87.4342 5.56607 87.2383 5.45888 87.0392C5.2947 86.7343 5.18859 86.3888 5.14581 86.0333C4.36945 85.3233 3.64113 84.543 2.97244 83.6963C3.17176 85.0712 3.59525 86.392 4.19272 87.6005C4.28174 87.6402 4.3685 87.6857 4.44713 87.7495Z" fill="#27024F"/>
<path d="M20.6532 73.5911C20.5176 73.3789 20.2774 73.2667 19.9585 73.2667C19.9174 73.2667 19.8764 73.2687 19.8364 73.2718C19.2161 73.3226 18.5876 73.6023 17.8582 74.1515C17.5606 74.3759 17.1985 74.6778 16.9066 75.0841C16.8985 75.0321 16.8897 74.9796 16.8817 74.9279L16.8419 74.9362C16.7288 74.1631 16.5547 73.4006 16.3158 72.667C16.1852 72.2659 16.0277 71.8495 15.7611 71.52C15.6787 71.4182 15.5106 71.2474 15.3104 71.2474C15.2633 71.2474 15.2175 71.2571 15.1741 71.276C15.0196 71.3434 14.9127 71.5221 14.8648 71.7929C14.7466 72.4606 14.9168 73.2238 15.3316 73.8868C15.6778 74.4399 16.1323 74.8664 16.708 75.3364L16.7167 75.3436C16.7107 75.3713 16.7027 75.3988 16.6971 75.4265C16.6758 75.4744 16.6581 75.525 16.6513 75.5815C16.6473 75.6151 16.6522 75.6485 16.6555 75.6819C16.5209 76.5921 16.6129 77.5026 16.7075 78.155C16.7598 78.5155 16.8241 78.8794 16.8864 79.2309C16.9986 79.8659 17.1147 80.522 17.1619 81.1744L17.3852 81.1526C17.3368 80.4853 17.2194 79.8213 17.1058 79.1792C17.044 78.8296 16.9801 78.4682 16.9284 78.112C16.8472 77.5526 16.7671 76.7974 16.8387 76.0267C16.9198 76.4545 17.017 76.8806 17.1527 77.2926C17.4359 78.1509 17.8395 78.8137 18.3522 79.2621L18.4875 79.056C18.0088 78.6371 17.6302 78.0129 17.3622 77.2007C17.2485 76.8556 17.1625 76.4975 17.0896 76.1358C17.1512 76.147 17.2084 76.1495 17.254 76.1495C17.2896 76.1495 17.3249 76.1483 17.3602 76.1462C18.3485 76.0927 19.3416 75.7058 20.1565 75.0573C20.3406 74.9107 20.5452 74.7262 20.6676 74.4692C20.8068 74.1758 20.8013 73.8229 20.6532 73.5911ZM15.5129 73.7351C15.1347 73.1307 14.9783 72.4415 15.0839 71.8447C15.1062 71.7197 15.1535 71.5614 15.2531 71.518C15.2714 71.5101 15.2899 71.5061 15.3101 71.5061C15.3934 71.5061 15.5007 71.5773 15.5973 71.6966C15.8371 71.9931 15.9835 72.3819 16.106 72.7579C16.3362 73.4653 16.5087 74.1994 16.6196 74.9442C16.164 74.558 15.7971 74.1892 15.5129 73.7351ZM20.4706 74.3448C20.3712 74.554 20.1995 74.7087 20.0289 74.8446C19.248 75.466 18.2964 75.8367 17.3494 75.8882C17.2261 75.8941 17.1167 75.8864 17.036 75.8531C17.0101 75.7109 16.9841 75.5688 16.9608 75.4265C17.1836 75.0591 17.4995 74.7306 17.9806 74.3683C18.6767 73.8439 19.2713 73.5775 19.852 73.5299C19.8869 73.5271 19.9226 73.5254 19.9584 73.5254C20.1291 73.5254 20.3571 73.5635 20.4728 73.7448C20.585 73.9204 20.5526 74.1727 20.4706 74.3448Z" fill="#27024F"/>
<path d="M17.1234 0H16.5632V75.7207H17.1234V0Z" fill="#27024F"/>
</svg>
