<svg width="107" height="116" viewBox="0 0 107 116" fill="none" xmlns="http://www.w3.org/2000/svg">
<path d="M16.1565 94.3484C12.2769 95.2752 8.76594 99.1965 6.34237 101.957C4.87523 103.626 3.80711 104.872 3.2964 104.769C1.94196 104.499 -0.358755 103.957 0.0473738 98.0027C0.28699 94.4925 1.56125 90.8412 2.56743 88.4344C3.26801 86.7565 3.83758 85.6855 3.83758 85.6855C3.83758 85.6855 22.3845 92.8592 16.1565 94.3484Z" fill="#5932A5"/>
<path d="M51.3546 100.574C34.811 101.715 17.9038 98.8106 8.28057 91.6075C8.0105 91.4055 7.74554 91.2005 7.48765 90.9914C6.03371 89.8159 4.76553 88.5328 3.71569 87.1411C3.18163 86.4325 2.70343 85.6966 2.28512 84.9322C0.540794 81.7418 -0.155713 78.06 0.486986 73.8768C2.26583 62.2915 8.93851 53.0388 14.406 47.1817C18.6166 42.6727 22.1133 40.1755 22.1133 40.1755C22.1133 40.1755 15.3107 40.1755 14.1938 39.5664C13.077 38.9574 12.9754 36.8257 12.9754 36.8257H80.7989C80.7989 36.8257 80.6974 39.0589 79.5806 39.5664C78.4637 40.074 72.3718 40.277 72.3718 40.277C72.3718 40.277 89.7338 57.9397 91.0537 74.7904C92.4031 92.0186 77.8545 98.7467 51.3546 100.574Z" fill="#6743BF"/>
<path d="M51.3547 100.574C30.4045 102.018 8.87155 96.9764 2.28516 84.9322C9.11827 93.1657 20.6737 100.145 39.1708 93.5362C74.7751 80.8129 55.0098 50.36 55.0098 50.36C55.0098 50.36 56.3632 50.766 59.8834 53.3383C63.4035 55.9095 65.028 59.2929 65.028 59.2929C65.028 59.2929 65.4341 54.1504 61.5079 48.8719C57.5816 43.5933 49.0529 41.6981 47.9706 41.5631C46.8872 41.4271 33.485 40.345 33.485 40.345C33.485 40.345 47.4284 40.48 48.2407 40.074C49.0529 39.668 41.6076 37.0967 41.6076 37.0967L42.8737 36.8257H80.799C80.799 36.8257 80.6975 39.0589 79.5806 39.5664C78.4638 40.074 72.3718 40.277 72.3718 40.277C72.3718 40.277 89.7338 57.9397 91.0538 74.7904C92.4031 92.0186 77.8546 98.7467 51.3547 100.574Z" fill="#542DA0"/>
<path d="M80.7991 36.8261C80.7991 37.2971 78.1217 37.7306 73.6299 38.0747C71.5739 38.232 69.1381 38.3711 66.4049 38.4868C62.2289 38.6624 57.3584 38.7842 52.0878 38.8319C50.5232 38.8472 48.922 38.8553 47.2945 38.8553C47.1594 38.8563 47.0234 38.8563 46.8873 38.8563C40.2593 38.8563 34.076 38.7426 28.8522 38.5457C25.1402 38.4056 21.9125 38.2239 19.3549 38.0117C15.3403 37.6778 12.9756 37.2687 12.9756 36.8261C12.9756 36.4607 14.592 36.1176 17.4197 35.8201C19.3945 35.6131 21.9622 35.4293 24.9828 35.276C30.8919 34.9766 38.5373 34.7959 46.8873 34.7959C48.3961 34.7959 49.8815 34.802 51.3375 34.8131C53.1488 34.8274 54.9155 34.8497 56.6253 34.8812C61.377 34.9664 65.6901 35.1116 69.3148 35.3034C71.8094 35.4354 73.9792 35.5877 75.7387 35.7582C78.9472 36.0688 80.7991 36.4343 80.7991 36.8261Z" fill="#7F2626"/>
<path opacity="0.51" d="M75.7386 35.7579C75.2177 36.6533 74.4867 37.4197 73.6297 38.0744C71.5737 38.2317 69.1379 38.3708 66.4047 38.4865C60.8854 38.719 54.1528 38.856 46.8871 38.856C40.2591 38.856 34.0758 38.7423 28.852 38.5454C25.14 38.4053 21.9123 38.2236 19.3547 38.0115C18.5434 37.5313 17.6662 36.8035 17.4195 35.8199C17.3494 35.5438 17.3291 35.2474 17.3748 34.9306C17.7809 32.0884 20.3537 31.8183 20.3537 31.8183C20.3537 31.8183 18.2388 26.8058 23.0606 19.5011C27.528 12.7345 31.4542 15.9828 31.7253 17.742C31.9954 19.5011 31.3192 21.3963 31.3192 21.3963L35.3805 14.8997C35.3805 14.8997 29.6947 15.5768 31.8604 10.0272C34.0261 4.47768 45.1276 -2.96604 52.5729 1.22937C60.0183 5.42579 58.1237 11.9224 58.1237 11.9224C58.1237 11.9224 61.9139 10.7043 65.1629 13.8166C68.412 16.9299 67.3286 21.5313 67.3286 21.5313C67.3286 21.5313 75.4512 22.6144 76.5345 31.6823C76.7244 33.275 76.4016 34.621 75.7386 35.7579Z" fill="#EADCF4"/>
<path opacity="0.51" d="M25.1955 9.27797C23.6834 9.38892 22.3916 10.3797 21.7817 11.7674C21.3533 12.7422 21.2131 13.9292 22.2487 14.8997C24.4147 16.9299 27.9345 11.6514 26.9869 10.0272C26.6078 9.37756 25.9038 9.22599 25.1955 9.27797Z" fill="#EADCF4"/>
<path d="M78.159 12.7347C78.159 12.7347 75.7222 15.847 75.3161 15.9831C74.91 16.1181 72.4732 18.2833 72.2021 18.8253C71.932 19.3664 66.9224 25.0509 66.9224 25.0509C66.9224 25.0509 66.9224 25.322 66.3812 26.134C66.3477 26.1838 66.2523 26.2863 66.102 26.4355C65.7548 26.7786 65.1162 27.3674 64.2826 28.1186C62.3707 29.8442 59.4314 32.4287 56.625 34.8812C54.9914 36.3074 53.4034 37.6899 52.0876 38.8319C51.2479 38.84 50.397 38.8461 49.5381 38.8502C48.7969 38.8532 48.0486 38.8553 47.2942 38.8553L51.3372 34.8131C55.2858 30.8654 60.0527 26.0995 60.2893 25.863C60.6894 25.4631 60.0375 27.4293 60.0192 27.4862C60.0771 27.4537 61.9179 26.3939 62.1849 25.728C62.455 25.0509 62.8611 23.1558 63.2673 22.7497C63.6734 22.3437 63.5383 16.2531 63.9445 15.441C64.0694 15.1913 64.5668 14.2868 65.2146 13.1469C65.5304 12.5916 65.8827 11.9805 66.2442 11.3613C67.5519 9.12505 68.9927 6.79032 69.3592 6.64415C69.4902 6.59136 69.7724 6.4584 70.1389 6.28178C71.666 5.54786 74.6439 4.06783 74.0977 4.61395C73.4205 5.29001 70.4425 6.64415 69.9014 7.45623C69.3592 8.26831 65.569 15.171 65.569 15.9831C65.569 16.7951 65.1629 21.9376 64.8918 22.6147C64.6268 23.2776 64.3618 24.3302 64.3516 24.3729C64.4409 24.2724 70.1765 17.8742 70.8487 17.4712C71.5259 17.0652 74.7749 11.3806 75.181 11.3806C75.5872 11.3806 75.4511 13.1408 75.4511 13.1408L73.8266 15.847L74.9211 14.8137L76.2634 13.5468L78.159 12.7347Z" fill="#932121"/>
<path d="M61.7789 4.07201C61.7789 4.07201 61.5081 7.0496 61.9142 7.86168C62.3203 8.67376 65.2986 13.2755 65.2986 13.2755L66.6523 11.7867C66.6523 11.7867 62.591 7.59096 62.591 7.04951C62.591 6.50815 62.1849 1.36495 62.0495 2.04172C61.9142 2.71859 61.7789 4.07201 61.7789 4.07201Z" fill="#932121"/>
<path d="M69.3596 6.64364C69.3596 6.64364 68.8182 2.31252 69.2243 2.44793C69.6304 2.58325 70.1719 6.50833 70.1719 6.50833L69.3596 6.64364Z" fill="#932121"/>
<path d="M62.9971 28.0281C62.9971 28.0281 70.5782 28.5695 71.5258 28.5695C72.4734 28.5695 78.9714 27.3514 79.513 26.9453C80.0545 26.5393 85.3342 21.1255 84.6573 21.5315C83.9805 21.9375 79.3777 25.5919 78.7008 25.8626C78.0238 26.1333 72.0673 27.3515 71.6612 27.3515C71.2551 27.3515 65.1631 26.2687 65.1631 26.2687L62.9971 28.0281Z" fill="#932121"/>
<path d="M83.1681 28.7052L79.5129 26.9457L80.0544 25.5923C80.0544 25.5923 83.1681 28.1638 83.1681 28.7052Z" fill="#932121"/>
<path d="M88.0413 98.5442C87.7712 105.312 85.3345 110.048 83.98 110.184C82.6266 110.319 81.2731 109.913 79.2425 105.447C78.7541 104.372 78.014 103.148 77.1713 101.908C74.5172 98.0001 70.8488 93.9427 70.8488 93.9427C70.1716 92.4536 70.5777 90.4234 73.5567 86.769C74.8898 85.1327 76.9012 84.148 78.8506 83.607C81.2549 82.9411 83.5637 82.9512 84.3861 83.2497C85.8756 83.7917 88.3124 91.7765 88.0413 98.5442Z" fill="#542DA0"/>
<path d="M82.4926 91.372C82.5444 91.5171 85.2989 99.242 81.5432 101.521C79.8639 102.541 78.3429 102.391 77.1713 101.908C74.5172 97.9995 70.8488 93.9422 70.8488 93.9422C70.1716 92.453 70.5777 90.4228 73.5567 86.7685C74.8898 85.1321 76.9012 84.1475 78.8506 83.6064C79.4304 83.7607 79.9746 83.9546 80.4609 84.1972C83.98 85.9564 84.2511 93.6711 84.2511 93.6711L82.4926 91.372Z" fill="#6743BF"/>
<path d="M6.34237 101.957C4.87523 103.627 3.80711 104.872 3.2964 104.77C1.94196 104.5 -0.358755 103.957 0.0473738 98.0029C0.28699 94.4927 1.56125 90.8414 2.56743 88.4346C2.35422 89.1868 1.55411 92.2239 1.67189 95.1606C1.80287 98.4384 2.3146 100.191 2.34608 100.298L0.994677 97.4608C0.994677 97.4608 0.723594 102.333 3.16037 102.604C4.10259 102.709 5.26714 102.389 6.34237 101.957Z" fill="#7D4DDB"/>
<path d="M28.6116 98.95C28.6116 98.95 31.5898 104.229 32.9436 104.635C34.2974 105.041 37.2757 101.522 37.9525 100.168C38.6293 98.8147 28.6116 98.95 28.6116 98.95Z" fill="#512793"/>
<path d="M19.0674 73.7755L28.0022 65.4517L26.7838 63.6245L19.0674 73.7755Z" fill="#542DA0"/>
<path d="M17.9167 75.3997C17.9167 75.3997 26.5808 82.7084 27.5961 82.9114C28.6114 83.1144 35.9218 74.3169 35.9218 74.3169L27.19 80.4752L17.9167 75.3997Z" fill="#542DA0"/>
<path d="M18.1876 73.64L19.1352 73.0986L26.8517 64.7071L34.5681 73.9107L27.3932 79.8659C27.3932 79.8659 18.9999 74.8581 18.4584 75.1287C17.9169 75.3994 17.9169 75.3994 17.9169 75.3994C17.9169 75.3994 26.581 81.49 27.2579 81.49C27.9348 81.49 35.9219 74.3166 35.9219 74.3166C35.9219 74.3166 27.2579 62.5415 26.581 62.8122C25.9041 63.0829 17.9169 72.4218 17.7815 72.9632C17.6461 73.5046 18.1876 73.64 18.1876 73.64Z" fill="#3ED9F2"/>
<path d="M9.26952 92.5383C8.84004 92.1871 8.22376 91.6643 7.48765 90.9913C6.41344 90.0087 5.08536 88.7042 3.71569 87.141C3.18163 86.4325 2.70343 85.6965 2.28512 84.9321C0.540794 81.7417 -0.155713 78.0599 0.486986 73.8767C2.26583 62.2914 8.93851 53.0388 14.406 47.1816C12.0677 50.3691 9.14667 54.6842 7.69577 58.1427C5.05593 64.4363 4.64981 67.2786 4.64981 67.2786C4.64981 67.2786 8.50803 62.2031 7.89884 69.9178C7.28964 77.6326 3.63448 79.8658 3.02529 77.6326C2.4161 75.3994 2.4161 75.3994 2.4161 75.3994C2.4161 75.3994 1.19771 78.2416 3.63448 84.3322C5.04883 87.8668 6.94136 90.2391 8.28057 91.6074C8.66335 91.9982 9.00148 92.3079 9.26952 92.5383Z" fill="#8861E5"/>
<path d="M9.28882 92.5547C9.6452 92.846 9.86859 93.0165 9.91834 93.0541C9.86656 93.0186 9.63809 92.8541 9.28882 92.5547Z" fill="#8861E5"/>
<path d="M13.7878 37.6377C13.7878 37.6377 24.5503 38.4498 34.2973 38.6528C44.0444 38.8558 54.1977 38.6528 54.1977 38.6528C54.1977 38.6528 42.8261 40.48 31.0483 40.0739C19.2706 39.6679 13.7878 37.6377 13.7878 37.6377Z" fill="#9B7FEF"/>
<path d="M24.6855 41.8336C24.6855 41.8336 24.1441 43.5931 22.1134 42.1043C20.0828 40.6156 21.8426 37.5026 21.4365 36.6905C21.0304 35.8784 18.9997 36.4198 18.8644 38.45C18.7291 40.4802 19.6767 44.8113 22.1134 45.0819C24.5502 45.3526 24.6855 41.8336 24.6855 41.8336Z" fill="#421B7F"/>
<path d="M69.6303 37.7732C69.6303 37.7732 71.3902 37.0964 71.7963 37.9085C72.2025 38.7206 71.661 44.6758 68.412 44.6758C65.1629 44.6758 64.3507 41.1568 65.0276 41.2922C65.7045 41.4275 66.1106 43.3224 68.5474 42.6456C70.9841 41.969 69.6303 37.7732 69.6303 37.7732Z" fill="#421B7F"/>
<path d="M69.3593 60.5113C38.6296 64.8427 21.8422 42.5105 22.1133 42.1045C22.3844 41.6985 24.279 42.5105 24.279 42.5105C24.279 42.5105 30.2359 52.1205 47.0222 56.4509C47.2548 56.5108 47.4873 56.5686 47.7198 56.6245C64.2858 60.6402 81.1218 55.5637 80.0547 50.2253C78.9714 44.8118 68.5471 42.6455 68.5471 42.6455C68.5471 42.6455 68.5471 41.2924 69.9015 40.7514C70.9016 40.3514 75.7427 42.4628 78.2048 43.5926C79.7705 44.3123 81.1736 45.3538 82.2762 46.6785C85.111 50.0801 89.2444 57.7096 69.3593 60.5113Z" fill="#1EBDE2"/>
<path d="M81.2053 53.8796L80.393 52.4585C80.393 52.4585 79.5808 59.1581 62.7264 59.1581C56.7238 59.1581 51.701 58.0507 47.72 56.6245C64.286 60.6402 81.122 55.5637 80.0549 50.2253C78.9716 44.8117 68.5473 42.6455 68.5473 42.6455C68.5473 42.6455 74.7072 41.6984 78.5654 45.3528C82.4237 49.0071 81.2053 53.8796 81.2053 53.8796Z" fill="#17A2CC"/>
<path d="M78.159 12.7344C78.159 12.7344 75.7222 15.8467 75.3161 15.9827C74.91 16.1177 72.4732 18.2829 72.2021 18.825C71.932 19.366 66.9225 25.0506 66.9225 25.0506C66.9225 25.0506 66.9224 25.3216 66.3813 26.1337C66.3478 26.1834 66.2523 26.2859 66.1021 26.4352C65.7548 26.7783 65.1162 27.367 64.2826 28.1182C62.3708 29.8439 59.4314 32.4283 56.6251 34.8808C54.9914 36.307 53.4035 37.6896 52.0876 38.8316C51.2479 38.8397 50.397 38.8458 49.5381 38.8498L74.7069 15.1026L74.9211 14.8133L76.2634 13.5465L78.159 12.7344Z" fill="#721A1A"/>
<path opacity="0.36" d="M66.4048 38.4867C60.8855 38.7191 54.1529 38.8561 46.8872 38.8561C40.2592 38.8561 34.0759 38.7425 28.8521 38.5455C27.519 37.9578 25.9015 36.9437 24.9826 35.2759C24.4506 34.3116 23.8604 33.0717 24.2791 31.6825C25.9716 26.0659 32.6727 29.5172 32.6727 29.5172C32.6727 29.5172 33.6989 10.7664 46.4811 11.3805C58.4619 11.956 57.3115 23.2916 57.3115 23.2916C57.3115 23.2916 59.9849 20.5844 62.5232 22.8176C65.4206 25.3668 62.7262 28.9762 62.7262 28.9762C62.7262 28.9762 68.1368 27.9545 69.4954 32.2245C70.4427 35.2018 68.0059 38.1456 66.4048 38.4867Z" fill="#EADCF4"/>
<path d="M27.5961 39.465C27.5961 39.465 21.098 39.059 24.7532 40.6832C28.4083 42.3073 36.5309 41.2252 33.4849 40.3451C30.439 39.465 27.5961 39.465 27.5961 39.465Z" fill="#9B7FEF"/>
<path d="M74.4363 85.8213C74.4363 85.8213 72.3379 87.6485 70.9165 90.2877C69.495 92.927 70.9165 94.2804 71.1195 94.6188C71.3226 94.9572 73.5563 97.1228 73.5563 97.1228C73.5563 97.1228 71.8641 95.3633 71.3903 93.5361C70.9165 91.709 74.301 87.7839 74.301 87.7839C74.301 87.7839 73.2856 88.5283 72.8795 88.4606C72.4734 88.3928 74.4363 85.8213 74.4363 85.8213Z" fill="#9B7FEF"/>
<path opacity="0.35" d="M87.5269 50.127C94.2939 43.3615 94.2939 32.3924 87.5269 25.6269C80.7598 18.8614 69.7883 18.8614 63.0213 25.6269C56.2543 32.3924 56.2543 43.3615 63.0213 50.127C69.7883 56.8926 80.7598 56.8926 87.5269 50.127Z" fill="#EADCF4"/>
<path d="M106.28 110.287C103.472 111.49 98.2902 110.714 98.1592 110.694C98.2221 110.73 99.6182 111.541 98.4273 113.13C97.2089 114.754 88.9512 116.378 87.1917 114.077C85.7022 112.13 88.2822 111.54 89.1127 111.404C88.1055 111.54 84.1975 112.047 81.5059 112.047C79.196 112.047 76.1399 111.451 74.7175 111.143C75.1297 111.293 75.549 111.565 75.549 112.047C75.549 112.994 73.2473 114.483 70.8105 114.212C68.3737 113.942 67.1553 112.588 67.1553 112.588C67.1553 112.588 65.1247 113.265 60.9284 113.942C56.732 114.618 46.1727 114.483 46.8489 112.318C47.5261 110.151 58.7627 106.633 59.71 105.144C60.5354 103.847 61.0532 86.1149 61.173 81.5672C61.1903 80.8942 61.1994 80.5105 61.1994 80.5105L62.0117 68.0593L68.6448 59.6675H90.9819L92.3353 64.1339L92.2003 100.677C92.2003 100.677 92.2399 101.397 92.581 102.315C92.8663 103.085 93.3649 103.997 94.2309 104.738C96.1265 106.362 98.9694 107.174 100.864 107.309C102.76 107.445 109.123 109.069 106.28 110.287Z" fill="#EADCF4"/>
<path d="M76.226 51.2757C76.226 51.2757 76.0906 53.0351 74.3307 52.0877C72.5708 51.1404 68.5095 47.3506 70.6755 43.5609C72.8415 39.7712 73.5184 38.9592 73.2476 36.929C72.9769 34.8988 72.7062 34.3574 72.7062 34.3574C72.7062 34.3574 75.2783 36.2523 76.4967 38.8239C77.7151 41.3954 77.4443 42.8843 77.4443 42.8843C77.4443 42.8843 78.798 42.4782 78.2565 40.5833C77.7151 38.6884 77.1735 39.2299 77.1735 39.2299C77.1735 39.2299 81.5056 38.2825 81.9117 43.0196C82.3178 47.7566 78.5273 53.0352 76.226 51.2757Z" fill="#EA801F"/>
<path d="M76.226 51.2755C76.226 51.2755 78.392 50.5987 79.3397 48.2979C80.2873 45.997 79.0689 43.2901 79.0689 43.2901C79.0689 43.2901 79.2043 44.7789 78.6628 45.7263C78.1213 46.6737 78.1213 46.6737 78.1213 46.6737C78.1213 46.6737 77.4444 44.1022 76.0907 42.8841C74.737 41.6659 74.6015 39.6357 74.6015 39.6357C74.6015 39.6357 71.4878 43.5607 71.894 47.2151C72.3001 50.8694 76.226 51.2755 76.226 51.2755Z" fill="#BA5102"/>
<path d="M76.2259 51.2758C76.2259 51.2758 74.06 50.599 74.1953 48.4335C74.3306 46.268 74.8722 43.561 74.8722 43.561C74.8722 43.561 76.3614 45.1852 76.9029 47.2154C77.4443 49.2456 76.2259 51.2758 76.2259 51.2758Z" fill="#EADCF4"/>
<path d="M83.2654 84.7404C83.2654 84.7404 81.9455 92.3536 84.8899 92.4551C87.8344 92.5566 87.1236 84.3343 85.4991 83.0147C83.8746 81.6951 83.2654 84.7404 83.2654 84.7404Z" fill="#5C27A0"/>
<path d="M106.28 110.287C103.472 111.49 98.2902 110.713 98.1592 110.694C98.2221 110.73 99.6182 111.541 98.4273 113.129C97.2089 114.753 88.9512 116.378 87.1917 114.076C85.7022 112.129 88.2822 111.54 89.1127 111.404C88.1055 111.54 84.1975 112.046 81.5059 112.046C79.196 112.046 76.1399 111.45 74.7175 111.143C75.1297 111.293 75.549 111.565 75.549 112.046C75.549 112.993 73.2473 114.482 70.8105 114.211C68.3737 113.941 67.1553 112.587 67.1553 112.587C67.1553 112.587 65.1247 113.264 60.9284 113.941C56.732 114.617 46.1727 114.482 46.8489 112.317C47.5261 110.151 58.7627 106.633 59.71 105.143C60.5354 103.846 61.0532 86.1144 61.173 81.5668L61.3345 81.3901C61.3345 81.3901 59.6084 94.5864 68.2387 101.185C76.7542 107.695 83.9853 106.2 84.1752 106.16C84.0777 106.197 82.2938 106.905 83.8746 108.189C85.4992 109.508 89.2558 110.219 92.0987 109.001C94.9416 107.783 92.2003 105.346 92.2003 105.346C92.2003 105.346 93.4187 105.549 93.0125 104.027C92.8613 103.461 92.711 102.854 92.581 102.314C92.8663 103.085 93.3649 103.996 94.2309 104.737C96.1265 106.362 98.9694 107.174 100.864 107.309C102.76 107.445 109.123 109.069 106.28 110.287Z" fill="#CBBCD8"/>
<path d="M59.8455 62.5094C59.8455 62.5094 57.8148 61.4266 60.3869 59.5319C62.959 57.637 78.2566 55.7422 87.5976 56.9603C96.9385 58.1784 94.0956 61.156 94.0956 61.156C94.0956 61.156 93.9603 66.4345 92.2003 66.1638C90.4404 65.8931 90.305 62.6448 90.305 62.6448C90.305 62.6448 90.5759 81.0519 84.8901 79.8338C79.2043 78.6157 80.0166 61.4267 80.0166 61.4267C80.0166 61.4267 78.6628 61.9681 76.7675 62.1035C74.8722 62.2389 72.7062 61.8328 72.7062 61.8328C72.7062 61.8328 73.7893 71.307 70.1341 72.2545C66.479 73.202 66.0728 69.2769 66.0728 69.2769C66.0728 69.2769 65.2606 69.8183 64.7191 69.8183C64.1776 69.8183 64.1776 69.8183 64.1776 69.8183C64.1776 69.8183 64.5838 86.6012 60.7933 83.6236C57.0028 80.646 60.5225 68.6001 60.5225 68.6001C60.5225 68.6001 59.4394 67.2467 59.4394 65.4871C59.4393 63.7276 59.8455 62.5094 59.8455 62.5094Z" fill="#5C27A0"/>
<path d="M93.4187 100.88C93.4187 97.7408 90.8731 95.1958 87.7329 95.1958C90.8731 95.1958 93.4187 92.6507 93.4187 89.5112C93.4187 92.6507 95.9643 95.1958 99.1045 95.1958C95.9643 95.1958 93.4187 97.7408 93.4187 100.88Z" fill="#FFFEF5"/>
<path d="M70.2694 88.2929C70.2694 86.1625 68.542 84.4355 66.4111 84.4355C68.542 84.4355 70.2694 82.7085 70.2694 80.5781C70.2694 82.7085 71.9967 84.4355 74.1276 84.4355C71.9967 84.4355 70.2694 86.1625 70.2694 88.2929Z" fill="#FFFEF5"/>
<path d="M60.9283 60.0734C59.3431 61.0099 62.5529 62.1036 62.5529 62.1036C62.5529 62.1036 61.1991 65.4872 62.8236 67.3821C64.4482 69.277 66.3435 64.9458 66.3435 63.5924C66.3435 62.239 66.0727 61.8329 66.0727 61.8329L68.2387 62.1036C68.2387 62.1036 68.1033 65.6226 69.8632 66.164C71.623 66.7053 70.6754 60.7501 70.6754 60.7501C70.6754 60.7501 73.383 61.5622 76.4966 61.5622C79.6103 61.5622 81.3701 60.4794 81.3701 60.4794C81.3701 60.4794 81.0993 72.1192 85.7022 73.0666C90.3051 74.014 89.4927 60.4794 89.4927 60.4794H90.7111C90.7111 60.4794 90.1696 62.7803 91.6587 62.9156C93.1479 63.051 93.8068 59.1846 91.2526 57.9079C89.8988 57.2311 66.8849 56.5543 60.9283 60.0734Z" fill="#471E87"/>
<path d="M76.2261 58.4829C76.2261 58.4829 74.5 53.8134 76.023 53.2044C77.546 52.5953 77.2414 57.5693 76.9368 58.4829C76.6322 59.3965 76.2261 58.4829 76.2261 58.4829Z" fill="#932121"/>
<path opacity="0.21" d="M84.8136 48.6323C89.7831 43.6639 89.7831 35.6085 84.8136 30.6401C79.8441 25.6717 71.7869 25.6717 66.8174 30.6401C61.8479 35.6085 61.8479 43.6639 66.8174 48.6323C71.7869 53.6007 79.8441 53.6007 84.8136 48.6323Z" fill="#EADCF4"/>
</svg>
