<svg width="77" height="78" viewBox="0 0 77 78" fill="none" xmlns="http://www.w3.org/2000/svg">
<g opacity="0.5">
<path opacity="0.3" d="M21.0532 23.8989C21.0532 23.8989 42.1956 3.73763 51.1314 12.2564C60.0671 20.7751 52.1055 28.8911 56.1261 29.2889C60.1468 29.6865 68.6053 21.4465 71.7751 31.0198C74.9448 40.593 59.8941 51.0394 62.4748 51.6706C65.0555 52.3018 69.5029 50.8626 69.3564 54.3822C69.2099 57.9019 56.2181 71.1363 47.8735 69.6884C39.529 68.2404 52.0311 59.4096 47.0887 59.9929C42.1462 60.5763 33.207 73.4925 26.8986 64.9583C20.5901 56.4242 33.7206 42.1163 28.0863 43.9132C18.8146 46.8704 8.44609 36.9763 21.0532 23.8989Z" fill="#DB6362"/>
<path opacity="0.3" d="M51.8301 63.5841C51.8301 63.5841 27.5679 78.0496 20.3498 67.5043C13.1317 56.959 22.3615 50.9997 18.5017 49.6135C14.6418 48.2273 4.90391 54.1846 3.51095 44.0391C2.11799 33.8936 18.6937 27.4144 16.2831 26.1571C13.8725 24.8998 9.268 25.2034 10.0384 21.7987C10.8087 18.3941 25.8683 8.67857 33.7683 12.1644C41.6682 15.6502 27.8721 21.182 32.8079 21.8378C37.7438 22.4936 48.7847 12.0838 53.4314 21.9924C58.0782 31.9009 42.6919 42.6315 48.5203 42.2724C58.1119 41.6816 66.4859 53.9268 51.8301 63.5841Z" fill="#DB6362"/>
<path opacity="0.5" d="M54.2676 50.4612C54.2676 50.4612 44.7713 64.7148 38.9376 61.3495C33.1038 57.9843 36.6241 52.3282 34.3661 52.7071C32.108 53.0859 28.3274 58.8843 25.5582 54.0806C22.789 49.2769 29.9666 41.2824 28.477 41.3184C26.9875 41.3543 24.6906 42.8088 24.3954 40.8476C24.1003 38.8863 29.8454 29.6618 34.5981 29.2188C39.3507 28.7757 33.405 35.5009 36.0661 34.4444C38.7272 33.3879 42.2732 24.9415 46.6608 28.7057C51.0484 32.4702 45.3416 42.3068 48.2542 40.4786C53.0474 37.4706 59.8177 41.3804 54.2676 50.4612Z" fill="#DB6362"/>
</g>
<path d="M60.9435 13.2254C60.9435 13.2254 59.3683 18.6647 63.1959 18.3228C65.6613 18.1025 66.278 14.411 64.737 12.04L64.3812 14.0552L61.5788 14.7463L60.9435 13.2254Z" fill="#400A35"/>
<path d="M65.1707 16.3989C65.1707 16.3989 68.1717 17.9295 69.4977 21.4992C70.0331 22.9408 69.6612 23.7224 69.4215 25.1034C68.7172 29.1595 67.6165 28.687 67.7554 27.8341C67.7554 27.8341 69.2088 24.7857 67.6629 24.5542C66.684 24.4078 66.367 27.6614 65.5772 27.6026C64.9785 27.558 66.2604 24.885 66.1418 23.5772C66.0233 22.2694 63.2959 19.4684 64.0068 18.3829C64.7175 17.2972 65.1707 16.3989 65.1707 16.3989Z" fill="#400A35"/>
<path d="M62.5114 16.1454L62.9073 16.0815C62.9073 16.0815 62.7913 16.9128 62.5114 16.1454Z" fill="#F05857"/>
<path d="M63.5545 15.8755C63.6448 15.8755 63.7179 15.8024 63.7179 15.7122C63.7179 15.622 63.6448 15.5488 63.5545 15.5488C63.4643 15.5488 63.3912 15.622 63.3912 15.7122C63.3912 15.8024 63.4643 15.8755 63.5545 15.8755Z" fill="#F4EED6"/>
<path d="M61.8468 16.2447C61.937 16.2447 62.0101 16.1715 62.0101 16.0813C62.0101 15.9911 61.937 15.918 61.8468 15.918C61.7565 15.918 61.6834 15.9911 61.6834 16.0813C61.6834 16.1715 61.7565 16.2447 61.8468 16.2447Z" fill="#F4EED6"/>
<path d="M62.3618 16.5878C62.3618 16.5878 62.3209 16.912 62.5112 16.9118C62.7311 16.9116 62.7629 16.557 62.7629 16.557C62.7629 16.557 62.885 16.7708 62.9944 16.8116C63.1509 16.8699 63.1316 16.4149 63.1933 16.4705C63.255 16.5262 63.2566 16.84 63.0869 16.9195C62.9171 16.999 62.786 16.7589 62.786 16.7589C62.786 16.7589 62.7919 17.012 62.5112 17.012C62.2306 17.012 62.2539 16.4953 62.3618 16.5878Z" fill="#F4EED6"/>
<path d="M66.1355 20.151C66.1355 20.151 64.6359 23.2981 63.5112 23.7146C62.3866 24.1311 64.4121 21.6282 64.5209 20.6101C64.6298 19.5919 63.8765 19.6418 63.8765 19.6418C63.8765 19.6418 62.3048 23.1592 61.5271 22.7284C61.0608 22.4701 63.9674 17.286 64.9174 16.8618C65.8675 16.4376 66.8118 18.8838 66.1355 20.151Z" fill="#400A35"/>
<path d="M69.0974 23.0952C69.0974 23.0952 70.7172 23.4374 71.0874 25.2424C71.4576 27.0474 67.4774 30.8887 68.5882 31.2127C69.699 31.5367 70.0298 29.0138 70.6709 29.4539C71.3119 29.8943 69.8988 32.8129 68.3918 31.8144C66.3667 30.4723 70.5272 27.2302 70.3378 25.617C70.1484 24.004 68.9061 23.7613 68.9061 23.7613L69.0974 23.0952Z" fill="#400A35"/>
<path d="M64.8355 13.9207L64.937 13.1294L65.2211 13.9207H64.8355Z" fill="#F4EED6"/>
<path d="M63.7717 14.9678C63.7717 14.9678 63.4547 15.1297 63.3374 15.3169C63.3374 15.3169 63.337 15.019 63.7717 14.9678Z" fill="#F4EED6"/>
<path d="M61.3352 14.7725C61.3352 14.7725 61.183 14.2753 61.1322 14.1841L60.9294 14.8537L61.3352 14.7725Z" fill="#F4EED6"/>
<path d="M62.0092 15.5873C62.0092 15.5873 61.597 15.4221 61.456 15.4626C61.456 15.4626 61.7295 15.2859 62.0092 15.5873Z" fill="#F4EED6"/>
<path d="M48.0393 0.968262C48.0393 0.968262 40.2599 5.28903 45.7599 11.5073C50.6983 17.0907 55.3818 7.71427 55.3818 7.71427C55.3818 7.71427 50.1637 11.569 48.0393 8.41745C45.9148 5.2659 48.0393 0.968262 48.0393 0.968262Z" fill="#F4EED6"/>
<path d="M23.0682 30.8795L22.8323 30.4011L23.2134 30.7477L23.3655 30.2681L23.4639 30.7345L23.9055 30.5564L23.5957 30.9125L24.0703 31.1895L23.6089 31.1564L23.8365 31.6087L23.4441 31.2936L23.2134 31.697V31.229L22.7715 31.3576L23.0353 31.1038L22.5695 31.0054L23.0682 30.8795Z" fill="#F4EED6"/>
<path d="M5.94591 28.3113L5.71005 27.833L6.09091 28.1795L6.24326 27.6997L6.34146 28.1663L6.78326 27.9882L6.47325 28.3443L6.94809 28.6213L6.48646 28.5883L6.71425 29.0405L6.32164 28.7254L6.09091 29.1288V28.6608L5.64929 28.7894L5.91287 28.5356L5.4472 28.4372L5.94591 28.3113Z" fill="#F4EED6"/>
<path d="M67.5831 56.9168L67.347 56.4384L67.7281 56.785L67.8802 56.3052L67.9786 56.7718L68.4202 56.5937L68.1104 56.9498L68.5851 57.2268L68.1236 57.1937L68.3514 57.646L67.9588 57.3309L67.7281 57.7343V57.2662L67.2863 57.3949L67.55 57.1411L67.0844 57.0427L67.5831 56.9168Z" fill="#F4EED6"/>
<path d="M45.022 20.78L44.6936 20.1141L45.2239 20.5965L45.4359 19.9287L45.5727 20.5781L46.1875 20.3303L45.7562 20.8261L46.4172 21.2115L45.7746 21.1657L46.0915 21.7952L45.5451 21.3565L45.2239 21.9182V21.2666L44.609 21.4456L44.9761 21.0922L44.3278 20.9553L45.022 20.78Z" fill="#F4EED6"/>
<path d="M23.7204 21.5553L23.2631 20.628L24.0014 21.2998L24.2965 20.3701L24.4869 21.2743L25.3431 20.9292L24.7425 21.6192L25.6625 22.1559L24.7681 22.092L25.2093 22.9684L24.4487 22.3578L24.0014 23.1397V22.2326L23.1453 22.4817L23.6565 21.9898L22.7538 21.7992L23.7204 21.5553Z" fill="#FAB217"/>
<path d="M27.6595 52.2677L27.2023 51.3404L27.9407 52.0122L28.2357 51.0825L28.4262 51.9867L29.2823 51.6416L28.6817 52.3316L29.6016 52.8683L28.7072 52.8044L29.1486 53.6809L28.3878 53.0702L27.9407 53.8521V52.945L27.0844 53.1941L27.5956 52.7022L26.6929 52.5116L27.6595 52.2677Z" fill="#FAB217"/>
<path d="M52.5491 47.0242L52.0921 46.0969L52.8303 46.7687L53.1254 45.8389L53.3158 46.743L54.1719 46.3981L53.5713 47.0881L54.4914 47.6248L53.597 47.5609L54.0382 48.4374L53.2774 47.8267L52.8303 48.6086V47.7013L51.9742 47.9506L52.4852 47.4587L51.5827 47.2682L52.5491 47.0242Z" fill="#FAB217"/>
<path d="M50.3396 5.25012L49.8826 4.32283L50.6208 4.99462L50.916 4.06494L51.1063 4.96911L51.9624 4.62403L51.362 5.314L52.2819 5.8507L51.3875 5.78682L51.8288 6.66327L51.0679 6.0526L50.6208 6.83453V5.92742L49.7647 6.1765L50.2757 5.68459L49.3732 5.49406L50.3396 5.25012Z" fill="#FAB217"/>
<path d="M3.15578 48.6546L2.69856 47.7273L3.4368 48.3989L3.73195 47.4692L3.92247 48.3734L4.77855 48.0285L4.17797 48.7185L5.09793 49.255L4.20349 49.1911L4.64474 50.0678L3.88411 49.4571L3.4368 50.239V49.3317L2.58072 49.581L3.09191 49.0889L2.18921 48.8984L3.15578 48.6546Z" fill="#FAB217"/>
<path d="M72.3124 35.4963L71.984 34.8304L72.5143 35.3128L72.7263 34.645L72.8631 35.2944L73.4781 35.0466L73.0466 35.5422L73.7076 35.9277L73.065 35.8818L73.382 36.5114L72.8355 36.0729L72.5143 36.6345V35.9827L71.8994 36.1617L72.2665 35.8084L71.6182 35.6716L72.3124 35.4963Z" fill="#F4EED6"/>
<path d="M46.6745 68.282L46.3462 67.6159L46.8764 68.0984L47.0884 67.4307L47.2252 68.0801L47.8401 67.8323L47.4087 68.3279L48.0695 68.7133L47.4271 68.6674L47.7441 69.297L47.1976 68.8583L46.8764 69.42V68.7684L46.2615 68.9473L46.6286 68.594L45.9803 68.4571L46.6745 68.282Z" fill="#F4EED6"/>
<path d="M15.7796 66.6897L15.4512 66.0238L15.9815 66.5061L16.1935 65.8384L16.3302 66.4878L16.9451 66.24L16.5138 66.7356L17.1746 67.121L16.5321 67.0751L16.8491 67.7047L16.3027 67.2662L15.9815 67.8277V67.1761L15.3666 67.3551L15.7337 67.0017L15.0854 66.865L15.7796 66.6897Z" fill="#F4EED6"/>
<path d="M11.6835 55.0613L11.3551 54.3953L11.8854 54.8777L12.0974 54.21L12.2342 54.8594L12.849 54.6116L12.4177 55.1072L13.0785 55.4926L12.4361 55.4467L12.753 56.0763L12.2066 55.6378L11.8854 56.1995V55.5477L11.2705 55.7266L11.6376 55.3733L10.9893 55.2366L11.6835 55.0613Z" fill="#F4EED6"/>
<path d="M6.89188 24.1785L6.56332 23.5125L7.09378 23.9949L7.3056 23.3271L7.44253 23.9765L8.05742 23.7288L7.62608 24.2243L8.28686 24.6098L7.64443 24.5639L7.96143 25.1935L7.415 24.755L7.09378 25.3166V24.6649L6.47871 24.8438L6.84599 24.4905L6.19751 24.3537L6.89188 24.1785Z" fill="#F4EED6"/>
<path d="M61.6845 4.67049L61.4486 4.19216L61.8297 4.5387L61.9818 4.05908L62.0802 4.52548L62.5218 4.34744L62.212 4.70353L62.6867 4.9805L62.2252 4.94746L62.4528 5.39973L62.0604 5.08458L61.8297 5.48802V5.01997L61.3879 5.14863L61.6516 4.89478L61.1858 4.7964L61.6845 4.67049Z" fill="#F4EED6"/>
<path d="M42.9936 22.2127L42.7578 21.7341L43.1386 22.0809L43.291 21.6011L43.3892 22.0677L43.831 21.8896L43.5212 22.2457L43.9958 22.5225L43.5344 22.4896L43.762 22.9419L43.3696 22.6268L43.1386 23.0302V22.5621L42.697 22.6906L42.9608 22.4368L42.4949 22.3386L42.9936 22.2127Z" fill="#F4EED6"/>
<path d="M27.4976 8.45778L27.2617 7.97945L27.6428 8.32599L27.795 7.84619L27.8933 8.31278L28.335 8.13473L28.0251 8.49082L28.4998 8.7678L28.0383 8.73476L28.2659 9.18702L27.8735 8.87187L27.6428 9.27531V8.80726L27.201 8.93593L27.4648 8.68208L26.9989 8.58369L27.4976 8.45778Z" fill="#F4EED6"/>
<path d="M15.3403 69.0369L15.1045 68.5584L15.4855 68.9049L15.6377 68.4253L15.7361 68.8919L16.1777 68.7138L15.8678 69.0697L16.3425 69.3467L15.8811 69.3137L16.1087 69.7659L15.7162 69.451L15.4855 69.8544V69.3864L15.0437 69.5148L15.3075 69.261L14.8416 69.1626L15.3403 69.0369Z" fill="#F4EED6"/>
<path d="M73.1039 16.7221L72.8954 16.2988L73.2322 16.6053L73.3669 16.1812L73.4538 16.5938L73.8445 16.4363L73.5705 16.7511L73.9903 16.9961L73.5821 16.9669L73.7834 17.3669L73.4363 17.0883L73.2322 17.4451V17.031L72.8416 17.1448L73.0747 16.9203L72.6628 16.8333L73.1039 16.7221Z" fill="#F4EED6"/>
<path d="M74.4803 38.9724L74.2443 38.4939L74.6253 38.8405L74.7775 38.3608L74.8759 38.8274L75.3175 38.6494L75.0077 39.0053L75.4823 39.2823L75.0209 39.2492L75.2487 39.7015L74.8561 39.3865L74.6253 39.79V39.3219L74.1835 39.4504L74.4473 39.1965L73.9816 39.0982L74.4803 38.9724Z" fill="#F4EED6"/>
<path d="M36.7159 1.87672C36.7159 1.87672 25.0267 -2.67293 12.1653 11.349C-0.696037 25.3709 2.32648 35.3368 1.08935 35.1103C-0.147774 34.8838 -1.04515 22.1388 10.6622 10.3503C22.5129 -1.58265 35.4044 -1.30989 36.7159 1.87672Z" fill="#F4EED6"/>
<path d="M30.4587 3.79688C30.4587 3.79688 16.6285 10.597 13.3742 14.108C10.1199 17.6189 17.9908 5.74563 30.4587 3.79688Z" fill="#F4EED6"/>
<path d="M32.8784 73.9768C32.8784 73.9768 42.4136 80.3967 59.0401 71.1456C77.2231 61.0285 74.7237 50.5001 75.8608 51.0373C76.9979 51.5747 75.0673 65.0113 60.2354 72.4974C45.4034 79.9835 33.3249 77.3938 32.8784 73.9768Z" fill="#F4EED6"/>
<path d="M40.3439 74.4746C40.3439 74.4746 55.3998 71.1832 59.4001 68.5534C63.4002 65.9237 52.9156 75.5673 40.3439 74.4746Z" fill="#F4EED6"/>
<path d="M27.9812 16.503C27.9812 16.503 29.8883 13.339 27.3724 11.8644C24.8565 10.3897 22.7939 12.9168 22.5428 13.9065C22.2917 14.8962 23.7058 15.3592 23.605 15.6238C23.5042 15.8883 23.049 15.9544 23.0032 16.5126C22.9573 17.0708 24.6235 18.2337 25.2415 17.9239C25.8596 17.6139 25.0609 16.6934 25.9031 16.9081C26.7452 17.1229 27.4574 17.758 27.9812 16.503Z" fill="#F4EED6"/>
<path d="M25.4647 15.8958C25.4647 15.8958 24.8084 16.585 24.5029 16.3929C24.1975 16.2007 24.5033 15.3643 24.5033 15.3643C24.5033 15.3643 23.6548 15.9577 24.0901 16.632C24.5257 17.3066 25.4912 16.8602 25.4647 15.8958Z" fill="#400A35"/>
<path d="M24.7368 15.5493C24.7368 15.5493 25.1992 15.912 25.2515 15.8289C25.304 15.7457 25.6599 14.9291 25.4328 14.9097C25.2058 14.8902 24.6098 15.4548 24.7368 15.5493Z" fill="#400A35"/>
<path d="M24.8827 14.7544C24.8827 14.7544 25.9833 13.7735 24.9497 13.1023C24.2801 12.6673 23.0145 13.5929 23.4919 14.442C23.9692 15.2909 24.7847 15.0048 24.8827 14.7544Z" fill="#400A35"/>
<path d="M25.9844 14.7812C25.9844 14.7812 25.5618 16.1936 26.794 16.223C27.5923 16.2421 28.1842 14.7902 27.3325 14.3178C26.4809 13.8453 26.1338 14.4604 25.9844 14.7812Z" fill="#400A35"/>
<path d="M11.0671 62.2152C11.0671 62.2152 8.1993 59.8865 6.38894 62.1726C4.57859 64.4587 6.79404 66.8529 7.73914 67.2393C8.68424 67.6257 9.33951 66.2898 9.58748 66.4264C9.83546 66.5629 9.83748 67.0229 10.3837 67.1461C10.93 67.2692 12.3138 65.781 12.0928 65.1259C11.8718 64.4708 10.8492 65.1336 11.179 64.3295C11.5089 63.5254 12.2368 62.9085 11.0671 62.2152Z" fill="#F4EED6"/>
<path d="M10.1156 64.6226C10.1156 64.6226 10.7066 65.3685 10.4738 65.6442C10.2411 65.9201 9.45532 65.5007 9.45532 65.5007C9.45532 65.5007 9.92484 66.4236 10.6534 66.0862C11.3819 65.7486 11.0742 64.7305 10.1156 64.6226Z" fill="#400A35"/>
<path d="M9.67119 65.2954C9.67119 65.2954 10.0946 64.8881 10.0196 64.8246C9.94449 64.7611 9.18551 64.2949 9.13449 64.5171C9.08346 64.7394 9.55996 65.4079 9.67119 65.2954Z" fill="#400A35"/>
<path d="M8.90449 65.0402C8.90449 65.0402 8.08622 63.8139 7.27768 64.7439C6.75383 65.3465 7.49427 66.7285 8.40156 66.374C9.30885 66.0196 9.13888 65.1721 8.90449 65.0402Z" fill="#400A35"/>
<path d="M9.08437 63.9531C9.08437 63.9531 10.4241 64.568 10.6249 63.352C10.7549 62.5642 9.39953 61.7759 8.81309 62.5536C8.22665 63.3313 8.78739 63.7606 9.08437 63.9531Z" fill="#400A35"/>
<path d="M12.7908 19.9097C12.7908 19.9097 21.8196 19.8225 23.0021 19.4863C24.1845 19.15 20.0508 18.2913 20.0508 18.2913C20.0508 18.2913 20.2378 14.6723 17.9726 14.792C15.7074 14.9116 14.6538 18.2084 14.6538 18.2084C14.6538 18.2084 15.4558 16.6612 13.4468 16.4547C11.4379 16.2483 11.6535 18.5195 11.6535 18.5195C11.6535 18.5195 9.5506 17.8762 9.4792 18.8492C9.4078 19.8223 12.7908 19.9097 12.7908 19.9097Z" fill="#F4EED6"/>
<path d="M73.4287 49.784C73.4287 49.784 66.0509 49.7126 65.0845 49.438C64.1183 49.1634 67.4962 48.4615 67.4962 48.4615C67.4962 48.4615 67.3435 45.5042 69.1944 45.602C71.0453 45.6998 71.9064 48.3938 71.9064 48.3938C71.9064 48.3938 71.2511 47.1295 72.8928 46.9608C74.5344 46.7921 74.358 48.648 74.358 48.648C74.358 48.648 76.0764 48.1223 76.1348 48.9174C76.1934 49.7126 73.4287 49.784 73.4287 49.784Z" fill="#F4EED6"/>
<path d="M29.2705 70.4742C29.2705 70.4742 38.2993 70.387 39.4817 70.0507C40.6642 69.7146 36.5304 68.8558 36.5304 68.8558C36.5304 68.8558 36.7175 65.2367 34.4523 65.3564C32.1871 65.4761 31.1335 68.7728 31.1335 68.7728C31.1335 68.7728 31.9354 67.2257 29.9265 67.0192C27.9175 66.8127 28.1332 69.084 28.1332 69.084C28.1332 69.084 26.0303 68.4406 25.9589 69.4136C25.8875 70.3866 29.2705 70.4742 29.2705 70.4742Z" fill="#F4EED6"/>
<path d="M7.80509 53.3149C7.80509 53.3149 7.53362 53.3851 7.20965 53.5062C6.88568 53.6273 6.50959 53.7999 6.30016 54.0045C5.88148 54.4139 5.98611 56.0609 5.98611 56.0609C5.98611 56.0609 7.89704 55.9314 7.80509 53.3149Z" fill="#F58A28"/>
<path d="M7.24231 54.0044C7.24231 54.0044 6.5496 54.4578 6.50977 55.1956C6.50977 55.1956 7.18982 55.2173 7.24231 54.0044Z" fill="#F05A28"/>
<path d="M9.21109 50.6624C9.21109 50.6624 8.9354 50.6106 8.5907 50.5829C8.24599 50.5552 7.83208 50.5517 7.55584 50.6482C7.00299 50.8413 6.39911 52.3771 6.39911 52.3771C6.39911 52.3771 8.18432 53.0707 9.21109 50.6624Z" fill="#F58A28"/>
<path d="M8.40877 51.0479C8.40877 51.0479 7.58904 51.1646 7.23993 51.8156C7.23993 51.8156 7.84693 52.124 8.40877 51.0479Z" fill="#F05A28"/>
<path d="M12.0232 51.0012C12.0232 51.0012 11.7475 50.9495 11.4028 50.9218C11.0581 50.894 10.6442 50.8906 10.368 50.9871C9.81512 51.1802 9.21124 52.716 9.21124 52.716C9.21124 52.716 10.9963 53.4096 12.0232 51.0012Z" fill="#F58A28"/>
<path d="M11.221 51.3867C11.221 51.3867 10.4012 51.5035 10.0521 52.1545C10.0521 52.1545 10.6589 52.4629 11.221 51.3867Z" fill="#F05A28"/>
<path d="M64.9752 43.2101C64.9752 43.2101 65.2554 43.218 65.6003 43.1912C65.945 43.1644 66.3544 43.1029 66.6122 42.9643C67.1278 42.687 67.4836 41.0754 67.4836 41.0754C67.4836 41.0754 65.6117 40.6705 64.9752 43.2101Z" fill="#F58A28"/>
<path d="M65.7072 42.7032C65.7072 42.7032 66.4984 42.4594 66.7411 41.7616C66.7411 41.7616 66.0933 41.5521 65.7072 42.7032Z" fill="#F05A28"/>
<path d="M62.8895 45.3693C62.8895 45.3693 63.1401 45.4954 63.4637 45.6174C63.7873 45.7395 64.1839 45.8575 64.4761 45.8412C65.0607 45.8089 66.0666 44.5003 66.0666 44.5003C66.0666 44.5003 64.5433 43.3396 62.8895 45.3693Z" fill="#F58A28"/>
<path d="M63.7672 45.2207C63.7672 45.2207 64.5871 45.3356 65.1029 44.8067C65.1029 44.8067 64.6053 44.3425 63.7672 45.2207Z" fill="#F05A28"/>
<path d="M60.2814 44.2648C60.2814 44.2648 60.532 44.3909 60.8556 44.5129C61.1792 44.635 61.5758 44.753 61.868 44.7367C62.4526 44.7042 63.4585 43.3959 63.4585 43.3959C63.4585 43.3959 61.9352 42.2351 60.2814 44.2648Z" fill="#F58A28"/>
<path d="M61.159 44.1163C61.159 44.1163 61.9789 44.2312 62.4947 43.7022C62.4947 43.7022 61.9971 43.238 61.159 44.1163Z" fill="#F05A28"/>
<path d="M13.9743 45.2339C13.9743 45.2339 13.6964 45.271 13.3604 45.3526C13.0243 45.4343 12.6302 45.5606 12.398 45.7388C11.9335 46.0953 11.8408 47.743 11.8408 47.743C11.8408 47.743 13.753 47.8427 13.9743 45.2339Z" fill="#F58A28"/>
<path d="M13.333 45.8511C13.333 45.8511 12.5911 46.2185 12.4634 46.9463C12.4634 46.9463 13.1363 47.0491 13.333 45.8511Z" fill="#F05A28"/>
<path d="M17.2324 46.1686C17.2324 46.1686 16.9914 46.0253 16.6769 45.881C16.3627 45.7367 15.9752 45.5912 15.6825 45.587C15.097 45.5783 14.0023 46.8134 14.0023 46.8134C14.0023 46.8134 15.4407 48.0777 17.2324 46.1686Z" fill="#F58A28"/>
<path d="M16.3464 46.2552C16.3464 46.2552 15.5366 46.0832 14.985 46.575C14.985 46.575 15.449 47.0727 16.3464 46.2552Z" fill="#F05A28"/>
<path d="M70.8728 39.1789C70.8728 39.1789 70.6318 39.0355 70.3176 38.8913C70.0033 38.747 69.6159 38.6014 69.3231 38.5972C68.7376 38.5886 67.6429 39.8237 67.6429 39.8237C67.6429 39.8237 69.0812 41.088 70.8728 39.1789Z" fill="#F58A28"/>
<path d="M69.9869 39.2655C69.9869 39.2655 69.1771 39.0935 68.6255 39.5852C68.6255 39.5852 69.0895 40.083 69.9869 39.2655Z" fill="#F05A28"/>
<path d="M36.4025 6.07C36.4025 6.07 36.1615 5.92664 35.8473 5.78237C35.5331 5.6381 35.1456 5.49255 34.8528 5.48833C34.2673 5.4797 33.1726 6.71481 33.1726 6.71481C33.1726 6.71481 34.6109 7.9791 36.4025 6.07Z" fill="#F58A28"/>
<path d="M35.5165 6.15658C35.5165 6.15658 34.7067 5.98459 34.1552 6.47632C34.1552 6.47632 34.6192 6.97411 35.5165 6.15658Z" fill="#F05A28"/>
<path d="M40.1677 3.24345C40.1677 3.24345 39.8905 3.20014 39.5453 3.18307C39.1998 3.166 38.7861 3.17517 38.5128 3.28016C37.9662 3.49015 37.4095 5.04371 37.4095 5.04371C37.4095 5.04371 39.2151 5.6821 40.1677 3.24345Z" fill="#F58A28"/>
<path d="M39.3777 3.65332C39.3777 3.65332 38.562 3.79502 38.2329 4.45654C38.2329 4.45654 38.8489 4.74599 39.3777 3.65332Z" fill="#F05A28"/>
<path d="M39.6781 7.23639C39.6781 7.23639 39.4393 7.08937 39.1273 6.94033C38.8153 6.7911 38.4302 6.63986 38.1374 6.63104C37.5521 6.61361 36.4387 7.83165 36.4387 7.83165C36.4387 7.83165 37.8575 9.11778 39.6781 7.23639Z" fill="#F58A28"/>
<path d="M38.7911 7.30893C38.7911 7.30893 37.9838 7.12464 37.4249 7.60775C37.4249 7.60775 37.8812 8.11288 38.7911 7.30893Z" fill="#F05A28"/>
<path d="M73.8573 6.91559C73.8573 6.91559 73.6185 6.76857 73.3065 6.61953C72.9945 6.4703 72.6094 6.31905 72.3166 6.31024C71.7313 6.29281 70.6179 7.51084 70.6179 7.51084C70.6179 7.51084 72.0367 8.79716 73.8573 6.91559Z" fill="#F58A28"/>
<path d="M72.9703 6.98861C72.9703 6.98861 72.163 6.80433 71.6041 7.28743C71.6041 7.28743 72.0604 7.79238 72.9703 6.98861Z" fill="#F05A28"/>
<path d="M17.6707 73.4117C17.6707 73.4117 17.5345 73.1665 17.3357 72.8836C17.1367 72.6008 16.8752 72.2801 16.6245 72.129C16.1228 71.8269 14.5553 72.3431 14.5553 72.3431C14.5553 72.3431 15.1616 74.1595 17.6707 73.4117Z" fill="#F58A28"/>
<path d="M16.8615 73.0403C16.8615 73.0403 16.2482 72.4842 15.5241 72.6312C15.5241 72.6312 15.6746 73.2951 16.8615 73.0403Z" fill="#F05A28"/>
<path d="M70.0158 5.57692C70.0158 5.57692 69.7418 5.51726 69.398 5.47982C69.0542 5.44238 68.6407 5.42714 68.3617 5.5158C67.8037 5.69311 67.1561 7.21106 67.1561 7.21106C67.1561 7.21106 68.9208 7.95499 70.0158 5.57692Z" fill="#F58A28"/>
<path d="M69.2029 5.93896C69.2029 5.93896 68.3802 6.03221 68.0128 6.67316C68.0128 6.67316 68.6106 6.99878 69.2029 5.93896Z" fill="#F05A28"/>
<path d="M13.5463 69.0452C13.5463 69.0452 13.2723 68.9855 12.9285 68.9481C12.5847 68.9106 12.1711 68.8954 11.8921 68.9841C11.3341 69.1614 10.6866 70.6793 10.6866 70.6793C10.6866 70.6793 12.4512 71.4234 13.5463 69.0452Z" fill="#F58A28"/>
<path d="M12.7334 69.4082C12.7334 69.4082 11.9107 69.5014 11.5432 70.1424C11.5432 70.1424 12.141 70.4678 12.7334 69.4082Z" fill="#F05A28"/>
<path d="M39.1585 61.6856C39.1585 61.6856 38.9197 61.5386 38.6077 61.3895C38.2957 61.2403 37.9106 61.0891 37.6178 61.0803C37.0325 61.0628 35.9191 62.2809 35.9191 62.2809C35.9191 62.2809 37.3379 63.5672 39.1585 61.6856Z" fill="#F58A28"/>
<path d="M38.2714 61.7586C38.2714 61.7586 37.4642 61.5743 36.9053 62.0575C36.9053 62.0575 37.3616 62.5626 38.2714 61.7586Z" fill="#F05A28"/>
<path d="M35.926 60.6454C35.926 60.6454 35.6702 60.5305 35.3416 60.4228C35.0131 60.3152 34.6115 60.2148 34.3202 60.2438C33.7376 60.302 32.7905 61.6535 32.7905 61.6535C32.7905 61.6535 34.3633 62.746 35.926 60.6454Z" fill="#F58A28"/>
<path d="M35.0558 60.832C35.0558 60.832 34.2317 60.7534 33.7396 61.3044C33.7396 61.3044 34.2572 61.7464 35.0558 60.832Z" fill="#F05A28"/>
<path d="M29.4891 62.3754C29.4891 62.3754 29.2097 62.3506 28.8639 62.3563C28.5181 62.362 28.1059 62.3987 27.8403 62.5215C27.3087 62.7671 26.8561 64.3543 26.8561 64.3543C26.8561 64.3543 28.6998 64.8717 29.4891 62.3754Z" fill="#F58A28"/>
<path d="M28.7277 62.8364C28.7277 62.8364 27.9232 63.0319 27.6387 63.7138C27.6387 63.7138 28.2725 63.962 28.7277 62.8364Z" fill="#F05A28"/>
<path d="M54.3534 35.0688C54.3534 35.0688 54.074 35.044 53.7282 35.0497C53.3824 35.0554 52.9701 35.0921 52.7045 35.2149C52.173 35.4605 51.7203 37.0476 51.7203 37.0476C51.7203 37.0476 53.5643 37.5652 54.3534 35.0688Z" fill="#F58A28"/>
<path d="M53.5921 35.5303C53.5921 35.5303 52.7876 35.7258 52.5031 36.4076C52.5031 36.4076 53.1369 36.6556 53.5921 35.5303Z" fill="#F05A28"/>
<path d="M61.8117 19.859C61.8117 19.859 57.7366 23.9819 59.8964 26.0837C62.0562 28.1855 64.3389 24.3756 64.5255 24.473C64.7122 24.5703 64.527 25.0663 64.2801 25.4354C64.0332 25.8045 62.614 27.4087 60.3925 27.0077C58.171 26.6066 58.6967 22.9778 59.9149 21.4291C61.133 19.8803 62.4476 19.1385 61.8117 19.859Z" fill="#F4EED6"/>
<path d="M69.6374 19.9928C69.6374 19.9928 73.4075 17.8572 75.2498 20.608C77.2441 23.5857 71.1436 28.9843 71.9459 29.0473C72.7482 29.1102 74.225 27.0714 75.4785 28.4144C77.1273 30.1809 73.3622 33.0602 72.6628 32.3328C72.3629 32.021 76.8948 30.744 75.3186 28.7694C74.0949 27.2366 72.6865 29.4832 71.8503 29.3424C70.0348 29.037 75.4743 24.2128 75.0562 21.7546C74.5485 18.769 70.2932 19.4854 69.6133 20.5963C69.6133 20.5963 69.2997 20.2292 69.6374 19.9928Z" fill="#F4EED6"/>
<path d="M65.577 10.1465C65.577 10.1465 67.9806 9.32306 68.5895 11.4688C69.1983 13.6145 67.6967 16.4426 67.5748 16.3991C67.4531 16.3556 68.998 12.8713 68.2242 11.2826C67.4503 9.69402 64.116 10.9174 65.577 10.1465Z" fill="#F4EED6"/>
<path d="M9.35534 28.9095C9.35534 28.9095 9.3012 27.0505 10.8155 26.3275C12.3298 25.6045 10.9385 27.2346 10.9385 27.2346C10.9385 27.2346 12.5904 25.8397 13.1411 26.1262C13.6917 26.4127 12.4069 27.1658 12.4069 27.1658C12.4069 27.1658 14.2829 26.5359 14.6871 27.0918C15.0913 27.6476 12.5216 28.2212 12.5216 28.2212C12.5216 28.2212 13.7556 28.6113 13.5394 28.8407C13.1871 29.2142 11.2826 28.8178 11.2826 28.8178C11.2826 28.8178 12.2004 29.1638 11.8333 29.5758C11.4662 29.9879 9.35534 28.9095 9.35534 28.9095Z" fill="#F58A28"/>
<path d="M8.94231 29.4211C8.94231 29.4211 10.8624 28.3405 12.4068 27.6016C12.4068 27.6016 10.273 27.6016 8.64404 29.0241C8.64404 29.0241 8.8342 29.4897 8.94231 29.4211Z" fill="#400A35"/>
<path d="M50.2143 21.7549C50.2143 21.7549 51.5404 23.0588 50.9485 24.6289C50.3565 26.199 50.2317 24.0595 50.2317 24.0595C50.2317 24.0595 50.0056 26.2098 49.4098 26.3844C48.814 26.5588 49.2198 25.126 49.2198 25.126C49.2198 25.126 48.3023 26.8794 47.6257 26.7581C46.9493 26.6368 48.4063 24.4437 48.4063 24.4437C48.4063 24.4437 47.2457 25.0167 47.243 24.7014C47.2386 24.188 48.8872 23.1556 48.8872 23.1556C48.8872 23.1556 47.9854 23.5412 47.9651 22.9898C47.9445 22.4382 50.2143 21.7549 50.2143 21.7549Z" fill="#F58A28"/>
<path d="M50.158 21.0997C50.158 21.0997 49.5207 23.2089 48.9179 24.8113C48.9179 24.8113 50.4575 23.3339 50.648 21.1798C50.648 21.1798 50.1884 20.9753 50.158 21.0997Z" fill="#400A35"/>
<path d="M23.9147 71.4546C23.9147 71.4546 22.9083 73.0186 21.2505 72.7587C19.5927 72.4988 21.662 71.941 21.662 71.941C21.662 71.941 19.5106 72.1576 19.2186 71.6098C18.9266 71.0621 20.4121 71.1675 20.4121 71.1675C20.4121 71.1675 18.5085 70.6262 18.4894 69.9394C18.4703 69.2523 20.9141 70.2321 20.9141 70.2321C20.9141 70.2321 20.1167 69.2127 20.4249 69.1457C20.9265 69.0367 22.2732 70.4406 22.2732 70.4406C22.2732 70.4406 21.712 69.6363 22.2477 69.504C22.7833 69.3716 23.9147 71.4546 23.9147 71.4546Z" fill="#F58A28"/>
<path d="M24.5446 71.2662C24.5446 71.2662 22.3499 71.0719 20.6583 70.8081C20.6583 70.8081 22.4182 72.0146 24.5663 71.7624C24.5663 71.7624 24.6727 71.2708 24.5446 71.2662Z" fill="#400A35"/>
<path d="M62.9073 25.2431C62.9073 25.2431 61.6847 26.5138 60.6225 25.666C59.5603 24.8182 60.4068 23.3816 60.6225 23.0949C60.8381 22.8082 60.0138 24.8077 60.9294 25.3514C61.8449 25.8951 63.4014 24.2006 62.9073 25.2431Z" fill="#F4EED6"/>
<path d="M72.8329 20.3059C72.8329 20.3059 74.3999 20.1225 74.1178 22.0649C73.8357 24.0074 72.5985 25.2333 72.3485 25.0554C72.0987 24.8774 74.4195 22.8057 73.8425 21.2993C73.4601 20.3013 71.7929 20.4436 72.8329 20.3059Z" fill="#F4EED6"/>
<path d="M58.0642 8.19476C58.0642 8.19476 59.7244 6.72048 60.3929 8.09454C61.2324 9.82028 55.5512 14.0283 57.736 14.6878C59.6603 15.2688 63.4741 7.56922 67.5906 9.0947C72.3636 10.8636 69.3334 18.3961 67.249 20.9129C65.6013 22.9024 69.8978 16.7548 69.4733 12.6776C69.0487 8.60022 65.6545 8.92822 63.7179 10.3388C62.2515 11.4067 58.5009 16.3991 57.0837 14.6717C55.6261 12.8953 60.3876 9.32799 60.0988 8.19512C59.8099 7.06189 57.4006 9.65251 58.0642 8.19476Z" fill="#F4EED6"/>
<path d="M21.328 57.4587L18.489 23.0672L20.1009 22.6323L22.6903 57.8223L21.328 57.4587Z" fill="#400A35"/>
<path d="M19.0029 48.9083L23.3995 48.458L22.599 52.615C22.599 52.615 25.3235 54.5489 25.6469 58.2579C25.9703 61.9671 22.4748 63.098 23.7262 66.4037C23.7262 66.4037 18.0057 65.0526 17.3401 60.6767C16.5835 55.7031 20.9139 52.9533 20.9139 52.9533L19.0029 48.9083Z" fill="#F4EED6"/>
<path opacity="0.2" d="M20.5222 50.1802L21.3812 52.62L22.4059 52.4082L22.5746 49.7085L22.0148 52.2918L21.3984 49.8931L21.5873 52.265L20.5222 50.1802Z" fill="#DB6362"/>
<path d="M20.3755 52.5268L23.0434 52.1724L23.32 52.9866L20.321 53.4001L20.3755 52.5268Z" fill="#400A35"/>
<path d="M8.08588 35.2347L6.21991 33.4078L7.23145 32.7173L8.44692 34.4959L8.08588 35.2347Z" fill="#FBE4D3"/>
<path d="M9.22576 43.7621C9.22576 43.7621 11.7136 44.5291 15.5729 40.3128C18.6242 36.9792 15.799 32.5213 12.3055 31.9525C8.6729 31.3611 8.19439 34.9842 8.19439 34.9842C8.19439 34.9842 5.75483 35.0251 5.27594 37.0552C4.79706 39.085 5.54797 42.5145 9.22576 43.7621Z" fill="#F05A28"/>
<path d="M11.2951 38.4505L10.6282 36.9058L11.957 37.8956L11.2951 38.4505Z" fill="#400A35"/>
<path d="M10.2309 38.4546C10.2309 38.4546 11.8181 39.8837 12.3643 39.1264C12.9105 38.3691 12.0598 37.1108 12.0598 37.1108C12.0598 37.1108 13.9041 38.2751 12.8285 39.506C11.725 40.769 10.2316 39.176 10.2309 38.4546Z" fill="#400A35"/>
<path d="M7.56149 34.7213L6.99615 36.0116L7.6685 35.253L8.23016 36.0067L8.37755 34.9929L9.69269 34.6776L8.64443 34.3832L9.66681 33.7734L7.99962 34.1703L8.05267 34.7558L7.56149 34.7213Z" fill="#FBE4D3"/>
<path d="M10.1488 42.5337C10.1488 42.5337 11.4212 43.1616 12.5689 42.6216C12.5689 42.6216 11.0655 43.923 10.1488 42.5337Z" fill="#FAB217"/>
<path d="M12.4454 40.6079C12.4454 40.6079 13.0984 41.6943 14.2976 41.4326C14.2976 41.4326 12.7062 42.5231 12.4454 40.6079Z" fill="#FAB217"/>
<path d="M14.4523 38.8809C14.4523 38.8809 15.4674 40.1132 14.9598 40.9043C14.9598 40.9043 16.0487 39.6681 14.4523 38.8809Z" fill="#FAB217"/>
<path d="M15.5922 37.3052C15.5922 37.3052 17.0016 38.2921 15.9962 39.6788C15.9962 39.6788 16.4271 38.4863 15.5922 37.3052Z" fill="#FAB217"/>
<path d="M9.59576 33.0863C9.59576 33.0863 11.9911 31.322 13.434 33.5817C13.434 33.5817 11.9503 32.0043 9.59576 33.0863Z" fill="#FAB217"/>
<path d="M6.41909 36.2026C6.41909 36.2026 5.43784 38.069 6.08375 39.376C6.08375 39.376 4.74622 37.8333 6.41909 36.2026Z" fill="#FAB217"/>
<path d="M9.73218 34.1496C9.73218 34.1496 10.9342 34.2006 11.1486 34.3565C11.1486 34.3565 10.7949 33.6691 9.73218 34.1496Z" fill="#FAB217"/>
<path d="M9.23212 35.189C9.23212 35.189 10.4461 35.9905 10.5684 36.2772C10.5684 36.2772 10.6432 35.3822 9.23212 35.189Z" fill="#FAB217"/>
<path d="M8.23011 36.0068C8.23011 36.0068 8.51535 37.4334 8.73487 37.6547C8.73487 37.6547 7.87751 37.3868 8.23011 36.0068Z" fill="#FAB217"/>
<path d="M12.4595 36.7017C12.4595 36.7017 11.8044 34.8266 12.4595 34.6199C13.1146 34.4132 14.0711 35.4998 14.0711 35.4998L12.9011 35.4868L12.4595 36.7017Z" fill="#400A35"/>
<path d="M8.33019 40.28C8.33019 40.28 7.56313 38.4478 8.20464 38.2021C8.84596 37.9563 9.86632 38.9831 9.86632 38.9831L8.69784 39.0407L8.33019 40.28Z" fill="#400A35"/>
<path d="M62.1045 30.4964L62.6032 27.9331L63.7362 28.3977L62.92 30.3914L62.1045 30.4964Z" fill="#FBE4D3"/>
<path d="M55.6116 36.1406C55.6116 36.1406 56.3401 38.64 61.9843 39.5425C66.4469 40.2559 68.6146 35.444 67.1672 32.2139C65.6621 28.8551 62.3736 30.4492 62.3736 30.4492C62.3736 30.4492 60.9969 28.4348 59.0385 29.1519C57.08 29.869 54.6296 32.3829 55.6116 36.1406Z" fill="#F05A28"/>
<path d="M61.1855 34.9453L62.1086 33.5386L62.0129 35.1927L61.1855 34.9453Z" fill="#400A35"/>
<path d="M60.5963 34.0591C60.5963 34.0591 60.2764 36.1708 61.2094 36.2101C62.1423 36.2496 62.7247 34.8467 62.7247 34.8467C62.7247 34.8467 62.7673 37.0273 61.1477 36.8065C59.4858 36.5801 59.9943 34.4567 60.5963 34.0591Z" fill="#400A35"/>
<path d="M62.2447 29.7759L60.8561 30.0138L61.8596 30.1577L61.5393 31.0415L62.467 30.6068L63.4539 31.5315L63.123 30.4941L64.1946 31.0121L62.9459 29.8385L62.4862 30.205L62.2447 29.7759Z" fill="#FBE4D3"/>
<path d="M57.145 36.2354C57.145 36.2354 57.3208 37.6432 58.4032 38.3045C58.4032 38.3045 56.4895 37.7651 57.145 36.2354Z" fill="#FAB217"/>
<path d="M60.0168 37.0933C60.0168 37.0933 59.4689 38.2364 60.3474 39.0936C60.3474 39.0936 58.5611 38.3649 60.0168 37.0933Z" fill="#FAB217"/>
<path d="M62.5632 37.8188C62.5632 37.8188 62.0927 39.3445 61.1528 39.3561C61.1528 39.3561 62.7842 39.5851 62.5632 37.8188Z" fill="#FAB217"/>
<path d="M64.5061 37.9033C64.5061 37.9033 64.4576 39.6234 62.7464 39.5468C62.7464 39.5468 63.9795 39.2504 64.5061 37.9033Z" fill="#FAB217"/>
<path d="M64.7294 30.5747C64.7294 30.5747 67.5207 31.6041 66.4278 34.0522C66.4278 34.0522 66.9285 31.9453 64.7294 30.5747Z" fill="#FAB217"/>
<path d="M60.3792 29.6375C60.3792 29.6375 58.2808 29.8451 57.545 31.1037C57.545 31.1037 58.0971 29.1379 60.3792 29.6375Z" fill="#FAB217"/>
<path d="M63.9165 31.2739C63.9165 31.2739 64.5353 32.3057 64.5233 32.5705C64.5233 32.5705 64.9025 31.8969 63.9165 31.2739Z" fill="#FAB217"/>
<path d="M62.7739 31.4282C62.7739 31.4282 62.7726 32.8829 62.6005 33.1429C62.6005 33.1429 63.389 32.7129 62.7739 31.4282Z" fill="#FAB217"/>
<path d="M61.5393 31.0415C61.5393 31.0415 60.5052 32.0646 60.4412 32.3697C60.4412 32.3697 60.193 31.5064 61.5393 31.0415Z" fill="#FAB217"/>
<path d="M63.2864 34.9556C63.2864 34.9556 64.4917 33.3769 65.0246 33.8101C65.5574 34.2433 65.1766 35.6399 65.1766 35.6399L64.5437 34.6559L63.2864 34.9556Z" fill="#400A35"/>
<path d="M58.0262 33.4765C58.0262 33.4765 59.1341 31.8279 59.6923 32.2282C60.2504 32.6285 59.9544 34.0455 59.9544 34.0455L59.2633 33.1015L58.0262 33.4765Z" fill="#400A35"/>
<path d="M51.9068 53.0755L64.1132 51.1011L62.8855 52.5454C62.8855 52.5454 70.9251 63.4712 60.1462 65.0248C47.4733 66.8513 53.6795 53.9964 53.6795 53.9964L51.9068 53.0755Z" fill="#400A35"/>
<path d="M54.3642 53.2731L62.0647 52.0391C62.0647 52.0391 58.5106 54.9267 54.3642 53.2731Z" fill="#F05A28"/>
<path d="M61.7815 58.0642C61.7815 58.0642 60.7422 54.5191 57.9541 55.3737C55.166 56.2283 55.6311 59.4569 56.1898 60.3115C56.7487 61.1661 58.0464 60.4382 58.1731 60.6913C58.2997 60.9444 58.0404 61.3244 58.4201 61.7359C58.7999 62.1474 60.7839 61.7074 60.9739 61.0428C61.1638 60.3782 59.9456 60.3433 60.6736 59.8684C61.4017 59.3936 62.3512 59.2989 61.7815 58.0642Z" fill="#F4EED6"/>
<path d="M59.6317 59.5059C59.6317 59.5059 59.695 60.4554 59.3468 60.5504C58.9986 60.6453 58.5897 59.8541 58.5897 59.8541C58.5897 59.8541 58.4524 60.8805 59.2437 61.0161C60.035 61.1518 60.3597 60.1387 59.6317 59.5059Z" fill="#400A35"/>
<path d="M58.8841 59.8076C58.8841 59.8076 59.4639 59.7127 59.4382 59.6176C59.4125 59.5227 59.0522 58.7081 58.8841 58.8621C58.716 59.0161 58.7284 59.8371 58.8841 59.8076Z" fill="#400A35"/>
<path d="M58.3977 59.162C58.3977 59.162 58.4201 57.6879 57.2265 57.9946C56.453 58.1934 56.2785 59.7514 57.2265 59.9746C58.1747 60.1978 58.5158 59.4036 58.3977 59.162Z" fill="#400A35"/>
<path d="M59.1629 58.3692C59.1629 58.3692 59.9169 59.6361 60.7723 58.7488C61.3266 58.1739 60.6581 56.7558 59.7337 57.0631C58.8096 57.3705 59.0278 58.0421 59.1629 58.3692Z" fill="#400A35"/>
<path d="M59.3506 52.9623C59.8646 52.9623 60.2812 52.5456 60.2812 52.0317C60.2812 51.5177 59.8646 51.1011 59.3506 51.1011C58.8367 51.1011 58.42 51.5177 58.42 52.0317C58.42 52.5456 58.8367 52.9623 59.3506 52.9623Z" fill="#F05A28"/>
<path d="M57.063 52.0313C57.4853 52.0313 57.8276 51.6889 57.8276 51.2666C57.8276 50.8443 57.4853 50.502 57.063 50.502C56.6406 50.502 56.2983 50.8443 56.2983 51.2666C56.2983 51.6889 56.6406 52.0313 57.063 52.0313Z" fill="#F05A28"/>
<path d="M58.562 50.1325C58.9674 50.1325 59.2962 49.8037 59.2962 49.3983C59.2962 48.9928 58.9674 48.6641 58.562 48.6641C58.1565 48.6641 57.8278 48.9928 57.8278 49.3983C57.8278 49.8037 58.1565 50.1325 58.562 50.1325Z" fill="#F05A28"/>
<path d="M55.4787 52.0317C55.7357 52.0317 55.944 51.8233 55.944 51.5664C55.944 51.3094 55.7357 51.1011 55.4787 51.1011C55.2217 51.1011 55.0134 51.3094 55.0134 51.5664C55.0134 51.8233 55.2217 52.0317 55.4787 52.0317Z" fill="#F05A28"/>
<path d="M59.3507 51.2666C59.3507 51.2666 59.7398 51.3253 59.9386 51.769C60.1374 52.2126 59.3634 51.5619 59.0392 51.566C58.7151 51.5702 59.0077 51.269 59.3507 51.2666Z" fill="#F4EED6"/>
<path d="M57.0557 50.7354C57.0557 50.7354 57.3136 50.7743 57.4454 51.0683C57.5772 51.3624 57.0641 50.931 56.8492 50.9338C56.6343 50.9365 56.8281 50.7368 57.0557 50.7354Z" fill="#F4EED6"/>
<path d="M58.5063 48.8545C58.5063 48.8545 58.7642 48.8934 58.896 49.1875C59.0278 49.4815 58.5148 49.0502 58.2998 49.0529C58.0849 49.0557 58.2787 48.856 58.5063 48.8545Z" fill="#F4EED6"/>
<path d="M11.7606 23.761C12.0985 23.761 12.3725 23.487 12.3725 23.1491C12.3725 22.8111 12.0985 22.5371 11.7606 22.5371C11.4226 22.5371 11.1486 22.8111 11.1486 23.1491C11.1486 23.487 11.4226 23.761 11.7606 23.761Z" fill="#F58A28"/>
<path d="M17.2324 31.7781C17.5704 31.7781 17.8443 31.5041 17.8443 31.1662C17.8443 30.8282 17.5704 30.5542 17.2324 30.5542C16.8944 30.5542 16.6204 30.8282 16.6204 31.1662C16.6204 31.5041 16.8944 31.7781 17.2324 31.7781Z" fill="#F58A28"/>
<path d="M49.7829 36.889C50.1209 36.889 50.3949 36.615 50.3949 36.277C50.3949 35.939 50.1209 35.665 49.7829 35.665C49.4449 35.665 49.171 35.939 49.171 36.277C49.171 36.615 49.4449 36.889 49.7829 36.889Z" fill="#F58A28"/>
<path d="M41.6167 14.7576C41.9546 14.7576 42.2286 14.4836 42.2286 14.1456C42.2286 13.8077 41.9546 13.5337 41.6167 13.5337C41.2787 13.5337 41.0047 13.8077 41.0047 14.1456C41.0047 14.4836 41.2787 14.7576 41.6167 14.7576Z" fill="#F58A28"/>
<path d="M68.585 53.9265C68.923 53.9265 69.197 53.6526 69.197 53.3146C69.197 52.9766 68.923 52.7026 68.585 52.7026C68.2471 52.7026 67.9731 52.9766 67.9731 53.3146C67.9731 53.6526 68.2471 53.9265 68.585 53.9265Z" fill="#F58A28"/>
<path d="M6.07582 46.6762C6.30219 46.6762 6.48569 46.4927 6.48569 46.2663C6.48569 46.0399 6.30219 45.8564 6.07582 45.8564C5.84946 45.8564 5.66595 46.0399 5.66595 46.2663C5.66595 46.4927 5.84946 46.6762 6.07582 46.6762Z" fill="#F58A28"/>
<path d="M49.3979 39.1493C49.6243 39.1493 49.8078 38.9658 49.8078 38.7395C49.8078 38.5131 49.6243 38.3296 49.3979 38.3296C49.1715 38.3296 48.988 38.5131 48.988 38.7395C48.988 38.9658 49.1715 39.1493 49.3979 39.1493Z" fill="#F58A28"/>
<path d="M32.8261 50.5424C33.0524 50.5424 33.2359 50.3589 33.2359 50.1325C33.2359 49.9062 33.0524 49.7227 32.8261 49.7227C32.5997 49.7227 32.4162 49.9062 32.4162 50.1325C32.4162 50.3589 32.5997 50.5424 32.8261 50.5424Z" fill="#F58A28"/>
<path d="M28.0877 45.8579C28.0877 45.8579 27.6536 44.7651 28.4625 44.3925C29.0589 44.1177 29.6688 44.5991 29.6688 44.5991L30.1352 43.5801L30.8736 44.8161H29.8632C29.8632 44.8161 30.3059 45.8976 29.451 46.301C28.5958 46.7045 28.207 46.0795 28.207 46.0795L27.9174 47.2724L26.946 46.0624L28.0877 45.8579Z" fill="#F58A28"/>
<path d="M27.4401 46.182L28.1473 45.9434L27.8236 46.7642L27.9003 46.2671L27.6007 46.5397L27.7127 46.233L27.4401 46.182Z" fill="#F05A28"/>
<path d="M29.9876 44.2222L29.7248 44.7249L30.4394 44.6056L29.9963 44.5715L30.1411 44.4011L29.9451 44.4735L29.9876 44.2222Z" fill="#DB6362"/>
<path d="M28.9418 44.3115C28.9418 44.3115 28.6755 44.6074 28.6435 45.161C28.5923 46.0475 29.2204 46.389 29.2204 46.389C29.2204 46.389 29.3218 46.3611 29.4089 46.3196C29.4089 46.3196 29.0108 45.893 28.9493 45.3501C28.888 44.8071 29.3546 44.4191 29.3546 44.4191C29.3546 44.4191 29.1268 44.3102 28.9418 44.3115Z" fill="#F4EED6"/>
<path d="M29.5126 44.498C29.5126 44.498 29.2475 44.7504 29.2859 45.3949C29.3241 46.0395 29.6803 46.152 29.6803 46.152C29.6803 46.152 29.7073 46.1379 29.7569 46.0762C29.7569 46.0762 29.1941 45.2686 29.669 44.5994C29.669 44.5994 29.571 44.5296 29.5126 44.498Z" fill="#F4EED6"/>
<path d="M29.9181 44.9878C29.9181 44.9878 29.7762 45.3984 29.8676 45.9147C29.8676 45.9147 30.1073 45.5069 29.9181 44.9878Z" fill="#F4EED6"/>
<path d="M28.5581 44.355C28.5581 44.355 28.3604 44.7399 28.3604 45.3948C28.3604 46.0495 28.8507 46.4346 28.8507 46.4346C28.8507 46.4346 28.5324 46.3757 28.427 46.2933C28.427 46.2933 27.959 45.6037 28.091 44.7248C28.091 44.7248 28.2205 44.4739 28.5581 44.355Z" fill="#F4EED6"/>
<path d="M45.4576 15.464C45.4576 15.464 46.2584 14.6029 46.9422 15.1736C47.4464 15.5943 47.2731 16.3518 47.2731 16.3518L48.3937 16.3356L47.5943 17.5331L47.1606 16.6203C47.1606 16.6203 46.3739 17.4845 45.6425 16.8854C44.911 16.2863 45.3086 15.6668 45.3086 15.6668L44.1069 15.9171L44.7827 14.5205L45.4576 15.464Z" fill="#F58A28"/>
<path d="M44.8873 15.0181L45.4064 15.5544L44.5259 15.6142L45.0079 15.4703L44.6331 15.3169L44.9581 15.2862L44.8873 15.0181Z" fill="#F05A28"/>
<path d="M47.7507 16.4777L47.1839 16.4561L47.5982 17.0502L47.4388 16.6354L47.6549 16.693L47.5055 16.5471L47.7507 16.4777Z" fill="#DB6362"/>
<path d="M47.2208 15.5719C47.2208 15.5719 46.8392 15.4582 46.3255 15.6671C45.5028 16.0014 45.4639 16.7152 45.4639 16.7152C45.4639 16.7152 45.5325 16.7947 45.6076 16.8558C45.6076 16.8558 45.822 16.313 46.286 16.0245C46.7502 15.736 47.3008 15.9911 47.3008 15.9911C47.3008 15.9911 47.3014 15.7383 47.2208 15.5719Z" fill="#F4EED6"/>
<path d="M47.2977 16.167C47.2977 16.167 46.9561 16.036 46.3902 16.3471C45.8245 16.6582 45.8757 17.0283 45.8757 17.0283C45.8757 17.0283 45.8999 17.0466 45.977 17.0648C45.977 17.0648 46.4651 16.2098 47.2733 16.3515C47.2733 16.3515 47.2942 16.2333 47.2977 16.167Z" fill="#F4EED6"/>
<path d="M47.0294 16.7437C47.0294 16.7437 46.5975 16.7917 46.1703 17.0959C46.1703 17.0959 46.6419 17.1376 47.0294 16.7437Z" fill="#F4EED6"/>
<path d="M47.017 15.2436C47.017 15.2436 46.5846 15.2302 45.993 15.5112C45.4014 15.7922 45.2643 16.4001 45.2643 16.4001C45.2643 16.4001 45.1808 16.0873 45.2102 15.9568C45.2102 15.9568 45.6322 15.2381 46.4825 14.98C46.4825 14.98 46.7647 14.9897 47.017 15.2436Z" fill="#F4EED6"/>
<path d="M51.0273 65.8409C51.0273 65.8409 51.8281 64.9799 52.5118 65.5505C53.016 65.9712 52.8428 66.7287 52.8428 66.7287L53.9633 66.7126L53.164 67.9101L52.7302 66.9973C52.7302 66.9973 51.9435 67.8614 51.2121 67.2623C50.4806 66.6632 50.8782 66.0437 50.8782 66.0437L49.6765 66.2941L50.3523 64.8975L51.0273 65.8409Z" fill="#F58A28"/>
<path d="M50.457 65.3945L50.9761 65.9309L50.0956 65.9909L50.5776 65.8468L50.2028 65.6933L50.5278 65.6627L50.457 65.3945Z" fill="#F05A28"/>
<path d="M53.3203 66.8547L52.7535 66.833L53.1678 67.4272L53.0085 67.0123L53.2245 67.07L53.0751 66.924L53.3203 66.8547Z" fill="#DB6362"/>
<path d="M52.7904 65.9483C52.7904 65.9483 52.4088 65.8347 51.8951 66.0436C51.0724 66.3778 51.0335 67.0917 51.0335 67.0917C51.0335 67.0917 51.1022 67.1711 51.1772 67.2323C51.1772 67.2323 51.3916 66.6895 51.8556 66.401C52.3196 66.1124 52.8705 66.3676 52.8705 66.3676C52.8705 66.3676 52.871 66.1148 52.7904 65.9483Z" fill="#F4EED6"/>
<path d="M52.8673 66.544C52.8673 66.544 52.5257 66.4129 51.9599 66.7241C51.394 67.0352 51.4454 67.4052 51.4454 67.4052C51.4454 67.4052 51.4696 67.4236 51.5467 67.4417C51.5467 67.4417 52.0347 66.5868 52.8429 66.7285C52.8429 66.7285 52.8638 66.6103 52.8673 66.544Z" fill="#F4EED6"/>
<path d="M52.599 67.1206C52.599 67.1206 52.1671 67.1687 51.74 67.4728C51.74 67.4728 52.2115 67.5145 52.599 67.1206Z" fill="#F4EED6"/>
<path d="M52.5867 65.6205C52.5867 65.6205 52.1542 65.6071 51.5627 65.8881C50.9713 66.1691 50.834 66.7771 50.834 66.7771C50.834 66.7771 50.7505 66.4643 50.7798 66.3338C50.7798 66.3338 51.2018 65.615 52.0522 65.3569C52.0522 65.3569 52.3343 65.3667 52.5867 65.6205Z" fill="#F4EED6"/>
<path d="M1.35056 40.4889C1.35056 40.4889 2.15139 39.6278 2.83511 40.1985C3.33932 40.6192 3.16605 41.3767 3.16605 41.3767L4.28681 41.3605L3.48745 42.558L3.05372 41.6452C3.05372 41.6452 2.26703 42.5094 1.53558 41.9103C0.804132 41.3112 1.2017 40.6917 1.2017 40.6917L0 40.942L0.675831 39.5454L1.35056 40.4889Z" fill="#F58A28"/>
<path d="M0.78005 40.043L1.29913 40.5793L0.418823 40.6391L0.900642 40.4951L0.525833 40.3418L0.8509 40.3111L0.78005 40.043Z" fill="#F05A28"/>
<path d="M3.64358 41.5026L3.0766 41.481L3.49105 42.0751L3.33155 41.6603L3.54777 41.7179L3.39818 41.572L3.64358 41.5026Z" fill="#DB6362"/>
<path d="M3.11351 40.5968C3.11351 40.5968 2.73191 40.4831 2.21815 40.692C1.39548 41.0263 1.35657 41.7401 1.35657 41.7401C1.35657 41.7401 1.42522 41.8196 1.50029 41.8807C1.50029 41.8807 1.71467 41.3379 2.17869 41.0494C2.6427 40.7609 3.19354 41.016 3.19354 41.016C3.19354 41.016 3.19409 40.7632 3.11351 40.5968Z" fill="#F4EED6"/>
<path d="M3.19044 41.192C3.19044 41.192 2.84885 41.0609 2.28297 41.372C1.71727 41.6831 1.76848 42.0532 1.76848 42.0532C1.76848 42.0532 1.79271 42.0715 1.8698 42.0897C1.8698 42.0897 2.35786 41.2347 3.16603 41.3764C3.16603 41.3764 3.18713 41.2582 3.19044 41.192Z" fill="#F4EED6"/>
<path d="M2.92206 41.7686C2.92206 41.7686 2.49017 41.8166 2.06305 42.1208C2.06305 42.1208 2.53459 42.1625 2.92206 41.7686Z" fill="#F4EED6"/>
<path d="M2.90974 40.2685C2.90974 40.2685 2.4773 40.2551 1.88572 40.5361C1.29432 40.8171 1.15703 41.425 1.15703 41.425C1.15703 41.425 1.07351 41.1122 1.10288 40.9817C1.10288 40.9817 1.52486 40.263 2.37525 40.0049C2.37525 40.0049 2.65736 40.0146 2.90974 40.2685Z" fill="#F4EED6"/>
<path d="M73.0057 43.0699C73.0057 43.0699 73.8065 42.2089 74.4903 42.7795C74.9945 43.2002 74.8212 43.9577 74.8212 43.9577L75.942 43.9416L75.1426 45.1391L74.7089 44.2263C74.7089 44.2263 73.9222 45.0904 73.1907 44.4913C72.4593 43.8922 72.8569 43.2727 72.8569 43.2727L71.6552 43.5231L72.331 42.1265L73.0057 43.0699Z" fill="#F58A28"/>
<path d="M72.4354 42.624L72.9545 43.1604L72.074 43.2202L72.556 43.0761L72.1812 42.9227L72.5062 42.8922L72.4354 42.624Z" fill="#F05A28"/>
<path d="M75.2988 44.0842L74.732 44.0625L75.1463 44.6565L74.9869 44.2416L75.203 44.2995L75.0536 44.1535L75.2988 44.0842Z" fill="#DB6362"/>
<path d="M74.7689 43.1778C74.7689 43.1778 74.3873 43.0642 73.8735 43.2729C73.0509 43.6072 73.012 44.321 73.012 44.321C73.012 44.321 73.0806 44.4007 73.1557 44.4616C73.1557 44.4616 73.3701 43.9188 73.8341 43.6303C74.2981 43.3418 74.8489 43.5969 74.8489 43.5969C74.8489 43.5969 74.8495 43.3445 74.7689 43.1778Z" fill="#F4EED6"/>
<path d="M74.8458 43.7735C74.8458 43.7735 74.5042 43.6424 73.9383 43.9536C73.3726 44.2647 73.4238 44.6347 73.4238 44.6347C73.4238 44.6347 73.448 44.6531 73.5251 44.6712C73.5251 44.6712 74.0132 43.8163 74.8214 43.958C74.8214 43.958 74.8423 43.8398 74.8458 43.7735Z" fill="#F4EED6"/>
<path d="M74.5775 44.3496C74.5775 44.3496 74.1456 44.3977 73.7184 44.7018C73.7184 44.7018 74.19 44.7433 74.5775 44.3496Z" fill="#F4EED6"/>
<path d="M74.5651 42.85C74.5651 42.85 74.1327 42.8366 73.5411 43.1176C72.9497 43.3986 72.8124 44.0066 72.8124 44.0066C72.8124 44.0066 72.7289 43.6938 72.7583 43.5633C72.7583 43.5633 73.1803 42.8445 74.0306 42.5864C74.0306 42.5864 74.3128 42.5962 74.5651 42.85Z" fill="#F4EED6"/>
<path d="M26.5079 34.1638C26.5079 34.1638 26.1573 31.1444 26.5079 31.0675C26.8584 30.9908 28.3487 33.0517 28.4291 33.1594C28.7402 33.5755 26.5956 34.5832 26.5079 34.1638Z" fill="#FAB217"/>
<path d="M26.3726 32.5693L27.5516 32.0221C27.5516 32.0221 26.7544 30.9717 26.4916 30.9825C26.2287 30.9933 26.3726 32.5693 26.3726 32.5693Z" fill="#F4EED6"/>
<path d="M26.442 33.5124C26.442 33.5124 27.928 32.7637 28.0886 32.7028C28.0886 32.7028 27.6668 32.1582 27.5516 32.022C27.5516 32.022 26.5575 32.4307 26.3726 32.5691C26.3726 32.5691 26.4119 33.1976 26.442 33.5124Z" fill="#F05A28"/>
<path d="M15.0863 54.8552C15.0863 54.8552 14.7357 51.8358 15.0863 51.7589C15.4369 51.6822 16.9271 53.7431 17.0075 53.8508C17.3186 54.2671 15.174 55.2748 15.0863 54.8552Z" fill="#FAB217"/>
<path d="M14.951 53.2607L16.1299 52.7135C16.1299 52.7135 15.3328 51.6631 15.0699 51.6739C14.8071 51.6847 14.951 53.2607 14.951 53.2607Z" fill="#F4EED6"/>
<path d="M15.0204 54.2043C15.0204 54.2043 16.5064 53.4556 16.667 53.3947C16.667 53.3947 16.2452 52.8501 16.1299 52.7139C16.1299 52.7139 15.1358 53.1226 14.951 53.261C14.951 53.261 14.9903 53.8893 15.0204 54.2043Z" fill="#F05A28"/>
<path d="M27.3721 73.7129C27.3721 73.7129 30.321 72.9754 30.4423 73.3131C30.5636 73.6509 28.7124 75.3946 28.616 75.4884C28.2436 75.8507 26.9673 73.8541 27.3721 73.7129Z" fill="#FAB217"/>
<path d="M28.9355 73.3732L29.6303 74.4717C29.6303 74.4717 30.5691 73.5455 30.5244 73.2863C30.4799 73.027 28.9355 73.3732 28.9355 73.3732Z" fill="#F4EED6"/>
<path d="M28.0092 73.5638C28.0092 73.5638 28.9434 74.9406 29.0247 75.0922C29.0247 75.0922 29.5104 74.6036 29.6305 74.4716C29.6305 74.4716 29.0967 73.5386 28.9357 73.373C28.9357 73.373 28.3175 73.4933 28.0092 73.5638Z" fill="#F05A28"/>
<path d="M55.0004 15.4561C55.0004 15.4561 51.9718 15.716 51.9056 15.3634C51.8393 15.0108 53.9441 13.5829 54.054 13.5057C54.4795 13.2072 55.4224 15.3812 55.0004 15.4561Z" fill="#FAB217"/>
<path d="M53.4026 15.5435L52.891 14.3486C52.891 14.3486 51.8171 15.114 51.82 15.3771C51.823 15.6401 53.4026 15.5435 53.4026 15.5435Z" fill="#F4EED6"/>
<path d="M54.3477 15.5023C54.3477 15.5023 53.644 13.9947 53.5876 13.832C53.5876 13.832 53.0306 14.2373 52.8911 14.3485C52.8911 14.3485 53.2699 15.3544 53.4026 15.5435C53.4026 15.5435 54.032 15.5231 54.3477 15.5023Z" fill="#F05A28"/>
<path d="M53.7671 42.0079C53.7671 42.0079 50.7386 42.2678 50.6723 41.9152C50.606 41.5626 52.7108 40.1347 52.8208 40.0575C53.246 39.7588 54.1889 41.9328 53.7671 42.0079Z" fill="#FAB217"/>
<path d="M52.1693 42.0953L51.6577 40.9004C51.6577 40.9004 50.5838 41.6658 50.5867 41.9288C50.5897 42.1919 52.1693 42.0953 52.1693 42.0953Z" fill="#F4EED6"/>
<path d="M53.1142 42.0541C53.1142 42.0541 52.4105 40.5464 52.3542 40.3838C52.3542 40.3838 51.7971 40.7891 51.6576 40.9003C51.6576 40.9003 52.0364 41.9062 52.1691 42.0952C52.1691 42.0952 52.7985 42.0746 53.1142 42.0541Z" fill="#F05A28"/>
<path d="M59.7628 19.1537C59.8907 19.1537 59.9944 19.05 59.9944 18.9221C59.9944 18.7941 59.8907 18.6904 59.7628 18.6904C59.6348 18.6904 59.5311 18.7941 59.5311 18.9221C59.5311 19.05 59.6348 19.1537 59.7628 19.1537Z" fill="#F4EED6"/>
<path d="M53.4313 21.9921C53.5593 21.9921 53.663 21.8884 53.663 21.7604C53.663 21.6325 53.5593 21.5288 53.4313 21.5288C53.3034 21.5288 53.1997 21.6325 53.1997 21.7604C53.1997 21.8884 53.3034 21.9921 53.4313 21.9921Z" fill="#F4EED6"/>
<path d="M56.3504 12.2714C56.4783 12.2714 56.582 12.1677 56.582 12.0397C56.582 11.9118 56.4783 11.8081 56.3504 11.8081C56.2224 11.8081 56.1187 11.9118 56.1187 12.0397C56.1187 12.1677 56.2224 12.2714 56.3504 12.2714Z" fill="#F4EED6"/>
<path d="M70.8801 17.9564C71.0081 17.9564 71.1118 17.8527 71.1118 17.7248C71.1118 17.5969 71.0081 17.4932 70.8801 17.4932C70.7522 17.4932 70.6485 17.5969 70.6485 17.7248C70.6485 17.8527 70.7522 17.9564 70.8801 17.9564Z" fill="#F4EED6"/>
<path d="M54.2944 4.72305C54.4224 4.72305 54.5261 4.61934 54.5261 4.49141C54.5261 4.36347 54.4224 4.25977 54.2944 4.25977C54.1665 4.25977 54.0628 4.36347 54.0628 4.49141C54.0628 4.61934 54.1665 4.72305 54.2944 4.72305Z" fill="#F4EED6"/>
<path d="M73.3265 30.0653C73.4545 30.0653 73.5582 29.9616 73.5582 29.8337C73.5582 29.7058 73.4545 29.6021 73.3265 29.6021C73.1986 29.6021 73.0949 29.7058 73.0949 29.8337C73.0949 29.9616 73.1986 30.0653 73.3265 30.0653Z" fill="#F4EED6"/>
<path d="M24.7192 34.0053C24.8472 34.0053 24.9509 33.9016 24.9509 33.7736C24.9509 33.6457 24.8472 33.542 24.7192 33.542C24.5913 33.542 24.4876 33.6457 24.4876 33.7736C24.4876 33.9016 24.5913 34.0053 24.7192 34.0053Z" fill="#F4EED6"/>
<path d="M31.1585 49.3036C31.2864 49.3036 31.3901 49.1999 31.3901 49.072C31.3901 48.944 31.2864 48.8403 31.1585 48.8403C31.0305 48.8403 30.9268 48.944 30.9268 49.072C30.9268 49.1999 31.0305 49.3036 31.1585 49.3036Z" fill="#F4EED6"/>
<path d="M9.23213 45.8314C9.36006 45.8314 9.46377 45.7277 9.46377 45.5998C9.46377 45.4719 9.36006 45.3682 9.23213 45.3682C9.1042 45.3682 9.00049 45.4719 9.00049 45.5998C9.00049 45.7277 9.1042 45.8314 9.23213 45.8314Z" fill="#F4EED6"/>
<path d="M16.3464 28.1103C16.4743 28.1103 16.578 28.0065 16.578 27.8786C16.578 27.7507 16.4743 27.647 16.3464 27.647C16.2185 27.647 16.1147 27.7507 16.1147 27.8786C16.1147 28.0065 16.2185 28.1103 16.3464 28.1103Z" fill="#F4EED6"/>
<path d="M29.6461 29.6601C29.774 29.6601 29.8777 29.5564 29.8777 29.4284C29.8777 29.3005 29.774 29.1968 29.6461 29.1968C29.5181 29.1968 29.4144 29.3005 29.4144 29.4284C29.4144 29.5564 29.5181 29.6601 29.6461 29.6601Z" fill="#F4EED6"/>
<path d="M20.6583 12.9213C20.7863 12.9213 20.89 12.8176 20.89 12.6896C20.89 12.5617 20.7863 12.458 20.6583 12.458C20.5304 12.458 20.4267 12.5617 20.4267 12.6896C20.4267 12.8176 20.5304 12.9213 20.6583 12.9213Z" fill="#F4EED6"/>
<path d="M43.2454 17.244C43.3734 17.244 43.4771 17.1403 43.4771 17.0124C43.4771 16.8845 43.3734 16.7808 43.2454 16.7808C43.1175 16.7808 43.0138 16.8845 43.0138 17.0124C43.0138 17.1403 43.1175 17.244 43.2454 17.244Z" fill="#F4EED6"/>
<path d="M41.4547 1.90566C41.5827 1.90566 41.6864 1.80195 41.6864 1.67402C41.6864 1.54609 41.5827 1.44238 41.4547 1.44238C41.3268 1.44238 41.2231 1.54609 41.2231 1.67402C41.2231 1.80195 41.3268 1.90566 41.4547 1.90566Z" fill="#F4EED6"/>
<path d="M37.5993 11.6444C37.7272 11.6444 37.8309 11.5407 37.8309 11.4128C37.8309 11.2849 37.7272 11.1812 37.5993 11.1812C37.4713 11.1812 37.3676 11.2849 37.3676 11.4128C37.3676 11.5407 37.4713 11.6444 37.5993 11.6444Z" fill="#F4EED6"/>
<path d="M57.1113 40.7973C57.2393 40.7973 57.343 40.6936 57.343 40.5656C57.343 40.4377 57.2393 40.334 57.1113 40.334C56.9834 40.334 56.8797 40.4377 56.8797 40.5656C56.8797 40.6936 56.9834 40.7973 57.1113 40.7973Z" fill="#F4EED6"/>
<path d="M51.6801 51.1361C51.8081 51.1361 51.9118 51.0324 51.9118 50.9045C51.9118 50.7766 51.8081 50.6729 51.6801 50.6729C51.5522 50.6729 51.4485 50.7766 51.4485 50.9045C51.4485 51.0324 51.5522 51.1361 51.6801 51.1361Z" fill="#F4EED6"/>
<path d="M55.7663 67.3617C55.8942 67.3617 55.9979 67.258 55.9979 67.1301C55.9979 67.0021 55.8942 66.8984 55.7663 66.8984C55.6384 66.8984 55.5347 67.0021 55.5347 67.1301C55.5347 67.258 55.6384 67.3617 55.7663 67.3617Z" fill="#F4EED6"/>
<path d="M43.7596 71.5341C43.8875 71.5341 43.9912 71.4304 43.9912 71.3024C43.9912 71.1745 43.8875 71.0708 43.7596 71.0708C43.6317 71.0708 43.528 71.1745 43.528 71.3024C43.528 71.4304 43.6317 71.5341 43.7596 71.5341Z" fill="#F4EED6"/>
<path d="M29.0253 65.9242C29.1532 65.9242 29.2569 65.8205 29.2569 65.6926C29.2569 65.5646 29.1532 65.4609 29.0253 65.4609C28.8974 65.4609 28.7936 65.5646 28.7936 65.6926C28.7936 65.8205 28.8974 65.9242 29.0253 65.9242Z" fill="#F4EED6"/>
<path d="M15.5208 59.4389C15.6487 59.4389 15.7524 59.3352 15.7524 59.2072C15.7524 59.0793 15.6487 58.9756 15.5208 58.9756C15.3928 58.9756 15.2891 59.0793 15.2891 59.2072C15.2891 59.3352 15.3928 59.4389 15.5208 59.4389Z" fill="#F4EED6"/>
<path d="M41.6166 59.2958C41.7446 59.2958 41.8483 59.1921 41.8483 59.0642C41.8483 58.9362 41.7446 58.8325 41.6166 58.8325C41.4887 58.8325 41.385 58.9362 41.385 59.0642C41.385 59.1921 41.4887 59.2958 41.6166 59.2958Z" fill="#F4EED6"/>
<path d="M72.2159 53.4926C72.3438 53.4926 72.4475 53.3889 72.4475 53.2609C72.4475 53.133 72.3438 53.0293 72.2159 53.0293C72.088 53.0293 71.9843 53.133 71.9843 53.2609C71.9843 53.3889 72.088 53.4926 72.2159 53.4926Z" fill="#F4EED6"/>
<path d="M66.741 51.684C66.8689 51.684 66.9726 51.5803 66.9726 51.4523C66.9726 51.3244 66.8689 51.2207 66.741 51.2207C66.613 51.2207 66.5093 51.3244 66.5093 51.4523C66.5093 51.5803 66.613 51.684 66.741 51.684Z" fill="#F4EED6"/>
<path d="M68.5851 59.9765C68.713 59.9765 68.8167 59.8728 68.8167 59.7448C68.8167 59.6169 68.713 59.5132 68.5851 59.5132C68.4572 59.5132 68.3535 59.6169 68.3535 59.7448C68.3535 59.8728 68.4572 59.9765 68.5851 59.9765Z" fill="#F4EED6"/>
<path d="M57.9948 17.7381L56.4 21.2696L56.755 22.3173L54.8104 27.6066L55.4338 27.7399C55.4338 27.7399 57.42 22.5482 57.3788 22.1743C57.3297 21.7279 57.0046 21.276 57.183 20.8781C58.8814 17.0931 59.0301 15.8409 57.9948 17.7381Z" fill="#400A35"/>
<path d="M51.6152 27.658C51.6152 27.658 53.3411 25.7505 54.4099 24.8027C55.4789 23.8548 57.0686 24.1248 56.9691 24.5125C56.8697 24.9001 56.5022 24.4205 56.029 24.7333C55.5558 25.0461 55.9143 26.0253 55.3282 26.1978C54.1972 26.531 53.0382 28.5897 52.6708 28.4302C52.3033 28.2707 51.6152 27.658 51.6152 27.658Z" fill="#E58483"/>
<path d="M24.2748 26.9249C24.2748 26.9249 24.9826 28.6456 28.0371 28.421C31.0917 28.1963 31.0221 25.5501 33.16 25.5574C35.2976 25.5648 35.7227 24.6782 36.5097 22.3178C37.297 19.9573 38.701 23.4046 39.595 20.615C41.146 15.7758 37.2215 13.5026 34.0957 15.2648C30.783 17.1325 33.3033 20.3573 30.9351 20.5375C25.9496 20.9169 28.0725 25.1415 25.6335 24.8854C24.0572 24.7199 23.5867 25.5211 24.2748 26.9249Z" fill="#F4EED6"/>
<path d="M34.2223 26.1414C34.2223 26.1414 39.3696 22.9924 41.2354 24.5374C43.1012 26.0825 46.3014 35.6957 39.9249 36.288C36.4671 36.6093 37.2533 34.9421 35.4059 32.1506C33.5582 29.3596 33.2699 26.8411 34.2223 26.1414Z" fill="#400A35"/>
<path d="M41.0752 41.8705C41.0752 41.8705 44.8005 48.5344 44.4962 54.2575C44.086 61.9712 40.6648 65.0369 41.3219 66.3671C41.979 67.6972 44.2532 67.4515 43.5052 67.0781C42.5618 66.6071 42.7007 65.2028 42.7007 65.2028C42.7007 65.2028 48.3157 58.5836 48.515 52.7304C48.7144 46.8772 46.1456 40.6357 46.1456 40.6357L41.0752 41.8705Z" fill="#E58483"/>
<path d="M41.0898 44.2192C41.0898 44.2192 43.7634 47.9787 42.5252 54.0085C41.287 60.0383 29.5115 56.9352 29.2516 57.5477C28.9917 58.1602 29.4555 60.4814 29.0978 59.856C28.74 59.2307 28.7913 57.3438 30.1631 56.7546C31.535 56.1654 36.776 55.4059 37.9603 53.4718C39.1886 51.4656 36.2937 45.605 36.2937 45.605L41.0898 44.2192Z" fill="#E58483"/>
<path d="M35.3211 21.6284C35.3211 21.6284 36.7342 25.7669 36.521 26.5604C36.3075 27.3539 40.9021 28.3849 39.5152 25.2543C39.1646 24.4628 38.5406 23.1961 37.8596 21.426C37.8596 21.426 35.0386 20.9476 35.3211 21.6284Z" fill="#E58483"/>
<path d="M38.3252 22.2829C38.3252 22.2829 35.9123 21.8106 35.6584 21.4373C35.4044 21.0639 35.6955 22.5015 35.9057 22.9002C36.725 24.4541 38.8863 23.7939 38.7843 23.6469C38.7428 23.5872 38.4242 22.6326 38.3252 22.2829Z" fill="#400A35"/>
<path d="M32.6559 47.4376C32.6559 47.4376 32.5359 36.5718 39.5987 35.0617C47.9563 33.2749 49.705 45.1023 50.4882 45.244C51.2714 45.3855 47.0152 47.3223 43.362 48.7793C39.1459 50.4608 32.4366 49.16 32.6559 47.4376Z" fill="#400A35"/>
<path d="M36.0628 31.2206C36.0628 31.2206 36.8385 32.8544 38.0119 32.4673C39.4682 31.9867 39.2481 31.4699 39.2927 31.3226C39.3372 31.1754 38.5857 32.381 37.5863 32.127C36.8045 31.9284 36.1906 31.0141 36.0628 31.2206Z" fill="#F4EED6"/>
<path d="M38.0308 16.3256C38.0308 16.3256 40.9889 20.7576 39.1839 22.0226C36.7675 23.7162 31.2085 19.2857 33.2793 17.225C35.3501 15.1643 37.0044 14.4734 38.0308 16.3256Z" fill="#E58483"/>
<path d="M38.1193 20.7324C38.1193 20.7324 38.3344 21.1669 38.5574 20.9872C38.7806 20.8075 38.6318 20.4494 38.6806 20.4046C38.7573 20.3343 38.926 20.9951 38.5407 21.1524C38.2151 21.2855 37.9319 20.5381 38.1193 20.7324Z" fill="#F4EED6"/>
<path d="M36.2308 19.5786C36.2308 19.5786 36.4833 19.9696 36.7065 19.7899C36.9297 19.6102 36.7434 19.2956 36.7922 19.2508C36.869 19.1805 37.1737 19.9153 36.6524 19.9986C36.3049 20.0542 36.0307 19.461 36.2308 19.5786Z" fill="#400A35"/>
<path d="M38.1747 18.8247C38.1747 18.8247 38.3432 19.1552 38.5662 18.9757C38.7894 18.796 38.6318 18.5073 38.6806 18.4625C38.7573 18.3922 39.0484 19.0185 38.5407 19.2103C38.167 19.3516 37.9873 18.6303 38.1747 18.8247Z" fill="#400A35"/>
<path d="M37.4699 18.7095C37.4699 18.7095 37.7629 20.6986 38.4128 20.3563C38.8333 20.1347 38.5134 20.1536 37.4699 18.7095Z" fill="#F05857"/>
<path d="M38.4827 17.7752C38.4827 17.7752 38.131 17.462 37.7797 17.7537C37.5105 17.9771 37.5912 18.3146 37.7089 18.2812C37.8263 18.2478 37.9023 17.9925 38.1296 17.9418C38.3045 17.9027 38.6288 17.9899 38.4827 17.7752Z" fill="#F4EED6"/>
<path d="M36.4159 18.93C36.4159 18.93 36.0176 18.6789 35.719 19.024C35.4901 19.2885 35.625 19.6082 35.7355 19.5559C35.846 19.5036 35.8791 19.2393 36.0949 19.1521C36.2608 19.0849 36.5953 19.1176 36.4159 18.93Z" fill="#F4EED6"/>
<path d="M39.1032 20.0093C39.3127 20.0093 39.4826 19.8394 39.4826 19.6299C39.4826 19.4204 39.3127 19.2505 39.1032 19.2505C38.8936 19.2505 38.7238 19.4204 38.7238 19.6299C38.7238 19.8394 38.8936 20.0093 39.1032 20.0093Z" fill="#E47373"/>
<path d="M36.7065 21.2617C36.916 21.2617 37.0859 21.0919 37.0859 20.8823C37.0859 20.6728 36.916 20.5029 36.7065 20.5029C36.4969 20.5029 36.3271 20.6728 36.3271 20.8823C36.3271 21.0919 36.4969 21.2617 36.7065 21.2617Z" fill="#E47373"/>
<path d="M35.594 15.972C35.594 15.972 36.125 19.9042 34.1759 20.8078C32.2268 21.7115 31.8617 15.3289 34.5775 14.535C37.2933 13.7412 39.6853 17.224 39.0798 17.8061C38.7878 18.0865 35.9088 16.6772 35.594 15.972Z" fill="#F4EED6"/>
<path d="M34.4984 25.3774C34.4984 25.3774 38.1606 24.1943 34.6467 20.3889C32.3916 17.947 32.7009 25.1941 34.4984 25.3774Z" fill="#F4EED6"/>
<path d="M34.0261 21.5026C34.0261 21.5026 33.6291 20.8392 34.0041 20.641C34.3791 20.4426 35.445 21.4385 35.0942 21.9785C34.7434 22.5183 34.0261 21.5026 34.0261 21.5026Z" fill="#E58483"/>
<path d="M40.5282 13.5691C40.5282 13.5691 38.8579 16.4288 35.6265 17.8218C32.3951 19.2148 29.4688 19.8724 29.4688 19.8724C28.1567 20.3608 29.8362 18.3545 33.4542 15.8819C37.4159 13.1743 40.8555 12.7318 40.5282 13.5691Z" fill="#400A35"/>
<path d="M37.4927 14.419C37.4927 14.419 31.5284 8.66383 30.7028 9.1719C29.8772 9.67997 32.6275 17.3492 32.6275 17.3492C32.6275 17.3492 35.938 15.8722 37.4927 14.419Z" fill="#400A35"/>
<path d="M32.0441 15.6443L36.0307 13.0508L36.9526 13.9061L32.3578 16.6249L32.0441 15.6443Z" fill="#F58A28"/>
<path d="M38.5448 14.9641C38.5448 14.9641 37.456 16.3462 36.498 16.8069C35.5401 17.2676 34.2873 17.7942 34.5353 17.4651C34.7833 17.136 36.3638 16.7085 36.7441 16.3466C37.1246 15.9844 38.7522 14.3387 38.5448 14.9641Z" fill="#F4EED6"/>
<path d="M33.6686 11.4175C33.6686 11.4175 34.84 12.339 35.0112 12.6022C35.1825 12.8654 34.2438 12.5021 33.8015 11.9755C33.3589 11.4491 32.6813 10.8581 33.6686 11.4175Z" fill="#F4EED6"/>
<path d="M33.8824 14.1719C33.8824 14.1719 34.9898 13.1598 35.1469 13.4359C35.304 13.7121 36.1904 14.3142 36.0758 14.5561C35.9613 14.798 35.1144 15.4696 34.8147 15.4496C34.5148 15.4298 33.6853 14.3441 33.8824 14.1719Z" fill="#FAB217"/>
<path d="M34.3912 14.2878C34.3912 14.2878 34.98 13.7496 35.0637 13.8965C35.1472 14.0433 35.6186 14.3636 35.5576 14.4923C35.4967 14.6209 35.0464 14.9781 34.8869 14.9675C34.7274 14.9567 34.2864 14.3794 34.3912 14.2878Z" fill="#C25530"/>
<path d="M47.2166 56.2511C47.2166 56.2511 47.1798 57.4359 46.5936 57.4482C46.0073 57.4605 45.8118 56.0312 46.0073 56.1411C46.2028 56.2511 46.2393 57.3383 46.5203 57.216C46.8014 57.0938 47.009 56.5807 47.0701 56.2144C47.1312 55.848 47.2166 56.2511 47.2166 56.2511Z" fill="#F05857"/>
<path d="M40.8013 55.5574C40.8013 55.5574 40.3006 56.6319 39.7569 56.412C39.2132 56.1921 39.5968 54.8015 39.7332 54.9796C39.8696 55.1576 39.4748 56.1712 39.7811 56.1697C40.0875 56.1682 40.4804 55.7786 40.6811 55.4658C40.8817 55.1532 40.8013 55.5574 40.8013 55.5574Z" fill="#F05857"/>
<path d="M43.7001 59.2075L46.2168 60.0854C46.2168 60.0854 42.6697 65.9462 42.8525 66.118C43.0353 66.29 44.9574 67.68 44.5312 67.7327C44.105 67.7854 40.5911 66.8584 40.8173 66.3375C42.199 63.1529 43.7001 59.2075 43.7001 59.2075Z" fill="#400A35"/>
<path d="M35.3586 55.1958L35.8813 57.8004C35.8813 57.8004 29.286 58.1926 29.2735 58.4433C29.2612 58.6941 29.359 61.123 29.0426 60.8326C28.7262 60.5422 27.8785 57.9419 28.014 57.3905C28.1496 56.8389 35.3586 55.1958 35.3586 55.1958Z" fill="#400A35"/>
<path d="M56.6448 24.6735C56.6448 24.6735 56.0821 24.4233 55.5771 24.7665C55.0722 25.1098 55.0336 25.6055 55.1382 25.7421C55.2429 25.8787 56.3431 26.872 56.6448 24.6735Z" fill="#E58483"/>
<path d="M40.3434 24.1539C40.3434 24.1539 42.8551 23.3597 47.2166 31.1907C47.734 32.1196 51.6458 26.4083 52.5386 26.1265C53.4316 25.845 53.5184 26.7134 54.5768 27.8024C55.5641 28.8181 51.976 33.3015 48.5259 34.4861C45.0757 35.6708 42.0153 30.0362 41.9573 29.2463C41.8995 28.4565 40.3434 24.1539 40.3434 24.1539Z" fill="#400A35"/>
<path d="M43.5783 28.4234C43.5783 28.4234 44.228 29.9511 43.142 30.4309C41.7941 31.0263 41.5952 30.5625 41.4636 30.4968C41.332 30.4309 42.6812 30.7308 43.2077 29.9522C43.6197 29.343 43.3479 28.3714 43.5783 28.4234Z" fill="#F4EED6"/>
<path d="M44.0129 49.5618C44.0129 49.5618 46.5468 49.0479 48.193 48.1461L47.9542 46.8174C47.9542 46.8174 44.4483 48.3557 43.7097 48.64L44.0129 49.5618Z" fill="#F05857"/>
<path d="M38.0435 50.4004C38.0435 50.4004 39.9018 50.8169 42.825 49.966V48.9731C42.825 48.9731 39.4532 49.7767 37.8276 49.5622L38.0435 50.4004Z" fill="#F05857"/>
<path d="M22.4944 39.0773C22.4944 39.0773 20.5556 38.9935 19.7228 40.0206C18.8901 41.0477 18.7662 41.8934 19.2223 41.9572C19.6784 42.0213 20.5756 40.8829 22.0923 40.6329C23.6091 40.3831 22.4944 39.0773 22.4944 39.0773Z" fill="#E58483"/>
<path d="M35.4284 29.0384C35.4284 29.0384 34.8637 37.7147 31.9107 38.8679C28.9578 40.0211 24.1644 42.815 23.4608 42.4561C22.7573 42.0971 21.7874 38.2438 22.1477 37.5377C22.508 36.8316 29.2927 36.758 30.5438 35.8994C31.7947 35.0405 32.5247 25.5029 34.802 26.135C35.9523 26.4544 36.2139 27.7389 35.4284 29.0384Z" fill="#400A35"/>
<path d="M35.1971 25.5993C35.1971 25.5993 36.1123 28.2416 36.9333 28.2747C37.7545 28.3075 41.0638 27.2016 41.235 26.3828C41.4063 25.5642 40.5392 24.3594 40.3432 24.1534C40.1473 23.9477 37.4543 23.9508 35.1971 25.5993Z" fill="#E58483"/>
<path d="M14.3978 23.3837L14.0645 22.38L15.0204 22.8818L15.9929 22.0483L15.7921 23.3837L16.8167 23.7271L15.5441 24.0268L15.213 25.4747L14.6939 24.2337H13.6093L14.3978 23.3837Z" fill="#F4EED6"/>
<path d="M57.1325 2.74166L56.1415 3.11097L56.6086 2.1376L55.7406 1.19581L57.0824 1.34833L57.3885 0.312012L57.7341 1.573L59.1928 1.85163L57.9713 2.41513L58.0104 3.49899L57.1325 2.74166Z" fill="#F4EED6"/>
<path d="M49.361 62.2445L48.9653 63.2254L48.5616 62.2241L47.2808 62.2298L48.2982 61.342L47.7395 60.4171L48.9038 61.0123L50.0932 60.123L49.6855 61.405L50.5122 62.107L49.361 62.2445Z" fill="#F4EED6"/>
<path d="M56.8972 44.9297L56.2037 45.1882L56.5306 44.507L55.9231 43.8479L56.8621 43.9547L57.0763 43.2295L57.3183 44.1118L58.339 44.3069L57.4842 44.7012L57.5115 45.4596L56.8972 44.9297Z" fill="#F4EED6"/>
<path d="M24.3739 46.0113L23.6805 46.2697L24.0072 45.5885L23.3998 44.9294L24.3387 45.0362L24.5531 44.311L24.7948 45.1935L25.8157 45.3885L24.9609 45.7827L24.9883 46.5414L24.3739 46.0113Z" fill="#F4EED6"/>
<path d="M3.95253 58.9878L2.96154 59.3571L3.42868 58.3837L2.56049 57.4419L3.90224 57.5944L4.20858 56.5581L4.55402 57.8191L6.01288 58.0977L4.79135 58.6612L4.83045 59.7451L3.95253 58.9878Z" fill="#F4EED6"/>
</svg>
