<svg width="211" height="133" viewBox="0 0 211 133" fill="none" xmlns="http://www.w3.org/2000/svg">
<path d="M211 132.93V102.275C200 97.0976 188.206 93.3747 175.989 91.2777C166.943 89.725 156.616 89.336 149.534 94.5825C146.074 97.1455 143.65 100.899 139.577 102.605C131.837 105.846 122.719 100.147 114.334 101.65C108.014 102.782 103.437 107.75 97.4002 109.765C91.8485 111.618 85.6943 110.798 79.7688 110.979C75.3931 111.113 71.052 121.005 66.9064 132.93H211Z" fill="#4D9796"/>
<path d="M211 132.93V102.548C200 97.8682 188.139 94.5025 175.922 92.6068C166.876 91.2031 156.549 90.8515 149.467 95.5945C146.007 97.9115 143.583 101.305 139.51 102.847C131.77 105.776 122.652 100.625 114.267 101.983C107.947 103.007 103.37 107.498 97.333 109.32C91.7813 110.995 85.6271 110.254 79.7017 110.417C75.4728 110.534 71.2763 121.066 67.2572 132.93L211 132.93Z" fill="white"/>
<path d="M171.855 97.4286C168.329 94.0875 163.283 93.5759 158.855 94.8347C154.426 96.0934 150.462 98.8971 146.59 101.681C142.718 104.464 138.782 107.306 134.373 108.656C140.847 109.788 147.236 106.564 153.154 103.329C159.072 100.095 165.339 96.6868 171.855 97.4286Z" fill="#28706C"/>
<path d="M162.143 118.453C169.115 117.146 176.015 115.319 182.784 112.988C185.231 112.146 187.951 110.942 188.911 108.209C179.218 105.31 168.376 108.123 160.691 115.534C160.159 116.047 159.589 116.76 159.767 117.533C160.003 118.561 161.234 118.623 162.143 118.453Z" fill="#28706C"/>
<path d="M193.773 103.929C191.82 103.55 189.811 103.556 187.86 103.946C187.428 104.033 186.984 104.145 186.629 104.443C186.275 104.74 186.031 105.27 186.151 105.757C189.183 107.139 192.586 107.414 195.754 106.532C196.055 105.946 194.355 104.042 193.773 103.929Z" fill="#4D9796"/>
<path d="M188.908 114.817C193.187 114.475 197.435 113.622 201.562 112.275C202.617 111.931 203.682 111.545 204.589 110.833C205.496 110.121 206.236 109.029 206.361 107.771C200.224 106.241 193.599 107.491 188.202 111.197C187.748 111.509 187.291 111.851 186.988 112.35C186.685 112.85 186.57 113.548 186.839 114.073C187.227 114.831 188.147 114.877 188.908 114.817Z" fill="#28706C"/>
<path d="M199.575 104.328C198.662 103.557 197.272 103.667 196.459 104.575C197.3 105.12 198.28 105.376 199.243 105.303C199.503 105.284 199.823 105.174 199.86 104.877C199.888 104.655 199.732 104.461 199.575 104.328Z" fill="#28706C"/>
<path d="M208.091 116.623C208.543 116.712 209.039 116.791 209.432 116.519C209.965 116.149 210.063 115.263 209.836 114.594C209.289 112.98 207.516 112.512 206.015 112.477C203.448 112.417 200.772 112.998 198.729 114.792C201.849 115.402 204.97 116.013 208.091 116.623Z" fill="#28706C"/>
<path d="M189.805 99.1354C183.93 99.8272 177.87 98.2417 172.827 94.6931C178.658 94.7066 184.295 96.9339 189.805 99.1354Z" fill="#28706C"/>
<path d="M192.124 98.4201C194.139 98.1523 196.236 98.8388 197.829 100.287C195.866 99.9645 193.942 99.3345 192.124 98.4201Z" fill="#4D9796"/>
<path d="M127.83 105.941C130.042 107.427 132.792 107.801 135.242 106.948C132.845 106.133 130.326 105.791 127.83 105.941Z" fill="#4D9796"/>
<path d="M173.197 96.8754C175.171 97.6217 177.086 98.58 178.907 99.7339C177.284 100.478 173.815 98.7611 173.197 96.8754Z" fill="#4D9796"/>
<path d="M201.599 101.37C203.718 101.264 205.861 102.094 207.496 103.654C205.414 103.421 203.381 102.634 201.599 101.37Z" fill="#4D9796"/>
<path d="M133.941 132.93C136.335 123.672 138.667 116.293 140.916 115.169C130.295 118.466 118.713 114.094 109.276 108.442C99.8384 102.79 91.0818 95.6775 80.3675 92.6597C76.3586 91.5306 71.6718 91.1158 68.2962 93.4451C65.6105 95.2984 64.3362 98.5034 61.8324 100.57C58.2214 103.551 52.8231 103.579 48.1292 102.628C33.0519 99.5761 20.2438 88.3477 4.82361 88.1586C3.17345 88.1383 1.45297 88.3252 0.00012207 88.9894V132.93H133.941Z" fill="white"/>
<path d="M81.5789 95.0638C77.5768 93.8129 73.1435 93.7518 69.438 95.8995C66.2994 97.7186 63.9201 100.957 60.8134 102.848C56.598 105.413 51.5349 105.217 46.8315 104.335C33.761 101.883 21.6217 94.7117 8.5802 92.1407C8.14906 92.1978 7.71848 92.2598 7.28882 92.328C11.2587 92.7469 15.129 95.4821 18.4231 98.3471C22.7348 102.097 27.2247 106.418 32.618 106.682C35.0553 106.801 37.5466 106.062 39.9092 106.765C42.3206 107.481 44.2083 109.579 46.3362 111.072C50.5643 114.039 56.0869 114.543 60.5518 112.081C65.3516 109.435 68.6064 103.802 73.5428 101.515C79.5729 98.7211 86.397 101.594 92.8733 100.99C89.2498 98.6629 85.581 96.3146 81.5789 95.0638Z" fill="#4D9796"/>
<path d="M64.6896 120.079C61.6038 120.606 58.503 121.608 55.414 121.107C52.8159 120.687 50.3804 119.218 47.7598 119.076C43.8207 118.862 40.1573 121.662 36.2147 121.75C31.759 121.849 27.6477 118.507 23.4194 117.135V117.425C24.7541 118.126 26.0235 119.139 27.1634 120.178C29.6543 122.448 32.2607 125.067 35.4314 125.216C38.2531 125.349 40.9205 123.453 43.7433 123.552C46.3937 123.645 48.7634 125.474 51.3692 126.042C55.1453 126.864 58.9184 124.986 62.4858 123.337C66.0533 121.688 70.0732 120.226 73.6558 121.831C71.2069 119.6 67.7753 119.551 64.6896 120.079Z" fill="#28706C"/>
<path d="M24.5904 120.229C22.3846 120.392 20.1435 119.867 18.1671 118.724C20.2151 117.268 23.1962 117.966 24.5904 120.229Z" fill="#28706C"/>
<path d="M80.4645 127.34C78.8393 126.388 77.7644 124.565 76.558 122.988C75.3516 121.41 73.7372 119.935 71.9204 120.103C75.7367 119.892 79.4933 123.074 80.4645 127.34Z" fill="#28706C"/>
<path d="M87.3511 123.815C88.9548 127.3 92.0703 129.8 95.4586 130.32C92.5262 128.544 89.5213 126.703 87.3511 123.815Z" fill="#28706C"/>
<path d="M9.92579 127.083C10.8567 126.225 11.3095 124.876 11.8901 123.675C13.6755 119.983 17.049 117.376 20.6859 116.878C18.0664 115.341 14.8444 116.731 12.4837 118.751C10.1229 120.771 8.12949 123.428 5.46644 124.861C4.33874 125.469 3.10447 125.847 2.09299 126.684C1.08151 127.52 0.324385 129.023 0.730313 130.381C1.50796 128.673 3.441 128.244 5.11153 128.211C6.78181 128.179 8.61973 128.286 9.92579 127.083Z" fill="#4D9796"/>
<mask id="mask0_14_2" style="mask-type:luminance" maskUnits="userSpaceOnUse" x="0" y="0" width="34" height="93">
<path d="M33.694 0H0V92.1013H33.694V0Z" fill="white"/>
</mask>
<g mask="url(#mask0_14_2)">
<path d="M31.7155 18.7088C31.3529 17.9022 30.5864 17.6073 30.2455 16.7815L28.8825 17.6208C29.5857 17.2057 30.467 17.5337 30.9408 18.387C30.8144 19.086 30.656 19.8507 30.2314 20.2383C29.9904 20.4583 29.6978 20.5207 29.4149 20.5782C28.9895 20.6646 28.5339 20.7446 28.1487 20.4716C27.7685 20.2022 27.5372 19.6463 27.3043 19.1378C26.8057 18.0487 26.2065 17.0555 25.53 16.1864C25.4447 16.0686 25.3578 15.9534 25.2685 15.8427C25.2711 15.43 25.3672 15.0064 25.5271 14.6606C25.8165 14.0353 26.2726 13.6141 26.7274 13.2432C27.5813 12.5468 28.4938 11.9551 29.4653 11.7481C29.7322 11.6912 30.0173 11.6676 30.2596 11.8378C30.502 12.0081 30.6762 12.4322 30.5747 12.791C30.4732 13.1501 30.1448 13.2802 29.8852 13.1736C29.6256 13.067 29.4201 12.7887 29.2256 12.5199C29.4212 12.2834 29.6168 12.0469 29.8125 11.8105C29.5325 11.9979 29.2524 12.1852 28.9724 12.3725C28.7965 12.666 28.8963 13.1513 29.1053 13.396C29.3143 13.6408 29.5936 13.7115 29.8584 13.7854C30.1232 13.8592 30.4028 13.9569 30.5901 14.2356C30.8222 13.9818 31.0573 13.7235 31.2334 13.3897C31.4096 13.0558 31.5224 12.6307 31.474 12.2178C31.4112 11.6817 31.0842 11.2674 30.7226 11.1055C30.361 10.9435 29.9701 10.9933 29.5976 11.0922C29.3691 11.1528 29.145 11.2321 28.9242 11.3248C29.056 11.0463 29.1427 10.7149 29.221 10.3937C29.5534 9.03118 29.8628 7.65708 30.1487 6.27309C30.0489 6.23512 29.9492 6.19705 29.8493 6.15908C29.333 8.84494 28.1581 11.2571 26.5833 12.8855C26.4223 13.0284 26.2631 13.1762 26.1051 13.3277L25.7783 13.6115C25.8113 13.5904 25.8444 13.5692 25.8773 13.5481C25.3784 14.0408 24.8925 14.5653 24.4139 15.0864C24.1494 14.951 23.8688 14.889 23.5904 14.8312C23.4044 14.7926 23.2173 14.7547 23.03 14.736C23.1185 14.6085 23.1937 14.4649 23.2445 14.296C22.4314 14.6961 21.6024 15.0291 20.7632 15.2957C20.7694 15.2889 20.776 15.2831 20.7822 15.276C21.0316 14.9904 21.2001 14.5841 21.3307 14.1663C21.535 13.5131 21.6598 12.8088 21.6978 12.0948C21.7187 11.7018 21.7137 11.3051 21.7589 10.9162C21.8041 10.5275 21.9058 10.1372 22.1051 9.86616C22.4826 9.35313 23.0738 9.40832 23.5901 9.49673C23.7192 9.90642 23.8484 10.3161 23.9776 10.7257C23.4367 11.1603 23.4996 11.1098 22.9586 11.5445C22.7419 11.3321 22.525 11.1198 22.3082 10.9074C22.4452 11.2912 22.5822 11.6751 22.7192 12.0589C23.2215 11.9818 23.7692 11.8737 24.1151 11.3454C24.4551 10.8262 24.4898 9.95143 24.1929 9.38025C24.0095 9.02747 23.7246 8.80164 23.4263 8.69962C23.1386 8.60122 22.8356 8.61017 22.5466 8.70019C22.2679 8.78708 21.9963 8.95305 21.7853 9.22827C21.4172 9.70847 21.2807 10.4434 21.1522 11.1331C20.961 12.1589 20.7467 13.1889 20.3731 14.1055C20.1297 14.703 19.8105 15.2519 19.4254 15.6628C17.888 16.0171 16.3258 16.1481 14.7702 16.0541C14.3563 16.0291 14.141 15.4677 14.4136 15.1072C14.4158 15.1044 14.4179 15.1015 14.42 15.0987C14.5175 14.9701 14.6173 14.8452 14.7184 14.7227C14.8501 14.6078 14.9825 14.4953 15.1159 14.3873C15.0975 14.3575 15.0769 14.3418 15.0551 14.3349C16.3324 12.926 17.859 11.983 19.4522 11.6361L19.3076 11.1987C17.8491 11.5152 16.434 12.2134 15.1403 13.2297C15.2465 12.8062 15.2783 12.3549 15.2018 11.9159C15.0566 11.0825 14.5711 10.4754 14.1114 9.92516C13.8251 9.58257 13.4965 9.21951 13.125 9.26472C12.8783 9.29469 12.661 9.50339 12.4653 9.72132C12.1736 10.0462 11.8921 10.4263 11.7614 10.9218C11.5269 11.8108 11.9213 12.9284 12.5593 13.1831C13.1974 13.4378 13.9372 12.773 14.0562 11.838C13.7007 11.5455 13.3857 11.1517 13.1349 10.6863C13.2174 11.0658 13.3782 11.4142 13.4044 11.81C13.4307 12.2058 13.2333 12.679 12.9588 12.6252C12.6412 12.7706 12.283 12.4073 12.2061 11.9417C12.1292 11.4762 12.2874 10.9776 12.5371 10.6607C12.7869 10.3437 13.114 10.1818 13.4399 10.0812C13.9428 10.5062 14.4998 11.0437 14.573 11.8747C14.6105 12.301 14.5074 12.7284 14.3695 13.1097C13.6599 15.0719 12.1195 16.0629 10.9732 17.5402C10.875 17.6423 10.7772 17.7456 10.6802 17.8501C10.4273 18.1222 10.0221 18.0809 9.81843 17.7585C9.49402 17.2451 9.19557 16.6986 8.92457 16.125C8.18129 14.552 8.23997 12.6172 9.10705 11.1311C9.37105 10.6785 9.61601 10.2028 9.84052 9.70771C10.636 8.95724 11.3955 8.13805 12.0733 7.18012C12.7045 6.28775 13.2836 5.25739 14.0903 4.73112C14.8969 4.20486 16.033 4.41479 16.4184 5.55992C16.0218 5.98702 15.6809 6.52062 15.4188 7.12473C15.1899 6.86654 14.9609 6.60836 14.7319 6.35018C14.8464 6.04508 14.9609 5.73988 15.0755 5.43478C14.8505 5.66746 14.6254 5.90014 14.4004 6.13272C14.5524 7.14338 15.4352 7.76995 16.0871 7.32991C16.7391 6.88996 16.9657 5.51453 16.5203 4.702C15.9781 3.71285 14.9016 3.85941 14.0843 4.31563C12.7963 5.03461 11.6907 6.25406 10.6454 7.56991C11.1572 5.89738 11.4552 4.09123 11.4956 2.26453C11.3706 2.25282 11.4229 2.25768 11.2981 2.24597C10.9349 5.31525 9.82932 8.1843 8.2342 10.29C7.90204 10.7285 7.27275 10.5176 7.20558 9.9403C6.99919 8.16613 7.00777 6.34332 7.25759 4.5781L6.9021 4.67231C6.60695 7.19686 6.62302 9.79089 6.93054 12.3119C6.98263 12.739 6.57761 13.0454 6.26482 12.8095C4.88219 11.7672 3.68139 10.098 2.72653 8.34275L2.87241 8.50653C2.40352 6.92755 1.93149 5.33457 1.69757 3.65128C1.6051 2.98569 1.55251 2.27995 1.71101 1.64053C1.86951 1.00102 2.29258 0.453338 2.76469 0.494735C2.92096 0.508439 3.08383 0.595705 3.17152 0.781849C3.32582 1.10941 3.18661 1.54736 3.04707 1.88834C3.14729 2.23274 3.51943 2.26729 3.70281 2.00254C3.88612 1.73779 3.89766 1.30212 3.80395 0.953909C3.65279 0.392051 3.25667 -0.0040278 2.83854 -0.0563689C2.4205 -0.10871 1.99602 0.165177 1.72115 0.620258C1.23782 1.42051 1.24137 2.60227 1.34893 3.65004C1.44421 4.57791 1.60032 5.48931 1.77348 6.39443C1.47215 5.70705 1.21244 5.03756 0.998884 4.41936C0.840139 4.56411 0.780218 4.55355 0.621474 4.69829C1.07933 6.21495 1.66428 7.64966 2.35464 8.97189C1.46383 9.02509 0.57301 9.07838 -0.317723 9.13167C-0.481083 9.14148 -0.647658 9.15071 -0.805084 9.08742C-0.999434 9.00929 -1.16527 8.8261 -1.30835 8.62178C-1.64587 8.14014 -1.89149 7.45505 -1.79794 6.78527C-1.73727 6.35103 -1.53122 5.96352 -1.25535 5.765C-0.971988 5.95762 -0.748789 6.32467 -0.654169 6.75358C-0.559466 7.18249 -0.594743 7.66708 -0.749119 8.05868C-0.538943 7.51396 -0.328685 6.96932 -0.118509 6.42469C-0.329921 6.0269 -0.566308 5.63976 -0.873247 5.40261C-1.18019 5.16546 -1.57227 5.10246 -1.87344 5.35455C-2.21887 5.64386 -2.35865 6.24664 -2.47116 6.79745C-2.55737 7.2197 -2.64408 7.66717 -2.5671 8.09304C-2.50149 8.456 -2.32535 8.75349 -2.15441 9.03718C-1.90591 9.44953 -1.63886 9.87996 -1.27736 10.0476C-1.00413 10.1744 -0.70898 10.1347 -0.422481 10.1063C0.779147 9.98674 1.99108 10.0902 3.17482 10.4094C3.51349 10.9543 3.87129 11.4746 4.24622 11.9682C3.77922 11.977 3.30332 12.2126 2.85634 12.4477C2.64444 12.5593 2.41901 12.6853 2.2906 12.9517C2.16837 13.2052 2.15963 13.5336 2.15658 13.8419C2.1518 14.3191 2.1504 14.8006 2.21782 15.2679C2.28524 15.7353 2.42709 16.1931 2.67056 16.5182C3.04418 17.0171 3.62847 17.1288 4.10182 16.8552C4.57517 16.5816 4.93123 15.9609 5.08091 15.2608C4.82144 15.153 4.6036 14.9048 4.38692 14.6733C4.17031 14.4416 3.93648 14.2148 3.66886 14.1622C3.40123 14.1096 3.09273 14.2861 3.00256 14.6517C3.49519 14.3364 4.14287 14.6882 4.36664 15.3925C4.12745 16.1248 3.43882 16.47 2.9339 16.1105C2.80071 16.0156 2.67699 15.8714 2.62152 15.6734C2.5677 15.4812 2.58402 15.2651 2.60355 15.0598C2.65935 14.4743 2.73411 13.8925 2.8275 13.3169C3.59633 13.1287 4.37785 13.0489 5.15756 13.0765C5.36906 13.3138 5.58492 13.543 5.8049 13.7636C6.78927 14.751 7.56321 15.994 7.98867 17.4173C8.25349 18.3031 8.55763 19.1645 8.9005 19.9938C7.42845 21.9696 6.14835 24.2407 5.11701 26.7242C4.99799 27.0107 4.62759 26.9088 4.63146 26.591C4.658 24.4313 4.57121 22.2691 4.36738 20.1284C4.12045 20.1429 4.22108 20.137 3.97423 20.1515C3.97126 21.3408 3.94357 22.5299 3.89453 23.7173C3.42852 23.8441 2.93629 23.7649 2.47943 23.5658C1.92036 23.3222 1.40415 22.9138 0.892724 22.5084C0.579439 22.26 0.254697 21.9972 0.0513619 21.5745C-0.199695 21.0525 -0.223185 20.3797 -0.238186 19.7458C-0.255989 18.9895 -0.22302 18.0779 0.363741 17.8226C0.793241 18.1253 0.995257 18.2677 1.42476 18.5704C1.48006 18.9806 1.53529 19.3909 1.59059 19.8012C1.20354 19.8172 0.816484 19.8332 0.429348 19.8492C0.830908 20.1742 1.29395 20.3409 1.75486 20.3266C1.9028 19.9751 2.05248 19.618 2.12831 19.2221C2.20414 18.8262 2.19796 18.3795 2.04671 18.031C1.94995 17.8079 1.80192 17.6411 1.64993 17.4945C1.41808 17.271 1.1606 17.079 0.882092 17.0475C0.557268 17.0106 0.242169 17.1939 -0.0585888 17.3738C-0.31558 17.5275 -0.589221 17.701 -0.734365 18.0419C-0.869455 18.3593 -0.864427 18.7554 -0.855196 19.127C-0.850498 19.3168 -0.844976 19.5088 -0.837393 19.7013C-1.39333 18.4715 -2.07652 17.353 -2.75403 16.2491C-2.8142 16.151 -2.87585 16.0519 -2.94253 15.9627C-3.4186 14.7881 -4.0244 13.7217 -4.73331 12.8209C-5.05484 12.4123 -5.41345 12.0038 -5.54657 11.4178C-5.65718 10.9313 -5.59215 10.4024 -5.5225 9.90042C-5.44304 9.32838 -5.33054 8.69677 -4.98742 8.38396C-4.67314 8.09742 -4.24793 8.1804 -3.92714 8.45172C-3.57232 8.75187 -3.29942 9.33647 -3.37937 9.91641C-3.45931 10.4963 -4.00058 10.8903 -4.31815 10.5139C-4.33414 10.2094 -4.35013 9.90499 -4.36604 9.60056C-4.69202 9.71751 -4.79677 10.3924 -4.59649 10.7796C-4.3962 11.1667 -4.008 11.2685 -3.6821 11.1509C-3.35629 11.0333 -3.07737 10.739 -2.80769 10.4512C-2.79071 9.5465 -3.12353 8.64433 -3.65449 8.15594C-4.18537 7.66755 -4.89568 7.61026 -5.46134 8.01024C-5.72072 9.52328 -6.11462 11.0784 -5.87535 12.5983C-5.69715 13.7297 -5.17814 14.7027 -4.55561 15.4425C-4.4806 15.5317 -4.40395 15.6175 -4.32606 15.701C-4.65855 15.7458 -4.99104 15.7906 -5.32353 15.8353C-5.58061 15.87 -5.84633 15.9082 -6.07159 16.0895C-6.51362 16.4451 -6.67377 17.2288 -6.79452 17.9351C-6.856 18.2944 -6.91254 18.7011 -6.77325 19.0124C-6.68044 19.2198 -6.5189 19.3385 -6.36485 19.4476C-6.07448 19.6536 -5.78411 19.8595 -5.49373 20.0653C-5.38452 20.1428 -5.26963 20.2221 -5.14797 20.2163C-5.03646 20.2109 -4.93343 20.1347 -4.83469 20.0602C-4.38359 19.7198 -3.93242 19.3793 -3.48132 19.0389C-3.55113 18.718 -3.52426 18.3731 -3.52336 18.037C-3.52245 17.7009 -3.55657 17.3378 -3.71795 17.0942C-3.81068 16.9541 -3.93654 16.8686 -4.06396 16.8062C-4.38219 16.6504 -4.73521 16.6227 -5.055 16.7717C-5.3748 16.9206 -5.65676 17.2547 -5.79202 17.6965C-5.47395 17.4787 -5.15597 17.261 -4.8379 17.0432C-4.62789 17.2216 -4.39752 17.3506 -4.15883 17.4235L-4.24117 18.7811C-4.59443 18.9885 -4.94769 19.196 -5.30087 19.4035C-5.63797 19.1112 -5.99354 18.7903 -6.16028 18.2783C-6.23182 18.0588 -6.2638 17.8096 -6.23644 17.5704C-6.18501 17.1199 -5.93008 16.7608 -5.64077 16.5711C-5.35139 16.3815 -5.02846 16.3326 -4.71196 16.2861C-4.35186 16.2333 -3.97198 16.1847 -3.64221 16.3991C-3.43739 16.5322 -3.26859 16.7578 -3.11924 16.9989C-2.47421 18.0407 -2.14296 19.3973 -1.84673 20.7245C-1.75137 21.1518 -1.65271 21.5938 -1.44608 21.9305C-1.21818 22.3018 -0.886929 22.5004 -0.567626 22.6872C-0.339483 22.8206 -0.111257 22.954 0.116887 23.0874C0.238707 23.2346 0.36679 23.3724 0.495451 23.5066C1.52564 24.5807 2.61402 25.5395 3.7465 26.375C3.53517 29.3799 3.17729 32.3634 2.67551 35.2964C2.50308 35.669 2.34162 36.0453 2.19112 36.4248C2.02141 36.8527 1.49605 36.8441 1.33516 36.4115C1.22472 36.1146 1.11172 35.8192 0.996494 35.5252C0.64653 33.733 0.296567 31.9408 -0.0533966 30.1486C-0.184942 29.475 -0.317476 28.7917 -0.321762 28.0923C-0.32613 27.3799 -0.181562 26.6359 0.176973 26.1407C0.707275 26.2951 0.784916 26.3176 1.31522 26.472C1.44223 27.2036 1.56924 27.9352 1.69626 28.6668C1.17156 28.8636 1.3425 28.7994 0.817803 28.9962C0.737276 28.7941 0.656833 28.592 0.576389 28.3899C0.773707 28.0606 0.939375 27.6922 1.06705 27.2984C0.769174 27.5809 0.500808 27.9276 0.273736 28.3231C0.213898 28.9454 0.502044 29.5994 0.919429 29.7886C1.33681 29.9778 1.83448 29.6801 2.0346 29.1215C2.23966 28.5492 2.13532 27.853 1.98127 27.2487C1.84849 26.7278 1.67656 26.2135 1.40209 25.8229C1.12771 25.4322 0.735134 25.1804 0.353768 25.2707C0.0291904 25.3476 -0.251456 25.6627 -0.436823 26.0528C-0.622107 26.443 -0.722085 26.9036 -0.791154 27.3652C-0.99927 28.7567 -0.94108 30.1848 -0.700161 31.5663C-1.18398 30.5116 -1.68082 29.4709 -2.17642 28.4408C-2.40877 28.6076 -2.6412 28.7744 -2.87354 28.9412C-0.783489 31.8665 0.608204 35.762 1.13851 39.8782C0.1173 44.5827 0.76324 49.4783 2.73658 53.9799C8.99735 68.2612 3.27142 78.9373 3.26961 79.5202C3.26829 79.9521 3.11111 80.37 2.9883 80.7885C2.63504 81.9918 2.56102 83.2342 2.58295 84.4804C2.31112 84.5088 2.0421 84.5883 1.7856 84.7237C0.94531 85.1675 0.239613 86.1417 -0.648812 86.3014C-0.940091 86.3538 -1.23533 86.3138 -1.52866 86.3296C-2.72658 86.3941 -3.79609 91.3097 -4.79933 92.2514C0.0435318 91.3312 4.94854 91.4188 9.83319 91.508C13.0115 91.5661 16.1898 91.6241 19.3681 91.6822C18.1016 91.5645 17.1527 85.8107 15.8875 85.6681C15.4699 85.621 15.0527 85.7636 14.6338 85.7585C14.1634 85.7527 13.7097 85.5623 13.2572 85.363C13.278 83.7541 16.3867 66.6166 10.1649 60.3973C5.98112 53.9936 5.60215 49.1531 4.57995 45.5441C4.57987 45.5431 4.57987 45.542 4.57978 45.541C5.13869 42.4707 6.26094 39.6043 7.96963 37.6168C7.82003 37.5189 7.67036 37.4211 7.52076 37.3231C6.5842 38.4768 5.77523 39.8322 5.11157 41.3228C4.80628 42.0085 3.90384 41.7579 3.91431 40.987C3.92445 40.2427 3.9889 39.498 4.10396 38.7587C5.91815 34.3822 8.4424 30.709 11.7379 28.822C14.43 28.4389 17.5955 29.3026 20.1532 28.0011C20.0882 27.8609 20.0654 27.6819 20.0917 27.5178C18.4373 28.0218 16.7348 28.0805 15.0439 28.1373C14.9637 28.1399 14.8828 28.1424 14.8016 28.1435C14.5013 28.1475 14.3412 27.7354 14.5423 27.478C14.544 27.4758 14.5457 27.4736 14.5474 27.4714C15.1863 26.6539 15.8726 25.9127 16.5968 25.2578C18.1854 23.8211 20.0178 22.7885 21.8941 22.8915C22.1315 22.9045 22.4113 22.9759 22.5121 23.2847C22.5841 23.5055 22.5301 23.7777 22.4215 23.9652C22.3129 24.1528 22.159 24.2724 22.0069 24.3813C21.8088 24.5232 21.5895 24.6579 21.3727 24.5941C21.1557 24.5303 20.9713 24.1747 21.0732 23.8927C21.3715 23.7274 21.6698 23.562 21.9681 23.3967C21.4895 23.2738 20.9822 23.3944 20.5568 23.7323C20.4432 24.2675 20.64 24.88 20.9709 25.1758C21.3019 25.4717 21.7347 25.4749 22.0961 25.265C22.4575 25.0551 22.7526 24.6534 22.9766 24.1955C23.1067 23.9297 23.2197 23.6082 23.1693 23.2915C23.0971 22.8374 22.7373 22.6235 22.4202 22.5245C21.3187 22.1807 20.1602 22.3691 19.0831 22.8465C18.0061 23.3238 16.9999 24.0807 16.0224 24.8864C15.1609 25.5966 14.3171 26.3495 13.4792 27.1159C13.2372 27.2028 12.9965 27.2958 12.7578 27.3988C13.8922 26.2736 14.8137 24.7017 15.3595 22.8829C15.6103 22.0472 15.7849 21.0929 15.5725 20.2355C15.4481 19.7332 15.2001 19.3106 14.9187 18.9627C14.6572 18.6394 14.3375 18.3603 13.9927 18.3831C13.6969 18.4026 13.4284 18.6437 13.213 18.9351C12.7856 19.5131 12.5214 20.2904 12.2662 21.0495C12.567 21.5369 12.9769 21.8835 13.4199 22.0239C13.4608 21.9262 13.4519 21.9475 13.4928 21.8498C13.2331 21.6321 12.9488 21.3707 12.8788 20.9505C12.818 20.5863 12.9388 20.2158 13.0562 19.8814C13.1864 19.5108 13.3469 19.103 13.626 18.9944C13.8593 18.9037 14.1016 19.0538 14.3206 19.2005C14.5338 19.3432 14.761 19.5045 14.8727 19.8017C14.9476 20.0011 14.9595 20.2352 14.9698 20.4612C14.9881 20.8622 15.0064 21.2632 15.0247 21.6641C15.0348 21.887 15.0441 22.1189 14.9852 22.3257C14.9207 22.5524 14.7837 22.7172 14.6521 22.873C12.9514 24.8862 11.3079 26.9988 9.72654 29.2032C8.53966 30.1153 7.42795 31.2312 6.42158 32.5161C5.9667 33.0969 5.14371 32.5503 5.35735 31.8071C5.65028 30.7882 5.97057 29.7854 6.32078 28.8019C6.91125 27.1439 7.60294 25.4536 8.3838 23.8176C10.2619 19.883 13.6685 17.235 17.5358 16.739C18.9844 16.5533 20.4172 16.287 21.7844 15.6305C22.3337 15.6346 22.8828 15.6665 23.4301 15.7332C23.9451 15.796 24.4764 15.8949 24.919 16.2781C25.0826 16.4197 25.2348 16.6055 25.3179 16.8524C25.4248 17.1701 25.4042 17.542 25.3812 17.8934C25.3508 18.3563 25.3082 18.8585 25.0806 19.1893C24.8724 19.4919 24.548 19.5783 24.2551 19.5154C23.9621 19.4525 23.6914 19.2605 23.4261 19.0711C23.373 18.7894 23.3195 18.4983 23.3471 18.2092C23.3746 17.9201 23.5046 17.6304 23.7023 17.5625C23.8569 17.5095 24.0215 17.6016 24.1428 17.7489C24.264 17.8962 24.3498 18.0933 24.4336 18.2871C24.4186 17.8515 24.353 17.4195 24.2402 17.0145C23.8066 17.109 23.373 17.2035 22.9394 17.298C23.0016 17.6962 22.9341 18.1087 22.9097 18.5152C22.8854 18.9216 22.9188 19.3782 23.1292 19.6525C23.2594 19.8222 23.4362 19.8935 23.6069 19.9543C24.1897 20.1619 24.7827 20.3105 25.3801 20.3983C25.5771 19.5212 25.7742 18.644 25.9711 17.767C26.357 18.9074 26.8545 19.9701 27.4447 20.9134C27.6833 21.2947 27.9494 21.6682 28.2869 21.836C28.6939 22.0383 29.1392 21.9126 29.5662 21.8311C29.9492 21.758 30.3378 21.7219 30.7106 21.5763C31.0834 21.4306 31.4476 21.1608 31.6756 20.7132C31.9681 20.1397 31.9839 19.3059 31.7155 18.7088ZM12.3728 14.3065C12.3435 14.3473 12.3146 14.3886 12.2856 14.4298C12.2692 14.4443 12.2529 14.4594 12.2365 14.474L12.3728 14.3065Z" fill="white"/>
</g>
<path d="M33.5978 118.407C34.1409 115.058 34.1613 111.63 34.1799 108.224C34.229 99.228 34.2782 90.2322 34.3274 81.2364C34.334 80.0166 33.5567 78.9799 32.5101 78.813L29.3044 78.3018C28.5843 78.1869 27.8146 78.0803 27.1605 78.4467C26.6216 78.7486 26.2405 79.3347 25.9729 79.9534C25.273 81.5712 25.2323 83.4505 25.2312 85.2589C25.2256 93.904 25.7973 102.55 25.494 111.188C25.3064 116.53 24.7844 121.873 25.0661 127.21C27.8663 125.64 31.1113 125.152 34.1665 125.84L33.5978 118.407Z" fill="white"/>
<path d="M32.8794 80.4233C32.6734 93.2166 32.6255 106.194 32.7372 118.994L32.4052 118.998C32.2935 106.194 32.3413 93.2133 32.5473 80.4162C32.5548 79.9478 32.5624 79.4637 32.4203 79.0357C32.3917 78.9497 32.3532 78.8633 32.3073 78.7808L32.5101 78.8131C32.5822 78.8246 32.6495 78.8498 32.7189 78.8694C32.7224 78.8791 32.7271 78.8887 32.7303 78.8984C32.8957 79.3962 32.8871 79.9418 32.8794 80.4233Z" fill="#4D9796"/>
<path d="M32.1735 82.5228L32.1646 82.7352C32.0696 85.0638 32.0984 87.4437 32.1262 89.745C32.1771 93.9663 32.2298 98.3312 31.52 102.54L31.3569 102.503C32.0635 98.3142 32.011 93.9592 31.9601 89.7476C31.9323 87.4434 31.9035 85.0604 31.9988 82.7262L32.0076 82.5135C32.0401 81.7451 32.0739 80.9502 31.9603 80.1879C31.8712 79.5906 31.6904 79.0639 31.4376 78.6421L31.6535 78.6765C31.8778 79.0954 32.0405 79.5958 32.124 80.1557C32.2406 80.9385 32.2066 81.744 32.1735 82.5228Z" fill="#4D9796"/>
<path d="M26.1061 84.0722L26.5252 79.0076C26.5835 78.9346 26.645 78.8656 26.7092 78.8004L26.2714 84.0903L26.1061 84.0722Z" fill="#4D9796"/>
<path d="M27.8123 93.2773L27.6463 93.2817C27.5488 88.2651 27.7132 83.1954 28.1289 78.1984C28.1844 78.1963 28.2399 78.1953 28.2957 78.196C27.8794 83.192 27.7147 88.2615 27.8123 93.2773Z" fill="#4D9796"/>
<path d="M27.9453 101.859L28.1113 101.855C28.2214 107.13 28.0831 112.47 27.7002 117.727L27.5348 117.711C27.9171 112.461 28.0551 107.127 27.9453 101.859Z" fill="#4D9796"/>
<path d="M31.1777 103.758L31.0117 103.759L31.0441 113.584L31.2101 113.584L31.1777 103.758Z" fill="#4D9796"/>
<path d="M26.5672 108.606L26.733 108.592C26.9097 111.474 26.8037 114.383 26.4179 117.238L26.2538 117.209C26.6378 114.368 26.7432 111.474 26.5672 108.606Z" fill="#4D9796"/>
<path d="M28.9181 108.571L29.0829 108.547C29.2703 110.258 29.1435 112.036 28.7162 113.688L28.557 113.633C28.9779 112.006 29.1026 110.256 28.9181 108.571Z" fill="#4D9796"/>
<path d="M43.825 108.505C43.8711 102.231 44.021 95.9589 44.2854 89.6927C44.314 89.0125 44.3617 88.2783 44.7435 87.7592C45.2803 87.0291 46.2355 87.019 47.0639 87.0683C47.6295 87.102 48.2321 87.1503 48.6862 87.5413C49.2616 88.0366 49.4334 88.9309 49.5486 89.7488C50.4216 95.9503 50.3642 102.323 49.3916 108.505L43.825 108.505Z" fill="white"/>
<path d="M48.4048 94.6883C48.3191 97.3258 48.2852 100.01 48.2521 102.628C48.2277 104.564 48.199 106.531 48.1463 108.505H47.8453C47.8982 106.525 47.9272 104.55 47.9517 102.601C47.9846 100.003 48.0185 97.3165 48.1044 94.6754L48.1151 94.3481C48.1953 91.9184 48.2754 89.4193 47.698 87.1287C47.8105 87.1464 47.921 87.1716 48.0295 87.2026C48.5743 89.4958 48.4949 91.9621 48.4156 94.3613L48.4048 94.6883Z" fill="#4D9796"/>
<path d="M47.6057 95.7673L47.4583 95.7334C47.9524 92.8692 47.8552 89.8932 47.1945 87.0769C47.2474 87.0804 47.3003 87.0847 47.3535 87.0892C48.008 89.9141 48.1011 92.8965 47.6057 95.7673Z" fill="#4D9796"/>
<path d="M44.6526 92.8619C44.6338 91.0485 44.7715 89.2329 45.0582 87.4497C45.114 87.4074 45.1693 87.3641 45.2294 87.3301C44.9277 89.1507 44.7836 91.0063 44.8029 92.8598L44.6526 92.8619Z" fill="#4D9796"/>
<path d="M43.8345 108.505C43.8429 107.364 43.8472 106.223 43.8629 105.082L44.1065 97.1124L44.2569 97.1185L43.9088 108.505L43.8345 108.505Z" fill="#4D9796"/>
<path d="M45.598 108.505C45.8712 106.002 45.9928 103.458 45.9545 100.936L46.1048 100.934C46.1432 103.455 46.0216 106.001 45.7493 108.505H45.598Z" fill="#4D9796"/>
<path d="M44.5298 108.505L44.786 99.889L44.9364 99.8951L44.6803 108.505H44.5298Z" fill="#4D9796"/>
<path d="M46.2502 108.505L46.6869 96.6205L46.8373 96.6279L46.4009 108.505H46.2502Z" fill="#4D9796"/>
</svg>
